<?xml version="1.0" encoding="UTF-8"?>
<svg id="tinetable" xmlns="http://www.w3.org/2000/svg" xmlns:xlink="http://www.w3.org/1999/xlink" viewBox="0 0 531.04 531.85">
  <defs>
    <style>
      .cls-1 {
        clip-path: url(#clippath-3);
      }

      .cls-1, .cls-2, .cls-3, .cls-4, .cls-5, .cls-6, .cls-7, .cls-8 {
        fill: none;
      }

      .cls-1, .cls-2, .cls-3, .cls-4, .cls-5, .cls-7, .cls-8 {
        clip-rule: evenodd;
      }

      .cls-2 {
        clip-path: url(#clippath-12);
      }

      .cls-9 {
        clip-path: url(#clippath-11);
      }

      .cls-10 {
        clip-path: url(#clippath-16);
      }

      .cls-11, .cls-12, .cls-13 {
        fill: #fff;
      }

      .cls-14 {
        fill: url(#Adsız_degrade_16-6);
      }

      .cls-15 {
        fill: url(#Adsız_degrade_16-4);
      }

      .cls-3 {
        clip-path: url(#clippath-9);
      }

      .cls-4 {
        clip-path: url(#clippath);
      }

      .cls-16 {
        clip-path: url(#clippath-2);
      }

      .cls-17 {
        clip-path: url(#clippath-13);
      }

      .cls-12 {
        stroke: url(#Adsız_degrade_16-3);
      }

      .cls-12, .cls-13 {
        stroke-miterlimit: 10;
      }

      .cls-18 {
        fill: url(#Adsız_degrade_16);
      }

      .cls-19 {
        fill: #5ce5ff;
      }

      .cls-20 {
        fill: #194093;
      }

      .cls-21 {
        fill: #009fe3;
      }

      .cls-22 {
        fill: #009ed4;
      }

      .cls-23 {
        clip-path: url(#clippath-7);
      }

      .cls-24 {
        clip-path: url(#clippath-1);
      }

      .cls-25 {
        clip-path: url(#clippath-4);
      }

      .cls-26 {
        fill: url(#Adsız_degrade_16-5);
      }

      .cls-27 {
        clip-path: url(#clippath-8);
      }

      .cls-13 {
        stroke: url(#Adsız_degrade_16-2);
      }

      .cls-28 {
        clip-path: url(#clippath-14);
      }

      .cls-29 {
        clip-path: url(#clippath-17);
      }

      .cls-7 {
        clip-path: url(#clippath-6);
      }

      .cls-30 {
        clip-path: url(#clippath-5);
      }

      .cls-31 {
        fill: #f18700;
      }

      .cls-32 {
        clip-path: url(#clippath-10);
      }

      .cls-8 {
        clip-path: url(#clippath-15);
      }
    </style>
    <linearGradient id="Adsız_degrade_16" data-name="Adsız degrade 16" x1="252.42" y1="408.19" x2="280.62" y2="408.19" gradientUnits="userSpaceOnUse">
      <stop offset="0" stop-color="#007594"/>
      <stop offset="1" stop-color="#55cdff" stop-opacity=".8"/>
    </linearGradient>
    <linearGradient id="Adsız_degrade_16-2" data-name="Adsız degrade 16" x1="267.73" y1="408.32" x2="280.4" y2="408.32" xlink:href="#Adsız_degrade_16"/>
    <linearGradient id="Adsız_degrade_16-3" data-name="Adsız degrade 16" x1="254.84" y1="410.26" x2="277.4" y2="410.26" gradientTransform="translate(-1.3 24.01) rotate(.24) scale(1 .92) skewX(.46)" xlink:href="#Adsız_degrade_16"/>
    <clipPath id="clippath">
      <polygon class="cls-5" points="361.33 132.15 402.09 132.15 402.09 91.33 361.33 91.33 361.33 132.15 361.33 132.15"/>
    </clipPath>
    <clipPath id="clippath-1">
      <polygon class="cls-4" points="361.33 91.33 402.09 91.33 402.09 132.15 361.33 132.15 361.33 91.33 361.33 91.33"/>
    </clipPath>
    <clipPath id="clippath-2">
      <polygon class="cls-6" points="361.33 132.15 402.09 132.15 402.09 91.33 361.33 91.33 361.33 132.15 361.33 132.15"/>
    </clipPath>
    <clipPath id="clippath-3">
      <polygon class="cls-5" points="453.15 236.1 493.98 236.1 493.98 195.28 453.15 195.28 453.15 236.1 453.15 236.1"/>
    </clipPath>
    <clipPath id="clippath-4">
      <polygon class="cls-1" points="453.15 195.28 493.98 195.28 493.98 236.1 453.15 236.1 453.15 195.28 453.15 195.28"/>
    </clipPath>
    <clipPath id="clippath-5">
      <polygon class="cls-6" points="453.15 236.1 493.98 236.1 493.98 195.28 453.15 195.28 453.15 236.1 453.15 236.1"/>
    </clipPath>
    <clipPath id="clippath-6">
      <polygon class="cls-5" points="465.44 389.26 506.2 389.26 506.2 348.44 465.44 348.44 465.44 389.26 465.44 389.26"/>
    </clipPath>
    <clipPath id="clippath-7">
      <polygon class="cls-7" points="465.44 348.44 506.2 348.44 506.2 389.26 465.44 389.26 465.44 348.44 465.44 348.44"/>
    </clipPath>
    <clipPath id="clippath-8">
      <polygon class="cls-6" points="465.44 389.26 506.2 389.26 506.2 348.44 465.44 348.44 465.44 389.26 465.44 389.26"/>
    </clipPath>
    <clipPath id="clippath-9">
      <polygon class="cls-5" points="28.48 246 69.3 246 69.3 205.18 28.48 205.18 28.48 246 28.48 246"/>
    </clipPath>
    <clipPath id="clippath-10">
      <polygon class="cls-3" points="28.48 205.18 69.3 205.18 69.3 246 28.48 246 28.48 205.18 28.48 205.18"/>
    </clipPath>
    <clipPath id="clippath-11">
      <polygon class="cls-6" points="28.48 246 69.3 246 69.3 205.18 28.48 205.18 28.48 246 28.48 246"/>
    </clipPath>
    <clipPath id="clippath-12">
      <polygon class="cls-5" points="20.68 393.31 61.5 393.31 61.5 352.49 20.68 352.49 20.68 393.31 20.68 393.31"/>
    </clipPath>
    <clipPath id="clippath-13">
      <polygon class="cls-2" points="20.68 352.49 61.5 352.49 61.5 393.31 20.68 393.31 20.68 352.49 20.68 352.49"/>
    </clipPath>
    <clipPath id="clippath-14">
      <polygon class="cls-6" points="20.68 393.31 61.5 393.31 61.5 352.49 20.68 352.49 20.68 393.31 20.68 393.31"/>
    </clipPath>
    <clipPath id="clippath-15">
      <polygon class="cls-5" points="113.49 136.89 154.32 136.89 154.32 96.13 113.49 96.13 113.49 136.89 113.49 136.89"/>
    </clipPath>
    <clipPath id="clippath-16">
      <polygon class="cls-8" points="113.49 96.13 154.32 96.13 154.32 136.89 113.49 136.89 113.49 96.13 113.49 96.13"/>
    </clipPath>
    <clipPath id="clippath-17">
      <polygon class="cls-6" points="113.49 136.89 154.32 136.89 154.32 96.13 113.49 96.13 113.49 136.89 113.49 136.89"/>
    </clipPath>
    <linearGradient id="Adsız_degrade_16-4" data-name="Adsız degrade 16" x1="299.78" y1="73.96" x2="372.24" y2="73.96" xlink:href="#Adsız_degrade_16"/>
    <linearGradient id="Adsız_degrade_16-5" data-name="Adsız degrade 16" x1="276.69" y1="58.32" x2="322.87" y2="58.32" xlink:href="#Adsız_degrade_16"/>
    <linearGradient id="Adsız_degrade_16-6" data-name="Adsız degrade 16" x1="179.04" y1="91.33" x2="225.21" y2="91.33" xlink:href="#Adsız_degrade_16"/>
  </defs>
  <line class="cls-31" x1="110.43" y1="361.64" x2="110.43" y2="361.64"/>
  <g>
    <path class="cls-18" d="m280.62,410.86c0,4.97-4.84,6.44-12.99,6.44s-15.21-6.5-15.21-11.47,7.07-8.11,15.12-6.17,13.08,6.22,13.08,11.19Z"/>
    <path class="cls-11" d="m276.16,407h.11s-.07,0-.11,0Z"/>
    <path class="cls-11" d="m271.81,408.37s-2.63,5.1-2.47,6.85c0,0,0,2.76,3.46.96,0,0,1.32-.85,1.83-1.84l.57-2.76s-1.06,1.83-2.08,1.96c0,0-1.07.02-.27-1.89l1.51-3.99-2.55.71Z"/>
    <path class="cls-11" d="m263.08,405.37s-2.76,5.76-2.33,7.45c0,0,.35,2.74,4.57.04,0,0,1.59-1.19,2.13-2.31l.39-2.89s-1.14,2.1-2.44,2.5c0,0-1.37.31-.58-1.8l1.45-4.37-3.19,1.38Z"/>
    <path class="cls-13" d="m275.95,409.39c.15.05.31.11.46.16.22.08.82.04.9.01.05-.02.22-.1.47-.34,1-.96,1.19-3.02,1.44-3.39-.15.04-1.51.76-3.95.58-.31-.02-.81,0-1.33-.03-.71-.04-1.58.11-2.68.31-.66.12-1.18.29-1.56.53-.38.24-.68.55-.88.95-.2.4-.36.93-.49,1.6-.06.36-.1.59-.11.7,0,.17,0,.29.04.37.03.08.11.14.22.17.11.03.3.06.56.07.33.02.6.03.84.05.23.02.35,0,.35-.07,0-.13-.25-.26-.78-.39-.08-.02-.15-.03-.2-.04-.05-.01-.09-.03-.11-.04-.02-.02-.03-.05-.03-.09,0-.12.3-.29.89-.52.59-.23,1.27-.42,2.06-.57.78-.15,1.49-.22,2.12-.18.55.03.99.02,1.43.09l.22.06s.1.01.11.01Z"/>
    <path class="cls-12" d="m270.36,405.53c.29.09.58.19.87.28.41.13,1.56.08,1.71.03.09-.03.42-.16.89-.58,1.89-1.64,2.24-5.16,2.71-5.79-.29.07-2.86,1.29-7.49.96-.58-.04-1.53,0-2.53-.06-1.35-.07-3,.18-5.09.52-1.24.2-2.23.49-2.95.9-.72.4-1.28.94-1.65,1.62-.38.68-.68,1.59-.91,2.73-.12.62-.19,1.01-.2,1.2-.02.28,0,.49.07.63.07.14.21.24.42.3.22.06.57.1,1.06.13.62.03,1.15.06,1.58.09.44.03.66-.01.67-.12.01-.22-.48-.44-1.48-.67-.15-.03-.28-.06-.38-.08-.1-.02-.17-.05-.21-.08-.04-.03-.06-.08-.06-.16.01-.21.57-.5,1.68-.88,1.11-.38,2.41-.7,3.89-.96,1.48-.26,2.82-.36,4.02-.29,1.04.06,1.88.05,2.72.16l.42.1s.19.02.22.02Z"/>
  </g>
  <g class="cls-24">
    <g class="cls-16">
      <path class="cls-20" d="m394.68,99.11l-.42-3.78-4.62,4.62.25,2.19-6.71,6.72c-.59-.29-1.26-.5-1.97-.5-2.31,0-4.2,1.89-4.2,4.2s1.89,4.2,4.2,4.2,4.2-1.89,4.2-4.2c0-.71-.17-1.34-.46-1.93l6.71-6.72,2.18.25,4.62-4.62-3.78-.42h0Z"/>
      <path class="cls-20" d="m395.02,105.32l-.55.59-.8-.08-.88-.13c1.17,2.02,1.89,4.33,1.89,6.85,0,7.4-6.04,13.45-13.43,13.45s-13.43-6.05-13.43-13.45,6.04-13.45,13.43-13.45c2.48,0,4.82.67,6.84,1.89l-.08-.84-.13-.84.59-.59.29-.29c-2.27-1.18-4.78-1.85-7.51-1.85-8.81,0-15.94,7.14-15.94,15.97s7.13,15.97,15.94,15.97,15.94-7.14,15.94-15.97c0-2.73-.67-5.25-1.89-7.48l-.29.25h0Z"/>
      <path class="cls-20" d="m388.26,109.69c.38.88.55,1.85.55,2.86,0,4.16-3.4,7.56-7.55,7.56s-7.55-3.4-7.55-7.56,3.4-7.56,7.55-7.56c1.01,0,1.97.21,2.85.55l1.89-1.89c-1.43-.76-3.02-1.18-4.74-1.18-5.54,0-10.07,4.54-10.07,10.09s4.53,10.09,10.07,10.09,10.07-4.54,10.07-10.09c0-1.72-.42-3.32-1.17-4.75l-1.89,1.89h0Z"/>
    </g>
  </g>
  <g class="cls-25">
    <g class="cls-30">
      <path class="cls-20" d="m475.85,198.64c0,.7-.56,1.26-1.26,1.26s-1.26-.56-1.26-1.26.56-1.26,1.26-1.26,1.26.56,1.26,1.26h0Z"/>
      <path class="cls-20" d="m477.95,202.42c0,.7-.56,1.26-1.26,1.26s-1.26-.56-1.26-1.26.56-1.26,1.26-1.26,1.26.56,1.26,1.26h0Z"/>
      <path class="cls-20" d="m473.32,201.58c0,.7-.56,1.26-1.26,1.26s-1.26-.56-1.26-1.26.56-1.26,1.26-1.26,1.26.56,1.26,1.26h0Z"/>
      <path class="cls-20" d="m474.58,206.2c0,.93-.75,1.68-1.68,1.68s-1.68-.75-1.68-1.68c0-.93.75-1.68,1.68-1.68s1.68.75,1.68,1.68h0Z"/>
      <path class="cls-20" d="m481.94,230.83l-4.83-10.93v-7.4c0-1.51,1.22-2.14,1.26-2.19.42-.21.59-.71.38-1.13-.17-.29-.46-.46-.8-.46h-8.4c-.34,0-.63.17-.8.46-.21.42-.04.92.38,1.13,0,0,1.26.67,1.26,2.19v7.4l-4.83,10.93c-.34.8-.25,1.68.21,2.4.46.71,1.26,1.13,2.1,1.13h11.77c.84,0,1.64-.42,2.1-1.13.46-.71.55-1.6.21-2.4h0Zm-6.51-18.32v1.68h-3.36v-1.68c0-.88-.25-1.55-.55-2.1h4.5c-.34.55-.59,1.22-.59,2.1h0Z"/>
    </g>
  </g>
  <g class="cls-23">
    <g class="cls-27">
      <path class="cls-20" d="m488.39,369.03c0,1.39-1.13,2.52-2.52,2.52s-2.52-1.13-2.52-2.52,1.13-2.52,2.52-2.52,2.52,1.13,2.52,2.52h0Z"/>
      <path class="cls-20" d="m500.64,360.63c-.71-1.22-2.31-1.81-4.49-1.81-1.38,0-2.98.25-4.74.71-1.22-4.41-3.23-7.31-5.54-7.31s-4.32,2.86-5.5,7.23c-1.68-.42-3.19-.67-4.53-.67-2.18,0-3.78.59-4.49,1.81-1.17,2.02.38,5.25,3.61,8.53-3.1,3.19-4.53,6.3-3.4,8.28.71,1.22,2.31,1.81,4.49,1.81,1.26,0,2.73-.21,4.32-.59,1.22,4.37,3.23,7.23,5.5,7.23s4.32-2.86,5.5-7.23c1.68.42,3.19.67,4.53.67,2.18,0,3.78-.59,4.49-1.81,1.13-1.98-.29-5.08-3.4-8.28,3.31-3.32,4.82-6.56,3.65-8.57h0Zm-4.49-.13c1.55,0,2.69.38,3.02.97.63,1.09-.5,3.66-3.36,6.51-1.01-.92-2.14-1.85-3.4-2.73-.13-1.43-.34-2.82-.63-4.12,1.59-.42,3.1-.63,4.36-.63h0Zm-7.51,12.9c-.88.5-1.76.97-2.64,1.39-.88-.42-1.76-.88-2.64-1.39-.84-.5-1.68-1.01-2.43-1.51-.08-.92-.08-1.85-.08-2.86,0-.92.04-1.81.08-2.69.84-.59,1.72-1.13,2.69-1.68.8-.46,1.59-.88,2.39-1.26.8.38,1.59.8,2.39,1.26.84.5,1.68,1.01,2.43,1.51.08.92.08,1.85.08,2.86s-.04,2.06-.13,3.03c-.67.46-1.38.88-2.14,1.34h0Zm1.93.8c-.13.8-.25,1.6-.38,2.31-.71-.25-1.47-.5-2.22-.84.5-.25,1.01-.55,1.51-.84.38-.21.76-.42,1.09-.63h0Zm-6.55,1.47c-.84.34-1.64.63-2.43.88-.17-.8-.29-1.64-.42-2.52.46.29.88.55,1.38.84.46.25.96.55,1.47.8h0Zm-4.82-5.04c-.67-.5-1.26-1.01-1.8-1.51.55-.5,1.17-1.01,1.8-1.51,0,.46-.04.92-.04,1.43,0,.55,0,1.09.04,1.6h0Zm1.93-6.43c.13-.92.25-1.81.42-2.65.8.25,1.64.59,2.48.92-.42.21-.88.46-1.3.71-.5.34-1.05.67-1.59,1.01h0Zm6.8-1.72c.76-.34,1.51-.59,2.27-.84.17.76.29,1.55.42,2.4-.46-.29-.88-.55-1.38-.84-.42-.21-.84-.46-1.3-.71h0Zm4.62,4.96c.76.59,1.43,1.13,2.06,1.72-.63.55-1.3,1.13-2.06,1.68.04-.59.04-1.18.04-1.76s0-1.13-.04-1.64h0Zm-6.67-13.53c1.26,0,2.89,2.23,3.94,6.09-1.22.42-2.52.92-3.82,1.51-1.38-.63-2.73-1.18-4.03-1.6,1.05-3.82,2.64-6.01,3.9-6.01h0Zm-13.09,7.56c.38-.63,1.47-.97,3.02-.97,1.22,0,2.6.21,4.11.59-.29,1.34-.5,2.82-.63,4.33-1.17.84-2.22,1.68-3.15,2.56-2.81-2.86-3.99-5.42-3.36-6.51h0Zm3.27,16.09c-1.55,0-2.69-.38-3.02-.97-.63-1.09.46-3.53,3.15-6.3.96.84,2.01,1.68,3.15,2.52.13,1.47.34,2.9.63,4.2-1.38.38-2.73.55-3.9.55h0Zm9.82,6.6c-1.26,0-2.85-2.19-3.9-5.97,1.3-.42,2.64-.92,4.03-1.55,1.3.59,2.56,1.09,3.78,1.47-1.05,3.87-2.64,6.05-3.9,6.05h0Zm13.09-7.56c-.38.63-1.47.97-3.02.97-1.22,0-2.64-.21-4.11-.59.25-1.26.46-2.56.59-3.99,1.26-.88,2.39-1.76,3.4-2.69,2.69,2.77,3.78,5.21,3.15,6.3h0Z"/>
    </g>
  </g>
  <g class="cls-32">
    <g class="cls-9">
      <path class="cls-20" d="m49.07,209.8c-8.82,0-15.97,7.14-15.97,15.97s7.14,15.97,15.97,15.97,15.97-7.14,15.97-15.97-7.14-15.97-15.97-15.97h0Zm-14.29,15.97c0-3.74,1.43-7.1,3.78-9.67.38.21.76.55.84.84v2.65c0,.17.04.38.17.5l2.77,3.57.21-.21c.13-.13.17-.34.08-.5l-.5-.84c-.21-.34.13-.76.5-.63.13.04.21.13.25.21l1.39,2.73c.17.29.42.55.71.63l1.85.63c.13.04.21.13.25.21l.13.21c.13.29.42.46.76.46h.5c.13,0,.25.08.34.17l.55.8c.13.17.29.29.5.34l.88.21c.25.04.38.34.29.55,0,0-.67.67-.67,1.64,0,2.77,2.52,3.57,2.52,4.2,0,1.72-.25,4.12-.38,5.04-1.09.25-2.23.42-3.4.42-7.9.13-14.33-6.3-14.33-14.16h0Zm19.67,13.24c.92-.8,2.48-2.14,3.03-2.73.71-.8.84-2.1.84-2.1,0,0,2.94-.8,2.94-2.94,0-1.47-2.94-2.1-2.94-2.1-.5-1.64-2.98-2.52-5.04-2.52-.46,0-2.1.84-2.1.84l-.84-.42v-1.26c0-.25-.17-.42-.42-.42h-.84v-1.26c0-.25-.17-.42-.42-.42h-.42l-.46.29c-.42.29-1.01.13-1.22-.34,0,0-.42-.59-.42-.84,0-1.81,2.1-1.68,2.1-1.68h.92c.21,0,.38.13.42.34l.25,1.05c.04.17.21.34.42.34h.17c.21,0,.38-.13.42-.34l.29-1.55c.04-.13.08-.25.17-.38l1.18-1.47c.25-.29.59-.46.97-.46h1.09c.25,0,.42-.17.42-.42v-.42l-.13-.13c-.25-.25-.08-.71.29-.71h.25c.25,0,.42.17.42.42s.17.42.42.42h.42l.25-1.09c.08-.38-.08-.71-.38-.92l-3.57-2.14s-.13-.04-.21-.04h-.71c-.46,0-.84.38-.84.84v.42c0,.25-.17.42-.42.42h-.42l-.42-.42h-1.26c-.25,0-.42-.17-.42-.42v-1.05c0-.13.04-.25.17-.34l2.69-1.13.42.71c.08.08.17.13.29.13h1.05c.25,0,.42-.17.42-.42v-.21c5.84,1.81,10.08,7.23,10.08,13.66,0,5.97-3.7,11.09-8.91,13.24h0Z"/>
      <path class="cls-20" d="m54.24,224.01l-2.02-.67c-.17-.04-.29-.04-.46,0l-1.43.34c-.13.08-.17.25,0,.42h1.93c.13,0,.21,0,.29.04l1.47.59c.25.08.5-.08.5-.34,0-.17-.13-.34-.29-.38h0Z"/>
    </g>
  </g>
  <g class="cls-17">
    <g class="cls-28">
      <path class="cls-20" d="m42.11,366.78c0,.46-.38.84-.84.84s-.84-.38-.84-.84c0-.46.38-.84.84-.84s.84.38.84.84h0Z"/>
      <path class="cls-20" d="m42.11,383.59c0,.46-.38.84-.84.84s-.84-.38-.84-.84c0-.46.38-.84.84-.84s.84.38.84.84h0Z"/>
      <path class="cls-20" d="m50.51,374.76c0,.46-.38.84-.84.84s-.84-.38-.84-.84c0-.46.38-.84.84-.84s.84.38.84.84h0Z"/>
      <path class="cls-20" d="m33.7,374.76c0,.46-.38.84-.84.84s-.84-.38-.84-.84c0-.46.38-.84.84-.84s.84.38.84.84h0Z"/>
      <path class="cls-20" d="m42.11,368.88h-1.68v5.88c0,.21.08.42.25.59l4.16,4.16,1.18-1.18-3.91-3.91v-5.55h0Z"/>
      <path class="cls-20" d="m41.27,386.95c-6.51,0-11.77-5.25-11.77-11.77s5.25-11.77,11.77-11.77,11.77,5.25,11.77,11.77-5.25,11.77-11.77,11.77h0Zm9.96-22.02l1.26-1.26c.46-.5.46-1.26-.04-1.76-.46-.46-1.26-.5-1.76-.04l-1.43,1.47c-2.02-1.34-4.33-2.19-6.72-2.35v-1.76h3.78v-2.52h-10.08v2.52h3.78v1.72c-6.68.59-12.06,5.76-12.9,12.44-.84,6.68,3.07,13.03,9.41,15.25,6.35,2.23,13.36-.21,16.93-5.93,3.57-5.72,2.56-13.11-2.23-17.78h0Z"/>
    </g>
  </g>
  <g class="cls-10">
    <g class="cls-29">
      <path class="cls-20" d="m150.81,104.52h-26.89c-.92,0-1.68.76-1.68,1.68v6.08c.46-.13,1.01-.21,1.51-.21.34,0,.67.04,1.01.08v-5.12h25.21v15.94h-14.25l-2.4,2.52h17.48c.92,0,1.68-.76,1.68-1.68v-17.62c0-.92-.76-1.68-1.68-1.68"/>
      <path class="cls-20" d="m123.79,120.89c1.97,0,3.57-1.59,3.57-3.57s-1.6-3.57-3.57-3.57-3.57,1.59-3.57,3.57c-.04,1.97,1.6,3.57,3.57,3.57"/>
      <path class="cls-20" d="m137.53,116.73c-.55-.84-1.64-1.05-2.48-.55-.17.08-.25.25-.34.34l-6.14,6.38c-.59-.29-1.22-.55-1.85-.76-.97-.17-1.97-.38-2.94-.38s-1.97.17-2.94.46c-1.43.38-2.69,1.09-3.74,1.97-.25.25-.46.63-.55.97l-.88,3.69h12.56v-.04l3.57-4.15,5.5-5.79c.5-.5.67-1.47.21-2.14"/>
    </g>
  </g>
  <path class="cls-15" d="m372.24,78.68c0,3.47-4.48,6.28-10.02,6.28-.47,0-.94-.02-1.39-.06-1.64.77-3.75,1.23-6.05,1.23-3,0-5.67-.78-7.41-2.01.36-.24.7-.5,1.01-.78-.8-.09-1.57-.24-2.3-.44.34.44.77.85,1.3,1.21-1.85,1.25-4.34,2.01-7.08,2.01s-5.24-.76-7.09-2.02c-2.46,1.22-6.48,2.02-11,2.02-6.45,0-11.85-1.61-13.23-3.77-.57.08-1.16.12-1.78.12-4.09,0-7.4-1.85-7.4-4.14s3.32-4.14,7.4-4.14c.08,0,.15,0,.23,0,2.2-2.26,7.65-3.85,14.03-3.85,1.72,0,3.37.12,4.9.33,0-.11,0-.22,0-.33,0-4.73,4.47-8.56,9.99-8.56,4.59,0,8.45,2.65,9.62,6.25,1.29-.36,2.7-.56,4.17-.56,4.75,0,8.8,2.07,10.47,5,.53-.06,1.07-.09,1.63-.09,5.53,0,10.02,2.81,10.02,6.28Z"/>
  <path class="cls-26" d="m322.87,61.33c0,2.21-2.86,4-6.38,4-.3,0-.6-.01-.89-.04-1.05.49-2.39.78-3.86.78-1.91,0-3.62-.5-4.72-1.28.23-.15.45-.32.64-.5-.51-.06-1-.15-1.47-.28.21.28.49.54.83.77-1.18.79-2.77,1.28-4.51,1.28s-3.34-.49-4.52-1.28c-1.57.78-4.13,1.28-7.01,1.28-4.11,0-7.55-1.03-8.43-2.4-.36.05-.74.08-1.13.08-2.6,0-4.72-1.18-4.72-2.64s2.11-2.64,4.72-2.64c.05,0,.1,0,.14,0,1.4-1.44,4.88-2.46,8.94-2.46,1.09,0,2.14.07,3.12.21,0-.07,0-.14,0-.21,0-3.01,2.85-5.45,6.37-5.45,2.92,0,5.39,1.69,6.13,3.98.82-.23,1.72-.36,2.66-.36,3.02,0,5.61,1.32,6.67,3.19.34-.04.68-.05,1.04-.05,3.52,0,6.38,1.79,6.38,4Z"/>
  <path class="cls-14" d="m225.21,94.34c0,2.21-2.86,4-6.38,4-.3,0-.6-.01-.89-.04-1.05.49-2.39.78-3.86.78-1.91,0-3.62-.5-4.72-1.28.23-.15.45-.32.64-.5-.51-.06-1-.15-1.47-.28.21.28.49.54.83.77-1.18.79-2.77,1.28-4.51,1.28s-3.34-.49-4.52-1.28c-1.57.78-4.13,1.28-7.01,1.28-4.11,0-7.55-1.03-8.43-2.4-.36.05-.74.08-1.13.08-2.6,0-4.72-1.18-4.72-2.64s2.11-2.64,4.72-2.64c.05,0,.1,0,.14,0,1.4-1.44,4.88-2.46,8.94-2.46,1.09,0,2.14.07,3.12.21,0-.07,0-.14,0-.21,0-3.01,2.85-5.45,6.37-5.45,2.92,0,5.39,1.69,6.13,3.98.82-.23,1.72-.36,2.66-.36,3.02,0,5.61,1.32,6.67,3.19.34-.04.68-.05,1.04-.05,3.52,0,6.38,1.79,6.38,4Z"/>
  <path class="cls-6" d="m531.04,265.52c0,67.68-25.33,129.46-67.02,176.36l-19.27-.09-37.6-.16c-5.09,4.11-10.37,7.99-15.81,11.64l41.38-.02c-44.43,39.6-103,63.66-167.2,63.66s-122.59-23.99-166.99-63.48l41.37-.02c-6.05-4.06-11.89-8.39-17.51-12.99l-37.59-.16-19.28-.08C24.72,393.5,0,332.39,0,265.52,0,118.88,118.88,0,265.52,0s265.52,118.88,265.52,265.52Z"/>
  <path class="cls-20" d="m317.74,132.88l-4.45,11.43c70.21,20.61,121.46,85.51,121.46,162.39,0,86.92-65.51,158.52-149.86,168.14v.77s.15,11.5.15,11.5c91.03-9.73,161.93-86.79,161.93-180.41,0-82.06-54.47-151.39-129.23-173.82Zm-221.45,173.82c0-77.26,51.76-142.42,122.5-162.69l-4.46-11.44c-75.29,22.1-130.26,91.7-130.26,174.13,0,93.27,70.38,170.11,160.93,180.3l.36-11.49.03-.77c-83.98-9.95-149.1-81.38-149.1-168.04Z"/>
  <path class="cls-20" d="m192.56,229.85l.04.02s.08-.07.13-.12l-.17.1Zm-5.98,1.94c-11.58,12.18-20.35,27.05-25.29,43.57l2.27,2.52c4.75-16.85,13.57-31.99,25.32-44.3l-2.3-1.79Zm37.56-25.77c-1.62.66-3.22,1.37-4.8,2.11-6.77,3.18-13.16,7.03-19.09,11.48l3.98.7c5.19-3.7,10.73-6.93,16.57-9.65,1.58-.75,3.18-1.45,4.81-2.1l-1.47-2.54Zm85.87,1.33c-1.6-.72-3.21-1.39-4.85-2.03l-1.47,2.55c1.64.62,3.26,1.3,4.86,2.02,6.9,3.06,13.41,6.84,19.43,11.25l3.08-1.32c-6.49-4.91-13.54-9.11-21.05-12.47Zm-117.45,22.5l.04.02s.08-.07.13-.12l-.17.1Zm0,0l.04.02s.08-.07.13-.12l-.17.1Zm0,0l.04.02s.08-.07.13-.12l-.17.1Zm151.1,1.12l-2.3,1.79c18.62,19.09,30.09,45.18,30.09,73.94,0,2.07-.06,4.12-.18,6.16l2.98-1.66c.07-1.49.1-2.99.1-4.5,0-29.43-11.69-56.14-30.69-75.73Zm-151.1-1.12l.04.02s.08-.07.13-.12l-.17.1Zm0,0l.04.02s.08-.07.13-.12l-.17.1Zm0,0l.04.02s.08-.07.13-.12l-.17.1Zm0,0l.04.02s.08-.07.13-.12l-.17.1Zm0,0l.04.02s.08-.07.13-.12l-.17.1Z"/>
  <rect class="cls-20" x="191.4" y="160.67" width="11.24" height="37.69" rx="3" ry="3" transform="translate(-62.99 120.9) rotate(-29.63)"/>
  <rect class="cls-20" x="138.62" y="216.79" width="11.24" height="37.69" rx="3" ry="3" transform="translate(-131.99 240.97) rotate(-59.63)"/>
  <path class="cls-20" d="m122.18,295.16l-12.6,11.12c-1.42-.25-2.5-1.5-2.49-2.98l.03-5.24c0-1.65,1.37-2.99,3.02-2.98l12.04.08Z"/>
  <rect class="cls-20" x="400.47" y="288.75" width="11.24" height="37.69" rx="3" ry="3" transform="translate(95.9 711.71) rotate(-89.63)"/>
  <rect class="cls-20" x="382.08" y="218.35" width="11.24" height="37.69" rx="3" ry="3" transform="translate(373.23 691.47) rotate(-119.63)"/>
  <rect class="cls-20" x="331.96" y="161.57" width="11.24" height="37.69" rx="3" ry="3" transform="translate(537.65 506.74) rotate(-149.63)"/>
  <rect class="cls-22" x="168.68" y="187.9" width="1.72" height="26.43" rx=".65" ry=".65" transform="translate(-92.1 174.01) rotate(-43.95)"/>
  <rect class="cls-22" x="131.38" y="249.87" width="1.72" height="26.43" rx=".65" ry=".65" transform="translate(-157.14 317.45) rotate(-73.95)"/>
  <rect class="cls-22" x="400.26" y="259.79" width="1.72" height="26.43" rx=".65" ry=".65" transform="translate(232.9 728.12) rotate(-103.95)"/>
  <rect class="cls-22" x="366.25" y="191.51" width="1.72" height="26.43" rx=".65" ry=".65" transform="translate(474.53 611.09) rotate(-133.95)"/>
  <path class="cls-20" d="m445.5,442.59l-37.6-.16c-5.09,4.11-10.37,7.99-15.81,11.64l41.38-.02c-44.43,39.6-103,63.66-167.2,63.66s-122.59-23.99-166.99-63.48l41.37-.02c-6.05-4.06-11.89-8.39-17.51-12.99l-37.59-.16-19.28-.08c3.99,4.56,8.13,8.98,12.41,13.26,48.04,47.96,114.35,77.61,187.59,77.61s139.74-29.74,187.79-77.81c3.68-3.68,7.25-7.47,10.71-11.36l-19.27-.09Z"/>
  <path class="cls-22" d="m372.36,509.76c-32.52,14.21-68.44,22.09-106.19,22.09s-74.62-8.09-107.48-22.65l4.8-13.35c31.35,14.05,66.1,21.86,102.68,21.86s70.38-7.6,101.39-21.28l4.8,13.33Z"/>
  <line class="cls-6" x1="285.05" y1="488.15" x2="285.04" y2="487.11"/>
  <path class="cls-6" d="m189.13,328h-1.71c-2.04,0-3.7,1.66-3.7,3.7v18.15c0,2.03,1.66,3.7,3.7,3.7h1.71c2.04,0,3.7-1.67,3.7-3.7v-18.15c0-2.04-1.66-3.7-3.7-3.7Z"/>
  <path class="cls-6" d="m171.65,328h-1.72c-2.03,0-3.69,1.66-3.69,3.7v18.15c0,2.03,1.66,3.7,3.69,3.7h1.72c2.03,0,3.7-1.67,3.7-3.7v-18.15c0-2.04-1.67-3.7-3.7-3.7Z"/>
  <path class="cls-6" d="m374.9,334.11c1.81,0,3.42-.87,4.43-2.22.7-.92,1.11-2.07,1.11-3.33,0-3.06-2.48-5.54-5.54-5.54s-5.54,2.48-5.54,5.54c0,1.26.41,2.41,1.11,3.33,1.01,1.35,2.62,2.22,4.43,2.22Z"/>
  <path class="cls-6" d="m136.69,328h-1.72c-2.03,0-3.7,1.66-3.7,3.7v18.15c0,2.03,1.67,3.7,3.7,3.7h1.72c2.03,0,3.7-1.67,3.7-3.7v-18.15c0-2.04-1.67-3.7-3.7-3.7Z"/>
  <path class="cls-6" d="m151.98,285.39c-3.38-.3-6.37,2.19-6.67,5.57-.31,3.37,2.18,6.36,5.56,6.67,3.38.3,6.36-2.19,6.67-5.57.31-3.37-2.19-6.36-5.56-6.67Z"/>
  <rect class="cls-6" x="148.75" y="328" width="9.12" height="25.55" rx="3.7" ry="3.7"/>
  <path class="cls-6" d="m119.21,328h-1.72c-2.03,0-3.7,1.66-3.7,3.7v18.15c0,2.03,1.67,3.7,3.7,3.7h1.72c2.03,0,3.69-1.67,3.69-3.7v-18.15c0-2.04-1.66-3.7-3.69-3.7Z"/>
  <path class="cls-6" d="m328.77,290.17h-.03c-1.2,0-2.17.97-2.17,2.17v15.16c0,1.19.97,2.17,2.17,2.17h.03c1.19,0,2.17-.98,2.17-2.17v-15.16c0-1.2-.98-2.17-2.17-2.17Z"/>
  <path class="cls-6" d="m353.75,309.67h.03c1.2,0,2.17-.98,2.17-2.17v-15.16c0-1.2-.97-2.17-2.17-2.17h-.03c-1.19,0-2.17.97-2.17,2.17v15.16c0,1.19.98,2.17,2.17,2.17Z"/>
  <path class="cls-6" d="m292.68,153.48c0-1.92-.78-3.65-2.03-4.91-1.25-1.25-2.99-2.03-4.9-2.03-3.83,0-6.93,3.11-6.93,6.94v35.93h13.86v-35.93Z"/>
  <path class="cls-6" d="m345.44,290.17h-.03c-1.19,0-2.17.97-2.17,2.17v15.16c0,1.19.98,2.17,2.17,2.17h.03c1.2,0,2.17-.98,2.17-2.17v-15.16c0-1.2-.97-2.17-2.17-2.17Z"/>
  <path class="cls-6" d="m333.71,276.76c3.32,0,6.02-2.7,6.02-6.03s-2.7-6.02-6.02-6.02-6.03,2.7-6.03,6.02,2.7,6.03,6.03,6.03Z"/>
  <path class="cls-6" d="m337.11,290.17h-.03c-1.2,0-2.17.97-2.17,2.17v15.16c0,1.19.97,2.17,2.17,2.17h.03c1.19,0,2.17-.98,2.17-2.17v-15.16c0-1.2-.98-2.17-2.17-2.17Z"/>
  <path class="cls-19" d="m265.33,279.96c-4.38,0-7.93,3.55-7.93,7.93v39.24h16.49v-39.24c0-4.38-3.55-7.93-7.93-7.93h-.63Z"/>
  <path class="cls-21" d="m198.83,322.34h-96.52c.85,12.15,3.08,23.93,6.55,35.21h89.97v-35.21Zm-75.93,27.51c0,2.03-1.66,3.7-3.69,3.7h-1.72c-2.03,0-3.7-1.67-3.7-3.7v-18.15c0-2.04,1.67-3.7,3.7-3.7h1.72c2.03,0,3.69,1.66,3.69,3.7v18.15Zm17.49,0c0,2.03-1.67,3.7-3.7,3.7h-1.72c-2.03,0-3.7-1.67-3.7-3.7v-18.15c0-2.04,1.67-3.7,3.7-3.7h1.72c2.03,0,3.7,1.66,3.7,3.7v18.15Zm17.48,0c0,2.03-1.67,3.7-3.7,3.7h-1.72c-2.03,0-3.7-1.67-3.7-3.7v-18.15c0-2.04,1.67-3.7,3.7-3.7h1.72c2.03,0,3.7,1.66,3.7,3.7v18.15Zm17.48,0c0,2.03-1.67,3.7-3.7,3.7h-1.72c-2.03,0-3.69-1.67-3.69-3.7v-18.15c0-2.04,1.66-3.7,3.69-3.7h1.72c2.03,0,3.7,1.66,3.7,3.7v18.15Zm17.48,0c0,2.03-1.66,3.7-3.7,3.7h-1.71c-2.04,0-3.7-1.67-3.7-3.7v-18.15c0-2.04,1.66-3.7,3.7-3.7h1.71c2.04,0,3.7,1.66,3.7,3.7v18.15Z"/>
  <polygon class="cls-20" points="119.04 303.02 102.12 318.77 199.01 318.77 182.09 303.02 119.04 303.02"/>
  <path class="cls-20" d="m353.78,331.89c-1.01,0-1.84.83-1.84,1.84v5.69h45.91v-5.69c0-1.01-.82-1.84-1.84-1.84h-2.76l-16.65-15.51c-.96-.9-2.44-.9-3.4,0l-16.65,15.51h-2.77Zm21.12-8.87c3.06,0,5.54,2.48,5.54,5.54,0,1.26-.41,2.41-1.11,3.33-1.01,1.35-2.62,2.22-4.43,2.22s-3.42-.87-4.43-2.22c-.7-.92-1.11-2.07-1.11-3.33,0-3.06,2.48-5.54,5.54-5.54Z"/>
  <path class="cls-20" d="m156.32,276.31c-2.64-2.87-7.16-2.87-9.79,0l-22.56,24.56h54.9l-22.55-24.56Zm-5.45,21.32c-3.38-.31-5.87-3.3-5.56-6.67.3-3.38,3.29-5.87,6.67-5.57,3.37.31,5.87,3.3,5.56,6.67-.31,3.38-3.29,5.87-6.67,5.57Z"/>
  <path class="cls-21" d="m144.27,419.17v-37.35c0-3.82,3.09-6.91,6.91-6.91h1.11c3.81,0,6.91,3.09,6.91,6.91v51.91c9.45,8.1,19.84,15.15,30.99,20.95v-72.86c0-3.82,3.1-6.91,6.91-6.91h1.11c.27,0,.53.02.79.05v-13.53h-88.5c7.21,21.61,18.83,41.21,33.77,57.74Z"/>
  <path class="cls-20" d="m307.13,261.16v206.03c6.7-1.78,13.22-3.97,19.54-6.55v-199.48h-19.54Z"/>
  <path class="cls-22" d="m335.31,254.3c-.8-1.09-2.43-1.09-3.23,0l-4.77,6.51v21.18h28.29l-20.29-27.69Zm-1.61,22.46c-3.33,0-6.03-2.7-6.03-6.03s2.7-6.02,6.03-6.02,6.02,2.7,6.02,6.02-2.7,6.03-6.02,6.03Z"/>
  <path class="cls-21" d="m419.92,361.43h-71.24v-2.53h65.01l-13.55-15.75h-50.5l-.96,1.11v-14.35c0-2.51,2.05-4.57,4.57-4.57,1.25,0,2.4.52,3.23,1.34.5.5.89,1.13,1.11,1.82v-42.56h-30.28v4.76c.38-.33.88-.53,1.42-.53h.03c1.19,0,2.17.97,2.17,2.17v15.16c0,1.19-.98,2.17-2.17,2.17h-.03c-.54,0-1.04-.21-1.42-.53v16.24c2.15.28,3.82,2.12,3.82,4.34v46.83c.33-.1.66-.17,1-.21.29-.05.59-.07.9-.07h1.11c3.82,0,6.91,3.09,6.91,6.91v70.75c10.31-5.43,19.97-11.93,28.82-19.35v-52.76c0-3.82,3.1-6.91,6.92-6.91h1.1c3.82,0,6.92,3.09,6.92,6.91v38.57c15.56-16.77,27.65-36.8,35.11-58.96Zm-68.35-69.09c0-1.2.98-2.17,2.17-2.17h.03c1.2,0,2.17.97,2.17,2.17v15.16c0,1.19-.97,2.17-2.17,2.17h-.03c-1.19,0-2.17-.98-2.17-2.17v-15.16Zm-12.3,15.16c0,1.19-.98,2.17-2.17,2.17h-.03c-1.2,0-2.17-.98-2.17-2.17v-15.16c0-1.2.97-2.17,2.17-2.17h.03c1.19,0,2.17.97,2.17,2.17v15.16Zm8.33,0c0,1.19-.97,2.17-2.17,2.17h-.03c-1.19,0-2.17-.98-2.17-2.17v-15.16c0-1.2.98-2.17,2.17-2.17h.03c1.2,0,2.17.97,2.17,2.17v15.16Z"/>
  <path class="cls-22" d="m230.01,469.23c5.42,1.2,10.94,2.13,16.56,2.77v-73.87c0-10.82,8.78-19.6,19.6-19.6,5.41,0,10.31,2.19,13.86,5.74s5.74,8.45,5.74,13.86v73.73c5.18-.64,10.28-1.52,15.3-2.64v-106.62h-71.06v106.63Z"/>
  <path class="cls-20" d="m205.4,461.69c6.33,2.5,12.85,4.62,19.54,6.33v-206.76h-19.54v200.43Z"/>
  <polygon class="cls-20" points="229.21 339.9 234.14 339.9 234.14 355.97 241.32 355.97 241.32 339.9 252.71 339.9 252.71 355.97 259.89 355.97 259.89 339.9 271.29 339.9 271.29 355.97 278.47 355.97 278.47 339.9 289.86 339.9 289.86 355.97 297.04 355.97 297.04 339.9 302.75 339.9 302.75 329.83 229.21 329.83 229.21 339.9"/>
  <path class="cls-22" d="m301.51,325.77v-62.06h-71.06v62.06h3.65v-8.24c0-4.56,3.69-8.25,8.24-8.25,2.28,0,4.34.92,5.83,2.41,1.49,1.5,2.42,3.56,2.42,5.84v8.24h2.1v-39.83c0-7.33,5.95-13.28,13.29-13.28,3.67,0,6.99,1.49,9.4,3.89,2.4,2.41,3.89,5.73,3.89,9.39v39.83h2.1v-8.24c0-4.56,3.69-8.25,8.25-8.25,2.28,0,4.34.92,5.83,2.41,1.49,1.5,2.41,3.56,2.41,5.84v8.24h3.65Z"/>
  <rect class="cls-21" x="210.82" y="241.72" width="109.45" height="15.92"/>
  <polygon class="cls-22" points="337.56 222.64 193.52 222.64 202.77 235.84 328.31 235.84 337.56 222.64"/>
  <rect class="cls-22" x="244.79" y="97.19" width="41.57" height="12.9"/>
  <rect class="cls-22" x="235.71" y="97.19" width="4.49" height="12.9"/>
  <rect class="cls-22" x="290.41" y="97.19" width="4.49" height="12.9"/>
  <rect class="cls-22" x="249.94" y="80.58" width="31.04" height="11.9"/>
  <rect class="cls-22" x="240.82" y="80.58" width="4.14" height="11.9"/>
  <rect class="cls-22" x="285.96" y="80.58" width="4.14" height="11.9"/>
  <polygon class="cls-20" points="297.06 114.8 234.02 114.8 217.1 130.55 313.98 130.55 297.06 114.8"/>
  <path class="cls-20" d="m287.02,67.44c0-1.1-.9-2-2-2h-2.34l-15.19-18.81c-1.09-1.34-3.14-1.34-4.22,0l-15.19,18.81h-2.34c-1.1,0-2,.9-2,2v7.43h43.28v-7.43Zm-21.45-5.26c-2.91,0-5.28-2.36-5.28-5.28s2.37-5.27,5.28-5.27,5.28,2.36,5.28,5.27-2.36,5.28-5.28,5.28Z"/>
  <path class="cls-21" d="m301.68,216.75v-80.31h-72.29v80.31h27.87v-11.89c0-4.55,3.7-8.24,8.25-8.24,2.27,0,4.33.92,5.83,2.41,1.49,1.49,2.41,3.55,2.41,5.83v11.89h27.93Zm-49.43-27.34h-13.86v-35.93c0-3.83,3.1-6.94,6.93-6.94,1.92,0,3.65.78,4.9,2.03s2.03,2.99,2.03,4.91v35.93Zm26.57-35.93c0-3.83,3.1-6.94,6.93-6.94,1.91,0,3.65.78,4.9,2.03,1.25,1.26,2.03,2.99,2.03,4.91v35.93h-13.86v-35.93Z"/>
</svg>