<svg width="479" height="494" viewBox="0 0 479 494" fill="none" xmlns="http://www.w3.org/2000/svg">
<g clip-path="url(#clip0_3_155)">
<mask id="mask0_3_155" style="mask-type:luminance" maskUnits="userSpaceOnUse" x="334" y="53" width="42" height="42">
<mask id="mask1_3_155" style="mask-type:luminance" maskUnits="userSpaceOnUse" x="334" y="53" width="42" height="42">
<path d="M334.33 94.1501H375.09V53.3301H334.33V94.1501Z" fill="white"/>
</mask>
<g mask="url(#mask1_3_155)">
<path d="M334.33 53.3301H375.09V94.1501H334.33V53.3301Z" fill="white"/>
</g>
</mask>
<g mask="url(#mask0_3_155)">
<mask id="mask2_3_155" style="mask-type:luminance" maskUnits="userSpaceOnUse" x="334" y="53" width="42" height="42">
<path d="M334.33 94.1501H375.09V53.3301H334.33V94.1501Z" fill="white"/>
</mask>
<g mask="url(#mask2_3_155)">
<path d="M367.68 61.1101L367.26 57.3301L362.64 61.9501L362.89 64.1401L356.18 70.8601C355.59 70.5701 354.92 70.3601 354.21 70.3601C351.9 70.3601 350.01 72.2501 350.01 74.5601C350.01 76.8701 351.9 78.7601 354.21 78.7601C356.52 78.7601 358.41 76.8701 358.41 74.5601C358.41 73.8501 358.24 73.2201 357.95 72.6301L364.66 65.9101L366.84 66.1601L371.46 61.5401L367.68 61.1201V61.1101Z" fill="#0F1729"/>
<path d="M368.02 67.3201L367.47 67.9101L366.67 67.8301L365.79 67.7001C366.96 69.7201 367.68 72.0301 367.68 74.5501C367.68 81.9501 361.64 88.0001 354.25 88.0001C346.86 88.0001 340.82 81.9501 340.82 74.5501C340.82 67.1501 346.86 61.1001 354.25 61.1001C356.73 61.1001 359.07 61.7701 361.09 62.9901L361.01 62.1501L360.88 61.3101L361.47 60.7201L361.76 60.4301C359.49 59.2501 356.98 58.5801 354.25 58.5801C345.44 58.5801 338.31 65.7201 338.31 74.5501C338.31 83.3801 345.44 90.5201 354.25 90.5201C363.06 90.5201 370.19 83.3801 370.19 74.5501C370.19 71.8201 369.52 69.3001 368.3 67.0701L368.01 67.3201H368.02Z" fill="#0F1729"/>
<path d="M361.26 71.6901C361.64 72.5701 361.81 73.5401 361.81 74.5501C361.81 78.7101 358.41 82.1101 354.26 82.1101C350.11 82.1101 346.71 78.7101 346.71 74.5501C346.71 70.3901 350.11 66.9901 354.26 66.9901C355.27 66.9901 356.23 67.2001 357.11 67.5401L359 65.6501C357.57 64.8901 355.98 64.4701 354.26 64.4701C348.72 64.4701 344.19 69.0101 344.19 74.5601C344.19 80.1101 348.72 84.6501 354.26 84.6501C359.8 84.6501 364.33 80.1101 364.33 74.5601C364.33 72.8401 363.91 71.2401 363.16 69.8101L361.27 71.7001L361.26 71.6901Z" fill="#0F1729"/>
</g>
</g>
<mask id="mask3_3_155" style="mask-type:luminance" maskUnits="userSpaceOnUse" x="426" y="157" width="41" height="42">
<mask id="mask4_3_155" style="mask-type:luminance" maskUnits="userSpaceOnUse" x="426" y="157" width="41" height="42">
<path d="M426.15 198.1H466.98V157.28H426.15V198.1Z" fill="white"/>
</mask>
<g mask="url(#mask4_3_155)">
<path d="M426.15 157.28H466.98V198.1H426.15V157.28Z" fill="white"/>
</g>
</mask>
<g mask="url(#mask3_3_155)">
<mask id="mask5_3_155" style="mask-type:luminance" maskUnits="userSpaceOnUse" x="426" y="157" width="41" height="42">
<path d="M426.15 198.1H466.98V157.28H426.15V198.1Z" fill="white"/>
</mask>
<g mask="url(#mask5_3_155)">
<path d="M448.85 160.64C448.85 161.34 448.29 161.9 447.59 161.9C446.89 161.9 446.33 161.34 446.33 160.64C446.33 159.94 446.89 159.38 447.59 159.38C448.29 159.38 448.85 159.94 448.85 160.64Z" fill="#0F1729"/>
<path d="M450.95 164.42C450.95 165.12 450.39 165.68 449.69 165.68C448.99 165.68 448.43 165.12 448.43 164.42C448.43 163.72 448.99 163.16 449.69 163.16C450.39 163.16 450.95 163.72 450.95 164.42Z" fill="#0F1729"/>
<path d="M446.32 163.58C446.32 164.28 445.76 164.84 445.06 164.84C444.36 164.84 443.8 164.28 443.8 163.58C443.8 162.88 444.36 162.32 445.06 162.32C445.76 162.32 446.32 162.88 446.32 163.58Z" fill="#0F1729"/>
<path d="M447.58 168.2C447.58 169.13 446.83 169.88 445.9 169.88C444.97 169.88 444.22 169.13 444.22 168.2C444.22 167.27 444.97 166.52 445.9 166.52C446.83 166.52 447.58 167.27 447.58 168.2Z" fill="#0F1729"/>
<path d="M454.94 192.83L450.11 181.9V174.5C450.11 172.99 451.33 172.36 451.37 172.31C451.79 172.1 451.96 171.6 451.75 171.18C451.58 170.89 451.29 170.72 450.95 170.72H442.55C442.21 170.72 441.92 170.89 441.75 171.18C441.54 171.6 441.71 172.1 442.13 172.31C442.13 172.31 443.39 172.98 443.39 174.5V181.9L438.56 192.83C438.22 193.63 438.31 194.51 438.77 195.23C439.23 195.94 440.03 196.36 440.87 196.36H452.64C453.48 196.36 454.28 195.94 454.74 195.23C455.2 194.52 455.29 193.63 454.95 192.83H454.94ZM448.43 174.51V176.19H445.07V174.51C445.07 173.63 444.82 172.96 444.52 172.41H449.02C448.68 172.96 448.43 173.63 448.43 174.51Z" fill="#0F1729"/>
</g>
</g>
<mask id="mask6_3_155" style="mask-type:luminance" maskUnits="userSpaceOnUse" x="438" y="310" width="42" height="42">
<mask id="mask7_3_155" style="mask-type:luminance" maskUnits="userSpaceOnUse" x="438" y="310" width="42" height="42">
<path d="M438.44 351.26H479.2V310.44H438.44V351.26Z" fill="white"/>
</mask>
<g mask="url(#mask7_3_155)">
<path d="M438.44 310.44H479.2V351.26H438.44V310.44Z" fill="white"/>
</g>
</mask>
<g mask="url(#mask6_3_155)">
<mask id="mask8_3_155" style="mask-type:luminance" maskUnits="userSpaceOnUse" x="438" y="310" width="42" height="42">
<path d="M438.44 351.26H479.2V310.44H438.44V351.26Z" fill="white"/>
</mask>
<g mask="url(#mask8_3_155)">
<path d="M461.39 331.03C461.39 332.42 460.26 333.55 458.87 333.55C457.48 333.55 456.35 332.42 456.35 331.03C456.35 329.64 457.48 328.51 458.87 328.51C460.26 328.51 461.39 329.64 461.39 331.03Z" fill="#0F1729"/>
<path d="M473.64 322.63C472.93 321.41 471.33 320.82 469.15 320.82C467.77 320.82 466.17 321.07 464.41 321.53C463.19 317.12 461.18 314.22 458.87 314.22C456.56 314.22 454.55 317.08 453.37 321.45C451.69 321.03 450.18 320.78 448.84 320.78C446.66 320.78 445.06 321.37 444.35 322.59C443.18 324.61 444.73 327.84 447.96 331.12C444.86 334.31 443.43 337.42 444.56 339.4C445.27 340.62 446.87 341.21 449.05 341.21C450.31 341.21 451.78 341 453.37 340.62C454.59 344.99 456.6 347.85 458.87 347.85C461.14 347.85 463.19 344.99 464.37 340.62C466.05 341.04 467.56 341.29 468.9 341.29C471.08 341.29 472.68 340.7 473.39 339.48C474.52 337.5 473.1 334.4 469.99 331.2C473.3 327.88 474.81 324.64 473.64 322.63ZM469.15 322.5C470.7 322.5 471.84 322.88 472.17 323.47C472.8 324.56 471.67 327.13 468.81 329.98C467.8 329.06 466.67 328.13 465.41 327.25C465.28 325.82 465.07 324.43 464.78 323.13C466.37 322.71 467.88 322.5 469.14 322.5H469.15ZM461.64 335.4C460.76 335.9 459.88 336.37 459 336.79C458.12 336.37 457.24 335.91 456.36 335.4C455.52 334.9 454.68 334.39 453.93 333.89C453.85 332.97 453.85 332.04 453.85 331.03C453.85 330.11 453.89 329.22 453.93 328.34C454.77 327.75 455.65 327.21 456.62 326.66C457.42 326.2 458.21 325.78 459.01 325.4C459.81 325.78 460.6 326.2 461.4 326.66C462.24 327.16 463.08 327.67 463.83 328.17C463.91 329.09 463.91 330.02 463.91 331.03C463.91 332.04 463.87 333.09 463.78 334.06C463.11 334.52 462.4 334.94 461.64 335.4ZM463.57 336.2C463.44 337 463.32 337.8 463.19 338.51C462.48 338.26 461.72 338.01 460.97 337.67C461.47 337.42 461.98 337.12 462.48 336.83C462.86 336.62 463.24 336.41 463.57 336.2ZM457.02 337.67C456.18 338.01 455.38 338.3 454.59 338.55C454.42 337.75 454.3 336.91 454.17 336.03C454.63 336.32 455.05 336.58 455.55 336.87C456.01 337.12 456.51 337.42 457.02 337.67ZM452.2 332.63C451.53 332.13 450.94 331.62 450.4 331.12C450.95 330.62 451.57 330.11 452.2 329.61C452.2 330.07 452.16 330.53 452.16 331.04C452.16 331.59 452.16 332.13 452.2 332.64V332.63ZM454.13 326.2C454.26 325.28 454.38 324.39 454.55 323.55C455.35 323.8 456.19 324.14 457.03 324.47C456.61 324.68 456.15 324.93 455.73 325.18C455.23 325.52 454.68 325.85 454.14 326.19L454.13 326.2ZM460.93 324.48C461.69 324.14 462.44 323.89 463.2 323.64C463.37 324.4 463.49 325.19 463.62 326.04C463.16 325.75 462.74 325.49 462.24 325.2C461.82 324.99 461.4 324.74 460.94 324.49L460.93 324.48ZM465.55 329.44C466.31 330.03 466.98 330.57 467.61 331.16C466.98 331.71 466.31 332.29 465.55 332.84C465.59 332.25 465.59 331.66 465.59 331.08C465.59 330.5 465.59 329.95 465.55 329.44ZM458.88 315.91C460.14 315.91 461.77 318.14 462.82 322C461.6 322.42 460.3 322.92 459 323.51C457.62 322.88 456.27 322.33 454.97 321.91C456.02 318.09 457.61 315.9 458.87 315.9L458.88 315.91ZM445.79 323.47C446.17 322.84 447.26 322.5 448.81 322.5C450.03 322.5 451.41 322.71 452.92 323.09C452.63 324.43 452.42 325.91 452.29 327.42C451.12 328.26 450.07 329.1 449.14 329.98C446.33 327.12 445.15 324.56 445.78 323.47H445.79ZM449.06 339.56C447.51 339.56 446.37 339.18 446.04 338.59C445.41 337.5 446.5 335.06 449.19 332.29C450.15 333.13 451.2 333.97 452.34 334.81C452.47 336.28 452.68 337.71 452.97 339.01C451.59 339.39 450.24 339.56 449.07 339.56H449.06ZM458.88 346.16C457.62 346.16 456.03 343.97 454.98 340.19C456.28 339.77 457.62 339.27 459.01 338.64C460.31 339.23 461.57 339.73 462.79 340.11C461.74 343.98 460.15 346.16 458.89 346.16H458.88ZM471.97 338.6C471.59 339.23 470.5 339.57 468.95 339.57C467.73 339.57 466.31 339.36 464.84 338.98C465.09 337.72 465.3 336.42 465.43 334.99C466.69 334.11 467.82 333.23 468.83 332.3C471.52 335.07 472.61 337.51 471.98 338.6H471.97Z" fill="#0F1729"/>
</g>
</g>
<mask id="mask9_3_155" style="mask-type:luminance" maskUnits="userSpaceOnUse" x="1" y="167" width="42" height="41">
<mask id="mask10_3_155" style="mask-type:luminance" maskUnits="userSpaceOnUse" x="1" y="167" width="42" height="41">
<path d="M1.47998 208H42.3V167.18H1.47998V208Z" fill="white"/>
</mask>
<g mask="url(#mask10_3_155)">
<path d="M1.47998 167.18H42.3V208H1.47998V167.18Z" fill="white"/>
</g>
</mask>
<g mask="url(#mask9_3_155)">
<mask id="mask11_3_155" style="mask-type:luminance" maskUnits="userSpaceOnUse" x="1" y="167" width="42" height="41">
<path d="M1.47998 208H42.3V167.18H1.47998V208Z" fill="white"/>
</mask>
<g mask="url(#mask11_3_155)">
<path d="M22.07 171.8C13.25 171.8 6.09998 178.94 6.09998 187.77C6.09998 196.6 13.24 203.74 22.07 203.74C30.9 203.74 38.04 196.6 38.04 187.77C38.04 178.94 30.9 171.8 22.07 171.8ZM7.77998 187.77C7.77998 184.03 9.20998 180.67 11.56 178.1C11.94 178.31 12.32 178.65 12.4 178.94V181.59C12.4 181.76 12.44 181.97 12.57 182.09L15.34 185.66L15.55 185.45C15.68 185.32 15.72 185.11 15.63 184.95L15.13 184.11C14.92 183.77 15.26 183.35 15.63 183.48C15.76 183.52 15.84 183.61 15.88 183.69L17.27 186.42C17.44 186.71 17.69 186.97 17.98 187.05L19.83 187.68C19.96 187.72 20.04 187.81 20.08 187.89L20.21 188.1C20.34 188.39 20.63 188.56 20.97 188.56H21.47C21.6 188.56 21.72 188.64 21.81 188.73L22.36 189.53C22.49 189.7 22.65 189.82 22.86 189.87L23.74 190.08C23.99 190.12 24.12 190.42 24.03 190.63C24.03 190.63 23.36 191.3 23.36 192.27C23.36 195.04 25.88 195.84 25.88 196.47C25.88 198.19 25.63 200.59 25.5 201.51C24.41 201.76 23.27 201.93 22.1 201.93C14.2 202.06 7.76998 195.63 7.76998 187.77H7.77998ZM27.45 201.01C28.37 200.21 29.93 198.87 30.48 198.28C31.19 197.48 31.32 196.18 31.32 196.18C31.32 196.18 34.26 195.38 34.26 193.24C34.26 191.77 31.32 191.14 31.32 191.14C30.82 189.5 28.34 188.62 26.28 188.62C25.82 188.62 24.18 189.46 24.18 189.46L23.34 189.04V187.78C23.34 187.53 23.17 187.36 22.92 187.36H22.08V186.1C22.08 185.85 21.91 185.68 21.66 185.68H21.24L20.78 185.97C20.36 186.26 19.77 186.1 19.56 185.63C19.56 185.63 19.14 185.04 19.14 184.79C19.14 182.98 21.24 183.11 21.24 183.11H22.16C22.37 183.11 22.54 183.24 22.58 183.45L22.83 184.5C22.87 184.67 23.04 184.84 23.25 184.84H23.42C23.63 184.84 23.8 184.71 23.84 184.5L24.13 182.95C24.17 182.82 24.21 182.7 24.3 182.57L25.48 181.1C25.73 180.81 26.07 180.64 26.45 180.64H27.54C27.79 180.64 27.96 180.47 27.96 180.22V179.8L27.83 179.67C27.58 179.42 27.75 178.96 28.12 178.96H28.37C28.62 178.96 28.79 179.13 28.79 179.38C28.79 179.63 28.96 179.8 29.21 179.8H29.63L29.88 178.71C29.96 178.33 29.8 178 29.5 177.79L25.93 175.65C25.93 175.65 25.8 175.61 25.72 175.61H25.01C24.55 175.61 24.17 175.99 24.17 176.45V176.87C24.17 177.12 24 177.29 23.75 177.29H23.33L22.91 176.87H21.65C21.4 176.87 21.23 176.7 21.23 176.45V175.4C21.23 175.27 21.27 175.15 21.4 175.06L24.09 173.93L24.51 174.64C24.59 174.72 24.68 174.77 24.8 174.77H25.85C26.1 174.77 26.27 174.6 26.27 174.35V174.14C32.11 175.95 36.35 181.37 36.35 187.8C36.35 193.77 32.65 198.89 27.44 201.04L27.45 201.01Z" fill="#0F1729"/>
<path d="M27.24 186.01L25.22 185.34C25.05 185.3 24.93 185.3 24.76 185.34L23.33 185.68C23.2 185.76 23.16 185.93 23.33 186.1H25.26C25.39 186.1 25.47 186.1 25.55 186.14L27.02 186.73C27.27 186.81 27.52 186.65 27.52 186.39C27.52 186.22 27.39 186.05 27.23 186.01H27.24Z" fill="#0F1729"/>
</g>
</g>
<mask id="mask12_3_155" style="mask-type:luminance" maskUnits="userSpaceOnUse" x="-7" y="314" width="42" height="42">
<mask id="mask13_3_155" style="mask-type:luminance" maskUnits="userSpaceOnUse" x="-7" y="314" width="42" height="42">
<path d="M-6.31995 355.31H34.5001V314.49H-6.31995V355.31Z" fill="white"/>
</mask>
<g mask="url(#mask13_3_155)">
<path d="M-6.31995 314.49H34.5001V355.31H-6.31995V314.49Z" fill="white"/>
</g>
</mask>
<g mask="url(#mask12_3_155)">
<mask id="mask14_3_155" style="mask-type:luminance" maskUnits="userSpaceOnUse" x="-7" y="314" width="42" height="42">
<path d="M-6.31995 355.31H34.5001V314.49H-6.31995V355.31Z" fill="white"/>
</mask>
<g mask="url(#mask14_3_155)">
<path d="M15.1101 328.78C15.1101 329.24 14.7301 329.62 14.2701 329.62C13.8101 329.62 13.4301 329.24 13.4301 328.78C13.4301 328.32 13.8101 327.94 14.2701 327.94C14.7301 327.94 15.1101 328.32 15.1101 328.78Z" fill="#0F1729"/>
<path d="M15.1101 345.59C15.1101 346.05 14.7301 346.43 14.2701 346.43C13.8101 346.43 13.4301 346.05 13.4301 345.59C13.4301 345.13 13.8101 344.75 14.2701 344.75C14.7301 344.75 15.1101 345.13 15.1101 345.59Z" fill="#0F1729"/>
<path d="M23.51 336.76C23.51 337.22 23.13 337.6 22.67 337.6C22.21 337.6 21.83 337.22 21.83 336.76C21.83 336.3 22.21 335.92 22.67 335.92C23.13 335.92 23.51 336.3 23.51 336.76Z" fill="#0F1729"/>
<path d="M6.70002 336.76C6.70002 337.22 6.32002 337.6 5.86002 337.6C5.40002 337.6 5.02002 337.22 5.02002 336.76C5.02002 336.3 5.40002 335.92 5.86002 335.92C6.32002 335.92 6.70002 336.3 6.70002 336.76Z" fill="#0F1729"/>
<path d="M15.1101 330.88H13.4301V336.76C13.4301 336.97 13.5101 337.18 13.6801 337.35L17.8401 341.51L19.0201 340.33L15.1101 336.42V330.87V330.88Z" fill="#0F1729"/>
<path d="M14.27 348.95C7.76003 348.95 2.50003 343.7 2.50003 337.18C2.50003 330.66 7.75003 325.41 14.27 325.41C20.79 325.41 26.04 330.66 26.04 337.18C26.04 343.7 20.79 348.95 14.27 348.95ZM24.23 326.93L25.49 325.67C25.95 325.17 25.95 324.41 25.45 323.91C24.99 323.45 24.19 323.41 23.69 323.87L22.26 325.34C20.24 324 17.93 323.15 15.54 322.99V321.23H19.32V318.71H9.24003V321.23H13.02V322.95C6.34003 323.54 0.960027 328.71 0.120027 335.39C-0.719973 342.07 3.19002 348.42 9.53002 350.64C15.88 352.87 22.89 350.43 26.46 344.71C30.03 338.99 29.02 331.6 24.23 326.93Z" fill="#0F1729"/>
</g>
</g>
<mask id="mask15_3_155" style="mask-type:luminance" maskUnits="userSpaceOnUse" x="86" y="58" width="42" height="41">
<mask id="mask16_3_155" style="mask-type:luminance" maskUnits="userSpaceOnUse" x="86" y="58" width="42" height="41">
<path d="M86.49 98.89H127.32V58.13H86.49V98.89Z" fill="white"/>
</mask>
<g mask="url(#mask16_3_155)">
<path d="M86.49 58.13H127.32V98.89H86.49V58.13Z" fill="white"/>
</g>
</mask>
<g mask="url(#mask15_3_155)">
<mask id="mask17_3_155" style="mask-type:luminance" maskUnits="userSpaceOnUse" x="86" y="58" width="42" height="41">
<path d="M86.49 98.89H127.32V58.13H86.49V98.89Z" fill="white"/>
</mask>
<g mask="url(#mask17_3_155)">
<path d="M123.81 66.52H96.92C96 66.52 95.24 67.28 95.24 68.2V74.28C95.7 74.15 96.25 74.07 96.75 74.07C97.09 74.07 97.42 74.11 97.76 74.15V69.03H122.97V84.97H108.72L106.32 87.49H123.8C124.72 87.49 125.48 86.73 125.48 85.81V68.19C125.48 67.27 124.72 66.51 123.8 66.51" fill="#0F1729"/>
<path d="M96.79 82.89C98.76 82.89 100.36 81.3 100.36 79.32C100.36 77.34 98.76 75.75 96.79 75.75C94.82 75.75 93.22 77.34 93.22 79.32C93.18 81.29 94.82 82.89 96.79 82.89Z" fill="#0F1729"/>
<path d="M110.53 78.73C109.98 77.89 108.89 77.68 108.05 78.18C107.88 78.26 107.8 78.43 107.71 78.52L101.57 84.9C100.98 84.61 100.35 84.35 99.72 84.14C98.75 83.97 97.75 83.76 96.78 83.76C95.81 83.76 94.81 83.93 93.84 84.22C92.41 84.6 91.15 85.31 90.1 86.19C89.85 86.44 89.64 86.82 89.55 87.16L88.67 90.85H101.23V90.81L104.8 86.66L110.3 80.87C110.8 80.37 110.97 79.4 110.51 78.73" fill="#0F1729"/>
</g>
</g>
<path d="M329.49 31.75C329.49 35.22 325.01 38.03 319.47 38.03C319 38.03 318.53 38.01 318.08 37.97C316.44 38.74 314.33 39.2 312.03 39.2C309.03 39.2 306.36 38.42 304.62 37.19C304.98 36.95 305.32 36.69 305.63 36.41C304.83 36.32 304.06 36.17 303.33 35.97C303.67 36.41 304.1 36.82 304.63 37.18C302.78 38.43 300.29 39.19 297.55 39.19C294.81 39.19 292.31 38.43 290.46 37.17C288 38.39 283.98 39.19 279.46 39.19C273.01 39.19 267.61 37.58 266.23 35.42C265.66 35.5 265.07 35.54 264.45 35.54C260.36 35.54 257.05 33.69 257.05 31.4C257.05 29.11 260.37 27.26 264.45 27.26C264.53 27.26 264.6 27.26 264.68 27.26C266.88 25 272.33 23.41 278.71 23.41C280.43 23.41 282.08 23.53 283.61 23.74C283.61 23.63 283.61 23.52 283.61 23.41C283.61 18.68 288.08 14.85 293.6 14.85C298.19 14.85 302.05 17.5 303.22 21.1C304.51 20.74 305.92 20.54 307.39 20.54C312.14 20.54 316.19 22.61 317.86 25.54C318.39 25.48 318.93 25.45 319.49 25.45C325.02 25.45 329.51 28.26 329.51 31.73L329.49 31.75Z" fill="url(#paint0_linear_3_155)"/>
<path d="M284.12 10.63C284.12 12.84 281.26 14.63 277.74 14.63C277.44 14.63 277.14 14.62 276.85 14.59C275.8 15.08 274.46 15.37 272.99 15.37C271.08 15.37 269.37 14.87 268.27 14.09C268.5 13.94 268.72 13.77 268.91 13.59C268.4 13.53 267.91 13.44 267.44 13.31C267.65 13.59 267.93 13.85 268.27 14.08C267.09 14.87 265.5 15.36 263.76 15.36C262.02 15.36 260.42 14.87 259.24 14.08C257.67 14.86 255.11 15.36 252.23 15.36C248.12 15.36 244.68 14.33 243.8 12.96C243.44 13.01 243.06 13.04 242.67 13.04C240.07 13.04 237.95 11.86 237.95 10.4C237.95 8.93998 240.06 7.75998 242.67 7.75998C242.72 7.75998 242.77 7.75998 242.81 7.75998C244.21 6.31998 247.69 5.29998 251.75 5.29998C252.84 5.29998 253.89 5.36998 254.87 5.50998C254.87 5.43998 254.87 5.36998 254.87 5.29998C254.87 2.28998 257.72 -0.150024 261.24 -0.150024C264.16 -0.150024 266.63 1.53998 267.37 3.82998C268.19 3.59998 269.09 3.46998 270.03 3.46998C273.05 3.46998 275.64 4.78998 276.7 6.65998C277.04 6.61998 277.38 6.60998 277.74 6.60998C281.26 6.60998 284.12 8.39998 284.12 10.61V10.63Z" fill="url(#paint1_linear_3_155)"/>
<path d="M206.9 46.73C206.9 48.94 204.04 50.73 200.52 50.73C200.22 50.73 199.92 50.72 199.63 50.69C198.58 51.18 197.24 51.47 195.77 51.47C193.86 51.47 192.15 50.97 191.05 50.19C191.28 50.04 191.5 49.87 191.69 49.69C191.18 49.63 190.69 49.54 190.22 49.41C190.43 49.69 190.71 49.95 191.05 50.18C189.87 50.97 188.28 51.46 186.54 51.46C184.8 51.46 183.2 50.97 182.02 50.18C180.45 50.96 177.89 51.46 175.01 51.46C170.9 51.46 167.46 50.43 166.58 49.06C166.22 49.11 165.84 49.14 165.45 49.14C162.85 49.14 160.73 47.96 160.73 46.5C160.73 45.04 162.84 43.86 165.45 43.86C165.5 43.86 165.55 43.86 165.59 43.86C166.99 42.42 170.47 41.4 174.53 41.4C175.62 41.4 176.67 41.47 177.65 41.61C177.65 41.54 177.65 41.47 177.65 41.4C177.65 38.39 180.5 35.95 184.02 35.95C186.94 35.95 189.41 37.64 190.15 39.93C190.97 39.7 191.87 39.57 192.81 39.57C195.83 39.57 198.42 40.89 199.48 42.76C199.82 42.72 200.16 42.71 200.52 42.71C204.04 42.71 206.9 44.5 206.9 46.71V46.73Z" fill="url(#paint2_linear_3_155)"/>
<path d="M290.74 94.8801L286.29 106.31C356.5 126.92 407.75 191.82 407.75 268.7C407.75 355.62 342.24 427.22 257.89 436.84V437.61L258.04 449.11C349.07 439.38 419.97 362.32 419.97 268.7C419.97 186.64 365.5 117.31 290.74 94.8801ZM69.2899 268.7C69.2899 191.44 121.05 126.28 191.79 106.01L187.33 94.5701C112.04 116.67 57.0699 186.27 57.0699 268.7C57.0699 361.97 127.45 438.81 218 449L218.36 437.51L218.39 436.74C134.41 426.79 69.2899 355.36 69.2899 268.7Z" fill="#0F1729"/>
<path d="M165.56 191.85L165.6 191.87C165.6 191.87 165.68 191.8 165.73 191.75L165.56 191.85ZM159.58 193.79C148 205.97 139.23 220.84 134.29 237.36L136.56 239.88C141.31 223.03 150.13 207.89 161.88 195.58L159.58 193.79ZM197.14 168.02C195.52 168.68 193.92 169.39 192.34 170.13C185.57 173.31 179.18 177.16 173.25 181.61L177.23 182.31C182.42 178.61 187.96 175.38 193.8 172.66C195.38 171.91 196.98 171.21 198.61 170.56L197.14 168.02ZM283.01 169.35C281.41 168.63 279.8 167.96 278.16 167.32L276.69 169.87C278.33 170.49 279.95 171.17 281.55 171.89C288.45 174.95 294.96 178.73 300.98 183.14L304.06 181.82C297.57 176.91 290.52 172.71 283.01 169.35ZM165.56 191.85L165.6 191.87C165.6 191.87 165.68 191.8 165.73 191.75L165.56 191.85ZM165.56 191.85L165.6 191.87C165.6 191.87 165.68 191.8 165.73 191.75L165.56 191.85ZM165.56 191.85L165.6 191.87C165.6 191.87 165.68 191.8 165.73 191.75L165.56 191.85ZM316.66 192.97L314.36 194.76C332.98 213.85 344.45 239.94 344.45 268.7C344.45 270.77 344.39 272.82 344.27 274.86L347.25 273.2C347.32 271.71 347.35 270.21 347.35 268.7C347.35 239.27 335.66 212.56 316.66 192.97ZM165.56 191.85L165.6 191.87C165.6 191.87 165.68 191.8 165.73 191.75L165.56 191.85ZM165.56 191.85L165.6 191.87C165.6 191.87 165.68 191.8 165.73 191.75L165.56 191.85ZM165.56 191.85L165.6 191.87C165.6 191.87 165.68 191.8 165.73 191.75L165.56 191.85ZM165.56 191.85L165.6 191.87C165.6 191.87 165.68 191.8 165.73 191.75L165.56 191.85ZM165.56 191.85L165.6 191.87C165.6 191.87 165.68 191.8 165.73 191.75L165.56 191.85Z" fill="#194093"/>
<path d="M162.979 123.859L158.424 126.449C156.984 127.269 156.481 129.1 157.3 130.54L172.967 158.086C173.786 159.527 175.618 160.03 177.058 159.211L181.613 156.62C183.053 155.801 183.557 153.97 182.737 152.529L167.07 124.983C166.251 123.543 164.419 123.04 162.979 123.859Z" fill="#5291FF"/>
<path d="M102.301 185.868L99.6522 190.388C98.8146 191.818 99.2943 193.656 100.724 194.494L128.065 210.515C129.495 211.353 131.333 210.873 132.17 209.444L134.82 204.923C135.657 203.493 135.178 201.655 133.748 200.818L106.407 184.796C104.977 183.958 103.139 184.438 102.301 185.868Z" fill="#5291FF"/>
<path d="M95.18 257.16L82.58 268.28C81.16 268.03 80.08 266.78 80.09 265.3L80.12 260.06C80.12 258.41 81.49 257.07 83.14 257.08L95.18 257.16Z" fill="#5291FF"/>
<path d="M360.283 266.873L360.249 272.113C360.239 273.77 361.573 275.122 363.23 275.132L394.919 275.337C396.576 275.348 397.928 274.013 397.939 272.356L397.973 267.117C397.983 265.46 396.649 264.108 394.992 264.097L363.303 263.893C361.646 263.882 360.294 265.216 360.283 266.873Z" fill="#5291FF"/>
<path d="M343.055 206.238L345.645 210.793C346.464 212.233 348.296 212.737 349.736 211.917L377.282 196.25C378.723 195.431 379.226 193.599 378.407 192.159L375.816 187.604C374.997 186.164 373.165 185.661 371.725 186.48L344.179 202.147C342.739 202.966 342.236 204.798 343.055 206.238Z" fill="#5291FF"/>
<path d="M298.82 157.342L303.341 159.991C304.77 160.829 306.608 160.349 307.446 158.919L323.468 131.578C324.305 130.149 323.826 128.311 322.396 127.473L317.875 124.824C316.446 123.986 314.608 124.466 313.77 125.895L297.748 153.237C296.91 154.666 297.39 156.504 298.82 157.342Z" fill="#5291FF"/>
<path d="M133.519 153.476L133.217 153.768C132.958 154.017 132.951 154.428 133.2 154.687L150.641 172.779C150.89 173.037 151.302 173.045 151.56 172.796L151.862 172.504C152.121 172.255 152.128 171.844 151.879 171.585L134.438 153.493C134.189 153.235 133.778 153.227 133.519 153.476Z" fill="#42ECFF"/>
<path d="M92.6095 221.246L92.4934 221.65C92.3942 221.995 92.5934 222.355 92.9384 222.454L117.089 229.402C117.434 229.501 117.794 229.302 117.893 228.957L118.009 228.553C118.109 228.208 117.909 227.848 117.564 227.749L93.4139 220.801C93.0689 220.702 92.7088 220.901 92.6095 221.246Z" fill="#42ECFF"/>
<path d="M361.277 237.998L361.378 238.405C361.465 238.754 361.818 238.966 362.166 238.879L386.555 232.821C386.903 232.735 387.115 232.382 387.029 232.034L386.928 231.626C386.841 231.278 386.489 231.065 386.14 231.152L361.751 237.21C361.403 237.297 361.191 237.649 361.277 237.998Z" fill="#42ECFF"/>
<path d="M330.476 175.726L330.767 176.028C331.016 176.287 331.428 176.294 331.686 176.045L349.778 158.604C350.037 158.355 350.044 157.943 349.795 157.685L349.504 157.383C349.255 157.124 348.843 157.117 348.585 157.366L330.492 174.807C330.234 175.056 330.226 175.467 330.476 175.726Z" fill="#42ECFF"/>
<path d="M418.5 404.59L380.9 404.43C375.81 408.54 370.53 412.42 365.09 416.07L406.47 416.05C362.04 455.65 303.47 479.71 239.27 479.71C175.07 479.71 116.68 455.72 72.28 416.23L113.65 416.21C107.6 412.15 101.76 407.82 96.14 403.22L58.55 403.06L39.27 402.98C43.26 407.54 47.4 411.96 51.68 416.24C99.72 464.2 166.03 493.85 239.27 493.85C312.51 493.85 379.01 464.11 427.06 416.04C430.74 412.36 434.31 408.57 437.77 404.68L418.5 404.59Z" fill="#0F1729"/>
<path d="M345.36 471.76C312.84 485.97 276.92 493.85 239.17 493.85C201.42 493.85 164.55 485.76 131.69 471.2L136.49 457.85C167.84 471.9 202.59 479.71 239.17 479.71C275.75 479.71 309.55 472.11 340.56 458.43L345.36 471.76Z" fill="url(#paint3_radial_3_155)"/>
<path d="M238.72 241.96C234.34 241.96 230.79 245.51 230.79 249.89V289.13H247.28V249.89C247.28 245.51 243.73 241.96 239.35 241.96H238.72Z" fill="#5CE5FF"/>
<path d="M171.83 284.34H75.3101C76.1601 296.49 78.3901 308.27 81.8601 319.55H171.83V284.34ZM95.9001 311.85C95.9001 313.88 94.2401 315.55 92.2101 315.55H90.4901C88.4601 315.55 86.7901 313.88 86.7901 311.85V293.7C86.7901 291.66 88.4601 290 90.4901 290H92.2101C94.2401 290 95.9001 291.66 95.9001 293.7V311.85ZM113.39 311.85C113.39 313.88 111.72 315.55 109.69 315.55H107.97C105.94 315.55 104.27 313.88 104.27 311.85V293.7C104.27 291.66 105.94 290 107.97 290H109.69C111.72 290 113.39 291.66 113.39 293.7V311.85ZM130.87 311.85C130.87 313.88 129.2 315.55 127.17 315.55H125.45C123.42 315.55 121.75 313.88 121.75 311.85V293.7C121.75 291.66 123.42 290 125.45 290H127.17C129.2 290 130.87 291.66 130.87 293.7V311.85ZM148.35 311.85C148.35 313.88 146.68 315.55 144.65 315.55H142.93C140.9 315.55 139.24 313.88 139.24 311.85V293.7C139.24 291.66 140.9 290 142.93 290H144.65C146.68 290 148.35 291.66 148.35 293.7V311.85ZM165.83 311.85C165.83 313.88 164.17 315.55 162.13 315.55H160.42C158.38 315.55 156.72 313.88 156.72 311.85V293.7C156.72 291.66 158.38 290 160.42 290H162.13C164.17 290 165.83 291.66 165.83 293.7V311.85Z" fill="#5291FF"/>
<path d="M92.04 265.02L75.12 280.77H172.01L155.09 265.02H92.04Z" fill="#5291FF"/>
<path d="M326.78 293.89C325.77 293.89 324.94 294.72 324.94 295.73V301.42H370.85V295.73C370.85 294.72 370.03 293.89 369.01 293.89H366.25L349.6 278.38C348.64 277.48 347.16 277.48 346.2 278.38L329.55 293.89H326.78ZM347.9 285.02C350.96 285.02 353.44 287.5 353.44 290.56C353.44 291.82 353.03 292.97 352.33 293.89C351.32 295.24 349.71 296.11 347.9 296.11C346.09 296.11 344.48 295.24 343.47 293.89C342.77 292.97 342.36 291.82 342.36 290.56C342.36 287.5 344.84 285.02 347.9 285.02Z" fill="#0F1729"/>
<path d="M129.32 238.31C126.68 235.44 122.16 235.44 119.53 238.31L96.97 262.87H151.87L129.32 238.31ZM123.87 259.63C120.49 259.32 118 256.33 118.31 252.96C118.61 249.58 121.6 247.09 124.98 247.39C128.35 247.7 130.85 250.69 130.54 254.06C130.23 257.44 127.25 259.93 123.87 259.63Z" fill="#0F1729"/>
<path d="M117.27 381.17V343.82C117.27 340 120.36 336.91 124.18 336.91H125.29C129.1 336.91 132.2 340 132.2 343.82V395.73C141.65 403.83 152.04 410.88 163.19 416.68V343.82C163.19 340 166.29 336.91 170.1 336.91H171.21C171.48 336.91 171.74 336.93 172 336.96V323.43H83.5C90.71 345.04 102.33 364.64 117.27 381.17Z" fill="#5291FF"/>
<path d="M280.13 223.16V429.19C286.83 427.41 293.35 425.22 299.67 422.64V223.16H280.13Z" fill="#0F1729"/>
<path d="M308.31 216.3C307.51 215.21 305.88 215.21 305.08 216.3L300.31 222.81V243.99H328.6L308.31 216.3ZM306.7 238.76C303.37 238.76 300.67 236.06 300.67 232.73C300.67 229.4 303.37 226.71 306.7 226.71C310.03 226.71 312.72 229.41 312.72 232.73C312.72 236.05 310.02 238.76 306.7 238.76Z" fill="#5291FF"/>
<path d="M392.45 324.79L304.13 324.81V338.55C304.46 338.45 304.79 338.38 305.13 338.34C305.42 338.29 305.72 338.27 306.03 338.27H307.14C310.96 338.27 314.05 341.36 314.05 345.18V415.93C324.36 410.5 334.02 404 342.87 396.58V343.82C342.87 340 345.97 336.91 349.79 336.91H350.89C354.71 336.91 357.81 340 357.81 343.82V382.39C373.05 365.96 384.96 346.41 392.45 324.79ZM300.31 247.94V252.7C300.69 252.37 301.19 252.17 301.73 252.17H301.76C302.95 252.17 303.93 253.14 303.93 254.34V269.5C303.93 270.69 302.95 271.67 301.76 271.67H301.73C301.19 271.67 300.69 271.46 300.31 271.14V287.38C302.46 287.66 304.13 289.5 304.13 291.72V319.87L308.38 319.9L321.68 303.46V291.91C321.68 289.4 323.73 287.34 326.25 287.34C327.5 287.34 328.65 287.86 329.48 288.68C329.98 289.18 330.37 289.81 330.59 290.5V247.94H300.31ZM312.27 269.5C312.27 270.69 311.29 271.67 310.1 271.67H310.07C308.87 271.67 307.9 270.69 307.9 269.5V254.34C307.9 253.14 308.87 252.17 310.07 252.17H310.1C311.29 252.17 312.27 253.14 312.27 254.34V269.5ZM320.6 269.5C320.6 270.69 319.63 271.67 318.43 271.67H318.4C317.21 271.67 316.23 270.69 316.23 269.5V254.34C316.23 253.14 317.21 252.17 318.4 252.17H318.43C319.63 252.17 320.6 253.14 320.6 254.34V269.5ZM328.94 269.5C328.94 270.69 327.97 271.67 326.77 271.67H326.74C325.55 271.67 324.57 270.69 324.57 269.5V254.34C324.57 253.14 325.55 252.17 326.74 252.17H326.77C327.97 252.17 328.94 253.14 328.94 254.34V269.5Z" fill="#5291FF"/>
<path d="M203.01 431.23C208.43 432.43 213.95 433.36 219.57 434V360.13C219.57 349.31 228.35 340.53 239.17 340.53C244.58 340.53 249.48 342.72 253.03 346.27C256.58 349.82 258.77 354.72 258.77 360.13V433.86C263.95 433.22 269.05 432.34 274.07 431.22V324.6H203.01V431.23Z" fill="#5291FF"/>
<path d="M178.4 423.69C184.73 426.19 191.25 428.31 197.94 430.02V223.26H178.4V423.69Z" fill="#0F1729"/>
<path d="M202.21 301.9H207.14V317.97H214.32V301.9H225.71V317.97H232.89V301.9H244.29V317.97H251.47V301.9H262.86V317.97H270.04V301.9H275.75V291.83H202.21V301.9Z" fill="#194093"/>
<path d="M274.51 287.77V225.71H203.45V287.77H207.1V279.53C207.1 274.97 210.79 271.28 215.34 271.28C217.62 271.28 219.68 272.2 221.17 273.69C222.66 275.19 223.59 277.25 223.59 279.53V287.77H225.69V247.94C225.69 240.61 231.64 234.66 238.98 234.66C242.65 234.66 245.97 236.15 248.38 238.55C250.78 240.96 252.27 244.28 252.27 247.94V287.77H254.37V279.53C254.37 274.97 258.06 271.28 262.62 271.28C264.9 271.28 266.96 272.2 268.45 273.69C269.94 275.19 270.86 277.25 270.86 279.53V287.77H274.51Z" fill="#5291FF"/>
<path d="M293.27 203.72H183.82V219.64H293.27V203.72Z" fill="#42ECFF"/>
<path d="M310.56 184.64H166.52L175.77 197.84H301.31L310.56 184.64Z" fill="#5291FF"/>
<path d="M259.36 59.1899H217.79V72.0899H259.36V59.1899Z" fill="#5291FF"/>
<path d="M213.2 59.1899H208.71V72.0899H213.2V59.1899Z" fill="#5291FF"/>
<path d="M267.9 59.1899H263.41V72.0899H267.9V59.1899Z" fill="#5291FF"/>
<path d="M253.98 42.5801H222.94V54.4801H253.98V42.5801Z" fill="#5291FF"/>
<path d="M217.96 42.5801H213.82V54.4801H217.96V42.5801Z" fill="#5291FF"/>
<path d="M263.1 42.5801H258.96V54.4801H263.1V42.5801Z" fill="#5291FF"/>
<path d="M270.06 76.8H207.02L190.1 92.55H286.98L270.06 76.8Z" fill="#5291FF"/>
<path d="M260.02 29.44C260.02 28.34 259.12 27.44 258.02 27.44H255.68L240.49 8.63C239.4 7.29 237.35 7.29 236.27 8.63L221.08 27.44H218.74C217.64 27.44 216.74 28.34 216.74 29.44V36.87H260.02V29.44ZM238.57 24.18C235.66 24.18 233.29 21.82 233.29 18.9C233.29 15.98 235.66 13.63 238.57 13.63C241.48 13.63 243.85 15.99 243.85 18.9C243.85 21.81 241.49 24.18 238.57 24.18Z" fill="#0F1729"/>
<path d="M274.68 178.75V98.4399H202.39V178.75H230.26V166.86C230.26 162.31 233.96 158.62 238.51 158.62C240.78 158.62 242.84 159.54 244.34 161.03C245.83 162.52 246.75 164.58 246.75 166.86V178.75H274.68ZM225.25 151.41H211.39V115.48C211.39 111.65 214.49 108.54 218.32 108.54C220.24 108.54 221.97 109.32 223.22 110.57C224.47 111.82 225.25 113.56 225.25 115.48V151.41ZM251.82 115.48C251.82 111.65 254.92 108.54 258.75 108.54C260.66 108.54 262.4 109.32 263.65 110.57C264.9 111.83 265.68 113.56 265.68 115.48V151.41H251.82V115.48Z" fill="#5291FF"/>
<path d="M386.33 321.27H309.21L322.64 305.15H372.9L386.33 321.27Z" fill="#5291FF"/>
</g>
<defs>
<linearGradient id="paint0_linear_3_155" x1="257.03" y1="27.03" x2="329.49" y2="27.03" gradientUnits="userSpaceOnUse">
<stop stop-color="#5291FF"/>
<stop offset="1" stop-color="#42ECFF"/>
</linearGradient>
<linearGradient id="paint1_linear_3_155" x1="237.94" y1="7.61998" x2="284.12" y2="7.61998" gradientUnits="userSpaceOnUse">
<stop stop-color="#5291FF"/>
<stop offset="1" stop-color="#42ECFF"/>
</linearGradient>
<linearGradient id="paint2_linear_3_155" x1="160.73" y1="43.72" x2="206.9" y2="43.72" gradientUnits="userSpaceOnUse">
<stop stop-color="#5291FF"/>
<stop offset="1" stop-color="#42ECFF"/>
</linearGradient>
<radialGradient id="paint3_radial_3_155" cx="0" cy="0" r="1" gradientUnits="userSpaceOnUse" gradientTransform="translate(238.52 475.85) scale(76.61 76.6099)">
<stop stop-color="#5291FF"/>
<stop offset="1" stop-color="#42ECFF"/>
</radialGradient>
<clipPath id="clip0_3_155">
<rect width="479" height="494" fill="white"/>
</clipPath>
</defs>
</svg>
