<svg width="1282" height="374" viewBox="0 0 1282 374" fill="none" xmlns="http://www.w3.org/2000/svg">
<g clip-path="url(#clip0_1_310)">
<path d="M197.106 288.919C197.106 292.414 193.707 293.448 187.982 293.448C182.258 293.448 177.299 288.877 177.299 285.382C177.299 281.887 182.265 279.679 187.919 281.043C193.573 282.407 197.106 285.417 197.106 288.912V288.919Z" fill="url(#paint0_linear_1_310)"/>
<path d="M190.918 287.168C190.918 287.168 189.071 290.755 189.183 291.985C189.183 291.985 189.183 293.926 191.613 292.66C191.613 292.66 192.541 292.062 192.899 291.366L193.299 289.425C193.299 289.425 192.555 290.712 191.838 290.804C191.838 290.804 191.087 290.818 191.649 289.475L192.709 286.669L190.918 287.168Z" fill="white"/>
<path d="M184.786 285.059C184.786 285.059 182.848 289.109 183.15 290.297C183.15 290.297 183.395 292.224 186.36 290.326C186.36 290.326 187.476 289.489 187.856 288.701L188.13 286.669C188.13 286.669 187.329 288.146 186.416 288.427C186.416 288.427 185.453 288.645 186.008 287.161L187.027 284.088L184.786 285.059Z" fill="white"/>
<path d="M193.826 287.885C193.931 287.921 194.044 287.963 194.149 287.998C194.304 288.054 194.725 288.026 194.781 288.005C194.816 287.991 194.936 287.935 195.111 287.766C195.814 287.091 195.947 285.642 196.123 285.382C196.017 285.41 195.062 285.916 193.348 285.79C193.131 285.776 192.779 285.79 192.414 285.769C191.915 285.741 191.304 285.846 190.532 285.987C190.068 286.071 189.703 286.191 189.436 286.359C189.169 286.528 188.958 286.746 188.818 287.027C188.677 287.309 188.565 287.681 188.474 288.153C188.432 288.406 188.404 288.567 188.396 288.645C188.396 288.764 188.396 288.849 188.425 288.905C188.446 288.961 188.502 289.003 188.579 289.025C188.656 289.046 188.79 289.067 188.972 289.074C189.204 289.088 189.394 289.095 189.562 289.109C189.724 289.123 189.808 289.109 189.808 289.06C189.808 288.968 189.633 288.877 189.26 288.785C189.204 288.771 189.155 288.764 189.12 288.757C189.085 288.75 189.057 288.736 189.043 288.729C189.029 288.715 189.022 288.694 189.022 288.666C189.022 288.582 189.232 288.462 189.647 288.3C190.061 288.139 190.539 288.005 191.094 287.899C191.642 287.794 192.14 287.745 192.583 287.773C192.969 287.794 193.278 287.787 193.587 287.836L193.742 287.878C193.742 287.878 193.812 287.885 193.819 287.885H193.826Z" fill="white" stroke="url(#paint1_linear_1_310)" stroke-miterlimit="10"/>
<path d="M189.9 285.171C190.103 285.234 190.307 285.305 190.511 285.368C190.799 285.459 191.606 285.424 191.712 285.389C191.775 285.368 192.007 285.277 192.337 284.981C193.664 283.828 193.91 281.353 194.24 280.91C194.037 280.959 192.232 281.817 188.979 281.585C188.572 281.557 187.905 281.585 187.202 281.542C186.254 281.493 185.095 281.669 183.627 281.908C182.756 282.049 182.061 282.253 181.555 282.541C181.049 282.822 180.656 283.202 180.396 283.68C180.129 284.158 179.919 284.798 179.757 285.6C179.673 286.036 179.624 286.31 179.617 286.444C179.602 286.641 179.617 286.788 179.666 286.887C179.715 286.985 179.813 287.056 179.961 287.098C180.115 287.14 180.361 287.168 180.705 287.189C181.141 287.21 181.513 287.231 181.815 287.253C182.124 287.274 182.279 287.245 182.286 287.168C182.293 287.013 181.948 286.859 181.246 286.697C181.141 286.676 181.049 286.655 180.979 286.641C180.909 286.627 180.86 286.606 180.832 286.584C180.804 286.563 180.79 286.528 180.79 286.472C180.797 286.324 181.19 286.12 181.97 285.853C182.749 285.586 183.662 285.361 184.702 285.178C185.741 284.995 186.683 284.925 187.526 284.974C188.256 285.016 188.846 285.009 189.436 285.087L189.731 285.157C189.731 285.157 189.864 285.171 189.886 285.171H189.9Z" fill="white" stroke="url(#paint2_linear_1_310)" stroke-miterlimit="10"/>
<mask id="mask0_1_310" style="mask-type:luminance" maskUnits="userSpaceOnUse" x="253" y="64" width="30" height="29">
<mask id="mask1_1_310" style="mask-type:luminance" maskUnits="userSpaceOnUse" x="253" y="64" width="30" height="29">
<path d="M253.797 92.9287H282.426V64.2238H253.797V92.9287Z" fill="white"/>
</mask>
<g mask="url(#mask1_1_310)">
<path d="M253.797 64.2238H282.426V92.9287H253.797V64.2238Z" fill="white"/>
</g>
</mask>
<g mask="url(#mask0_1_310)">
<mask id="mask2_1_310" style="mask-type:luminance" maskUnits="userSpaceOnUse" x="253" y="64" width="30" height="29">
<path d="M253.797 92.9287H282.426V64.2238H253.797V92.9287Z" fill="white"/>
</mask>
<g mask="url(#mask2_1_310)">
<path d="M277.221 69.6947L276.926 67.0366L273.681 70.2854L273.857 71.8255L269.144 76.551C268.729 76.3471 268.259 76.1994 267.76 76.1994C266.138 76.1994 264.81 77.5284 264.81 79.1529C264.81 80.7773 266.138 82.1063 267.76 82.1063C269.383 82.1063 270.71 80.7773 270.71 79.1529C270.71 78.6536 270.591 78.2106 270.387 77.7957L275.1 73.0701L276.631 73.2459L279.876 69.9971L277.221 69.7018V69.6947Z" fill="#194093"/>
<path d="M277.46 74.0617L277.074 74.4766L276.512 74.4203L275.894 74.3289C276.716 75.7494 277.221 77.3738 277.221 79.1458C277.221 84.3496 272.979 88.604 267.788 88.604C262.598 88.604 258.355 84.3496 258.355 79.1458C258.355 73.9421 262.598 69.6877 267.788 69.6877C269.53 69.6877 271.174 70.1589 272.593 71.0168L272.536 70.4261L272.445 69.8354L272.86 69.4205L273.063 69.2166C271.469 68.3868 269.706 67.9156 267.788 67.9156C261.6 67.9156 256.592 72.9365 256.592 79.1458C256.592 85.3552 261.6 90.376 267.788 90.376C273.976 90.376 278.984 85.3552 278.984 79.1458C278.984 77.2261 278.514 75.454 277.657 73.8859L277.453 74.0617H277.46Z" fill="#194093"/>
<path d="M272.712 77.1346C272.979 77.7535 273.098 78.4356 273.098 79.1458C273.098 82.0711 270.71 84.462 267.795 84.462C264.88 84.462 262.492 82.0711 262.492 79.1458C262.492 76.2205 264.88 73.8296 267.795 73.8296C268.505 73.8296 269.179 73.9772 269.797 74.2163L271.125 72.8873C270.12 72.3528 269.003 72.0575 267.795 72.0575C263.904 72.0575 260.722 75.25 260.722 79.1528C260.722 83.0556 263.904 86.2482 267.795 86.2482C271.687 86.2482 274.868 83.0556 274.868 79.1528C274.868 77.9433 274.573 76.8182 274.047 75.8126L272.719 77.1417L272.712 77.1346Z" fill="#194093"/>
</g>
</g>
<mask id="mask3_1_310" style="mask-type:luminance" maskUnits="userSpaceOnUse" x="318" y="137" width="29" height="30">
<mask id="mask4_1_310" style="mask-type:luminance" maskUnits="userSpaceOnUse" x="318" y="137" width="29" height="30">
<path d="M318.29 166.027H346.969V137.322H318.29V166.027Z" fill="white"/>
</mask>
<g mask="url(#mask4_1_310)">
<path d="M318.29 137.322H346.969V166.027H318.29V137.322Z" fill="white"/>
</g>
</mask>
<g mask="url(#mask3_1_310)">
<mask id="mask5_1_310" style="mask-type:luminance" maskUnits="userSpaceOnUse" x="318" y="137" width="29" height="30">
<path d="M318.29 166.027H346.969V137.322H318.29V166.027Z" fill="white"/>
</mask>
<g mask="url(#mask5_1_310)">
<path d="M334.235 139.685C334.235 140.177 333.841 140.571 333.35 140.571C332.858 140.571 332.465 140.177 332.465 139.685C332.465 139.193 332.858 138.799 333.35 138.799C333.841 138.799 334.235 139.193 334.235 139.685Z" fill="#194093"/>
<path d="M335.71 142.343C335.71 142.835 335.317 143.229 334.825 143.229C334.333 143.229 333.94 142.835 333.94 142.343C333.94 141.851 334.333 141.457 334.825 141.457C335.317 141.457 335.71 141.851 335.71 142.343Z" fill="#194093"/>
<path d="M332.458 141.752C332.458 142.244 332.064 142.638 331.573 142.638C331.081 142.638 330.688 142.244 330.688 141.752C330.688 141.26 331.081 140.866 331.573 140.866C332.064 140.866 332.458 141.26 332.458 141.752Z" fill="#194093"/>
<path d="M333.343 145.001C333.343 145.655 332.816 146.182 332.163 146.182C331.51 146.182 330.983 145.655 330.983 145.001C330.983 144.347 331.51 143.82 332.163 143.82C332.816 143.82 333.343 144.347 333.343 145.001Z" fill="#194093"/>
<path d="M338.512 162.321L335.12 154.635V149.431C335.12 148.369 335.977 147.926 336.005 147.891C336.3 147.744 336.419 147.392 336.272 147.097C336.152 146.893 335.949 146.773 335.71 146.773H329.81C329.571 146.773 329.367 146.893 329.248 147.097C329.1 147.392 329.22 147.744 329.515 147.891C329.515 147.891 330.4 148.362 330.4 149.431V154.635L327.007 162.321C326.768 162.884 326.832 163.502 327.155 164.009C327.478 164.508 328.04 164.803 328.63 164.803H336.897C337.487 164.803 338.049 164.508 338.372 164.009C338.695 163.509 338.758 162.884 338.519 162.321H338.512ZM333.94 149.438V150.62H331.58V149.438C331.58 148.819 331.404 148.348 331.193 147.962H334.354C334.115 148.348 333.94 148.819 333.94 149.438Z" fill="#194093"/>
</g>
</g>
<mask id="mask6_1_310" style="mask-type:luminance" maskUnits="userSpaceOnUse" x="326" y="245" width="30" height="29">
<mask id="mask7_1_310" style="mask-type:luminance" maskUnits="userSpaceOnUse" x="326" y="245" width="30" height="29">
<path d="M326.923 273.73H355.553V245.025H326.923V273.73Z" fill="white"/>
</mask>
<g mask="url(#mask7_1_310)">
<path d="M326.923 245.025H355.553V273.73H326.923V245.025Z" fill="white"/>
</g>
</mask>
<g mask="url(#mask6_1_310)">
<mask id="mask8_1_310" style="mask-type:luminance" maskUnits="userSpaceOnUse" x="326" y="245" width="30" height="29">
<path d="M326.923 273.73H355.553V245.025H326.923V273.73Z" fill="white"/>
</mask>
<g mask="url(#mask8_1_310)">
<path d="M343.043 259.504C343.043 260.482 342.249 261.276 341.273 261.276C340.297 261.276 339.503 260.482 339.503 259.504C339.503 258.527 340.297 257.732 341.273 257.732C342.249 257.732 343.043 258.527 343.043 259.504Z" fill="#194093"/>
<path d="M351.647 253.597C351.149 252.739 350.025 252.324 348.493 252.324C347.524 252.324 346.4 252.5 345.164 252.824C344.307 249.722 342.895 247.683 341.273 247.683C339.65 247.683 338.238 249.694 337.41 252.767C336.23 252.472 335.169 252.296 334.228 252.296C332.697 252.296 331.573 252.711 331.074 253.569C330.252 254.989 331.341 257.261 333.61 259.567C331.432 261.811 330.428 263.998 331.222 265.39C331.72 266.248 332.844 266.663 334.375 266.663C335.26 266.663 336.293 266.515 337.41 266.248C338.267 269.321 339.678 271.332 341.273 271.332C342.867 271.332 344.307 269.321 345.136 266.248C346.316 266.543 347.377 266.719 348.318 266.719C349.849 266.719 350.973 266.304 351.472 265.446C352.265 264.054 351.268 261.874 349.083 259.624C351.408 257.289 352.469 255.011 351.647 253.597ZM348.493 253.506C349.582 253.506 350.383 253.773 350.615 254.188C351.057 254.954 350.263 256.762 348.255 258.766C347.545 258.119 346.752 257.465 345.867 256.846C345.775 255.84 345.628 254.863 345.424 253.949C346.541 253.653 347.601 253.506 348.486 253.506H348.493ZM343.218 262.577C342.6 262.929 341.982 263.259 341.364 263.555C340.746 263.259 340.128 262.936 339.51 262.577C338.92 262.225 338.33 261.867 337.803 261.515C337.747 260.868 337.747 260.214 337.747 259.504C337.747 258.857 337.775 258.231 337.803 257.612C338.393 257.198 339.011 256.818 339.692 256.431C340.254 256.108 340.809 255.812 341.371 255.545C341.933 255.812 342.488 256.108 343.05 256.431C343.64 256.783 344.23 257.141 344.757 257.493C344.813 258.14 344.813 258.794 344.813 259.504C344.813 260.214 344.785 260.953 344.722 261.635C344.251 261.958 343.752 262.254 343.218 262.577ZM344.574 263.14C344.483 263.702 344.398 264.265 344.307 264.764C343.808 264.588 343.275 264.412 342.748 264.173C343.099 263.998 343.457 263.787 343.808 263.583C344.075 263.435 344.342 263.287 344.574 263.14ZM339.973 264.173C339.383 264.412 338.821 264.616 338.267 264.792C338.147 264.23 338.063 263.639 337.972 263.02C338.295 263.224 338.59 263.407 338.941 263.611C339.264 263.787 339.615 263.998 339.973 264.173ZM336.588 260.629C336.117 260.278 335.703 259.919 335.324 259.567C335.71 259.216 336.145 258.857 336.588 258.505C336.588 258.829 336.56 259.152 336.56 259.511C336.56 259.898 336.56 260.278 336.588 260.636V260.629ZM337.943 256.108C338.035 255.461 338.119 254.835 338.238 254.244C338.8 254.42 339.39 254.659 339.98 254.891C339.685 255.039 339.362 255.214 339.067 255.39C338.716 255.629 338.33 255.861 337.951 256.101L337.943 256.108ZM342.72 254.898C343.254 254.659 343.78 254.483 344.314 254.307C344.434 254.842 344.518 255.397 344.609 255.995C344.286 255.791 343.991 255.608 343.64 255.404C343.345 255.257 343.05 255.081 342.727 254.905L342.72 254.898ZM345.965 258.386C346.499 258.801 346.969 259.181 347.412 259.595C346.969 259.982 346.499 260.39 345.965 260.777C345.993 260.362 345.993 259.947 345.993 259.539C345.993 259.131 345.993 258.745 345.965 258.386ZM341.28 248.872C342.165 248.872 343.31 250.44 344.047 253.154C343.19 253.449 342.277 253.801 341.364 254.216C340.395 253.773 339.447 253.386 338.533 253.091C339.271 250.405 340.388 248.865 341.273 248.865L341.28 248.872ZM332.086 254.188C332.352 253.745 333.118 253.506 334.207 253.506C335.064 253.506 336.033 253.653 337.094 253.921C336.89 254.863 336.742 255.904 336.651 256.965C335.829 257.556 335.092 258.147 334.439 258.766C332.465 256.755 331.636 254.954 332.078 254.188H332.086ZM334.382 265.502C333.294 265.502 332.493 265.235 332.261 264.82C331.819 264.054 332.584 262.338 334.474 260.39C335.148 260.981 335.885 261.571 336.686 262.162C336.778 263.196 336.925 264.201 337.129 265.116C336.159 265.383 335.211 265.502 334.389 265.502H334.382ZM341.28 270.144C340.395 270.144 339.278 268.604 338.541 265.945C339.454 265.65 340.395 265.298 341.371 264.855C342.284 265.27 343.169 265.622 344.026 265.889C343.289 268.611 342.172 270.144 341.287 270.144H341.28ZM350.474 264.827C350.207 265.27 349.442 265.509 348.353 265.509C347.496 265.509 346.499 265.362 345.466 265.095C345.642 264.209 345.789 263.294 345.881 262.289C346.766 261.67 347.559 261.051 348.269 260.397C350.158 262.345 350.924 264.061 350.481 264.827H350.474Z" fill="#194093"/>
</g>
</g>
<mask id="mask9_1_310" style="mask-type:luminance" maskUnits="userSpaceOnUse" x="20" y="144" width="29" height="29">
<mask id="mask10_1_310" style="mask-type:luminance" maskUnits="userSpaceOnUse" x="20" y="144" width="29" height="29">
<path d="M20.0042 172.989H48.676V144.284H20.0042V172.989Z" fill="white"/>
</mask>
<g mask="url(#mask10_1_310)">
<path d="M20.0042 144.284H48.676V172.989H20.0042V144.284Z" fill="white"/>
</g>
</mask>
<g mask="url(#mask9_1_310)">
<mask id="mask11_1_310" style="mask-type:luminance" maskUnits="userSpaceOnUse" x="20" y="144" width="29" height="29">
<path d="M20.0042 172.989H48.676V144.284H20.0042V172.989Z" fill="white"/>
</mask>
<g mask="url(#mask11_1_310)">
<path d="M34.4665 147.533C28.2714 147.533 23.2493 152.553 23.2493 158.763C23.2493 164.972 28.2644 169.993 34.4665 169.993C40.6687 169.993 45.6838 164.972 45.6838 158.763C45.6838 152.553 40.6687 147.533 34.4665 147.533ZM24.4293 158.763C24.4293 156.133 25.4337 153.77 27.0843 151.963C27.3513 152.11 27.6182 152.35 27.6744 152.553V154.417C27.6744 154.537 27.7025 154.684 27.7938 154.769L29.7394 157.279L29.8869 157.131C29.9782 157.04 30.0063 156.892 29.9431 156.78L29.5919 156.189C29.4444 155.95 29.6832 155.655 29.9431 155.746C30.0344 155.774 30.0906 155.837 30.1187 155.894L31.095 157.813C31.2144 158.017 31.39 158.2 31.5937 158.256L32.8932 158.699C32.9845 158.728 33.0407 158.791 33.0688 158.847L33.1601 158.995C33.2514 159.199 33.4551 159.318 33.6939 159.318H34.0451C34.1364 159.318 34.2207 159.375 34.2839 159.438L34.6702 160C34.7615 160.12 34.8739 160.204 35.0214 160.24L35.6395 160.387C35.8151 160.415 35.9064 160.626 35.8432 160.774C35.8432 160.774 35.3726 161.245 35.3726 161.927C35.3726 163.875 37.1427 164.438 37.1427 164.881C37.1427 166.09 36.9671 167.778 36.8757 168.425C36.1101 168.601 35.3094 168.72 34.4876 168.72C28.9387 168.812 24.4223 164.29 24.4223 158.763H24.4293ZM38.2454 168.073C38.8916 167.511 39.9874 166.568 40.3737 166.153C40.8724 165.591 40.9637 164.677 40.9637 164.677C40.9637 164.677 43.0287 164.114 43.0287 162.609C43.0287 161.576 40.9637 161.133 40.9637 161.133C40.6125 159.979 38.8705 159.361 37.4236 159.361C37.1005 159.361 35.9486 159.951 35.9486 159.951L35.3586 159.656V158.77C35.3586 158.594 35.2392 158.474 35.0636 158.474H34.4735V157.588C34.4735 157.413 34.3541 157.293 34.1785 157.293H33.8835L33.5604 157.497C33.2654 157.701 32.851 157.588 32.7035 157.258C32.7035 157.258 32.4085 156.843 32.4085 156.667C32.4085 155.394 33.8835 155.486 33.8835 155.486H34.5297C34.6772 155.486 34.7966 155.577 34.8247 155.725L35.0003 156.463C35.0284 156.583 35.1478 156.702 35.2953 156.702H35.4148C35.5623 156.702 35.6817 156.611 35.7098 156.463L35.9135 155.373C35.9416 155.282 35.9696 155.198 36.0329 155.106L36.8617 154.072C37.0373 153.868 37.2761 153.749 37.543 153.749H38.3086C38.4842 153.749 38.6036 153.629 38.6036 153.454V153.158L38.5123 153.067C38.3367 152.891 38.4561 152.568 38.716 152.568H38.8916C39.0672 152.568 39.1866 152.687 39.1866 152.863C39.1866 153.039 39.306 153.158 39.4816 153.158H39.7766L39.9522 152.392C40.0084 152.125 39.896 151.892 39.6853 151.745L37.1778 150.24C37.1778 150.24 37.0865 150.212 37.0303 150.212H36.5316C36.2085 150.212 35.9416 150.479 35.9416 150.802V151.098C35.9416 151.274 35.8221 151.393 35.6465 151.393H35.3515L35.0565 151.098H34.1715C33.9959 151.098 33.8765 150.978 33.8765 150.802V150.064C33.8765 149.973 33.9046 149.888 33.9959 149.825L35.8854 149.03L36.1804 149.53C36.2366 149.586 36.2998 149.621 36.3841 149.621H37.1216C37.2972 149.621 37.4166 149.502 37.4166 149.326V149.178C41.5186 150.451 44.4967 154.262 44.4967 158.784C44.4967 162.982 41.8979 166.582 38.2384 168.094L38.2454 168.073Z" fill="#194093"/>
<path d="M38.0979 157.525L36.6791 157.054C36.5596 157.026 36.4754 157.026 36.3559 157.054L35.3515 157.293C35.2602 157.349 35.2321 157.469 35.3515 157.588H36.7071C36.7985 157.588 36.8546 157.588 36.9108 157.617L37.9434 158.031C38.119 158.088 38.2946 157.975 38.2946 157.792C38.2946 157.673 38.2032 157.553 38.0909 157.525H38.0979Z" fill="#194093"/>
</g>
</g>
<mask id="mask12_1_310" style="mask-type:luminance" maskUnits="userSpaceOnUse" x="14" y="247" width="30" height="30">
<mask id="mask13_1_310" style="mask-type:luminance" maskUnits="userSpaceOnUse" x="14" y="247" width="30" height="30">
<path d="M14.5255 276.578H43.1973V247.873H14.5255V276.578Z" fill="white"/>
</mask>
<g mask="url(#mask13_1_310)">
<path d="M14.5255 247.873H43.1973V276.578H14.5255V247.873Z" fill="white"/>
</g>
</mask>
<g mask="url(#mask12_1_310)">
<mask id="mask14_1_310" style="mask-type:luminance" maskUnits="userSpaceOnUse" x="14" y="247" width="30" height="30">
<path d="M14.5255 276.578H43.1973V247.873H14.5255V276.578Z" fill="white"/>
</mask>
<g mask="url(#mask14_1_310)">
<path d="M29.5779 257.922C29.5779 258.245 29.3109 258.513 28.9878 258.513C28.6647 258.513 28.3978 258.245 28.3978 257.922C28.3978 257.598 28.6647 257.331 28.9878 257.331C29.3109 257.331 29.5779 257.598 29.5779 257.922Z" fill="#194093"/>
<path d="M29.5779 269.743C29.5779 270.066 29.3109 270.333 28.9878 270.333C28.6647 270.333 28.3978 270.066 28.3978 269.743C28.3978 269.419 28.6647 269.152 28.9878 269.152C29.3109 269.152 29.5779 269.419 29.5779 269.743Z" fill="#194093"/>
<path d="M35.478 263.533C35.478 263.857 35.2111 264.124 34.888 264.124C34.5649 264.124 34.298 263.857 34.298 263.533C34.298 263.21 34.5649 262.943 34.888 262.943C35.2111 262.943 35.478 263.21 35.478 263.533Z" fill="#194093"/>
<path d="M23.6707 263.533C23.6707 263.857 23.4038 264.124 23.0807 264.124C22.7576 264.124 22.4907 263.857 22.4907 263.533C22.4907 263.21 22.7576 262.943 23.0807 262.943C23.4038 262.943 23.6707 263.21 23.6707 263.533Z" fill="#194093"/>
<path d="M29.5779 259.399H28.3978V263.533C28.3978 263.681 28.454 263.829 28.5734 263.948L31.4954 266.874L32.3242 266.044L29.5779 263.294V259.392V259.399Z" fill="#194093"/>
<path d="M28.9879 272.106C24.4153 272.106 20.7207 268.414 20.7207 263.829C20.7207 259.244 24.4082 255.552 28.9879 255.552C33.5675 255.552 37.2551 259.244 37.2551 263.829C37.2551 268.414 33.5675 272.106 28.9879 272.106ZM35.9837 256.621L36.8687 255.735C37.1918 255.383 37.1918 254.849 36.8406 254.497C36.5175 254.174 35.9556 254.146 35.6044 254.469L34.6 255.503C33.1812 254.561 31.5586 253.963 29.8799 253.85V252.613H32.535V250.841H25.4548V252.613H28.1099V253.822C23.4179 254.237 19.639 257.873 19.049 262.57C18.459 267.267 21.2053 271.733 25.6585 273.294C30.1187 274.862 35.0425 273.146 37.5501 269.124C40.0576 265.102 39.3482 259.905 35.9837 256.621Z" fill="#194093"/>
</g>
</g>
<mask id="mask15_1_310" style="mask-type:luminance" maskUnits="userSpaceOnUse" x="79" y="67" width="30" height="30">
<mask id="mask16_1_310" style="mask-type:luminance" maskUnits="userSpaceOnUse" x="79" y="67" width="30" height="30">
<path d="M79.7148 96.2619H108.394V67.5992H79.7148V96.2619Z" fill="white"/>
</mask>
<g mask="url(#mask16_1_310)">
<path d="M79.7148 67.5992H108.394V96.2619H79.7148V67.5992Z" fill="white"/>
</g>
</mask>
<g mask="url(#mask15_1_310)">
<mask id="mask17_1_310" style="mask-type:luminance" maskUnits="userSpaceOnUse" x="79" y="67" width="30" height="30">
<path d="M79.7148 96.2619H108.394V67.5992H79.7148V96.2619Z" fill="white"/>
</mask>
<g mask="url(#mask17_1_310)">
<path d="M105.928 73.4991H87.0409C86.3947 73.4991 85.8608 74.0335 85.8608 74.6805V78.956C86.1839 78.8646 86.5703 78.8083 86.9215 78.8083C87.1603 78.8083 87.3921 78.8364 87.6309 78.8646V75.2641H105.338V86.4732H95.3291L93.6434 88.2453H105.921C106.567 88.2453 107.101 87.7109 107.101 87.0639V74.6735C107.101 74.0265 106.567 73.4921 105.921 73.4921" fill="#194093"/>
<path d="M86.9495 85.0106C88.3332 85.0106 89.4571 83.8925 89.4571 82.5001C89.4571 81.1078 88.3332 79.9897 86.9495 79.9897C85.5658 79.9897 84.442 81.1078 84.442 82.5001C84.4139 83.8854 85.5658 85.0106 86.9495 85.0106Z" fill="#194093"/>
<path d="M96.6005 82.0853C96.2141 81.4946 95.4485 81.3469 94.8585 81.6985C94.7391 81.7547 94.6829 81.8743 94.6197 81.9376L90.307 86.424C89.8926 86.2201 89.4501 86.0373 89.0076 85.8896C88.3262 85.7701 87.6238 85.6224 86.9425 85.6224C86.2612 85.6224 85.5588 85.7419 84.8775 85.9459C83.8731 86.2131 82.988 86.7123 82.2505 87.3312C82.0749 87.507 81.9274 87.7742 81.8642 88.0133L81.2461 90.6081H90.0682V90.58L92.5757 87.6617L96.4389 83.5901C96.7901 83.2385 96.9095 82.5564 96.5864 82.0853" fill="#194093"/>
</g>
</g>
<path d="M261.46 55.3282C261.46 57.7683 258.313 59.7443 254.422 59.7443C254.092 59.7443 253.761 59.7303 253.445 59.7022C252.293 60.2436 250.811 60.5671 249.196 60.5671C247.089 60.5671 245.213 60.0186 243.991 59.1537C244.244 58.9849 244.483 58.802 244.701 58.6051C244.139 58.5419 243.598 58.4364 243.085 58.2957C243.324 58.6052 243.626 58.8935 243.998 59.1466C242.699 60.0256 240.95 60.5601 239.025 60.5601C237.101 60.5601 235.345 60.0256 234.045 59.1396C232.317 59.9975 229.494 60.5601 226.319 60.5601C221.788 60.5601 217.995 59.4279 217.026 57.909C216.626 57.9652 216.211 57.9934 215.776 57.9934C212.903 57.9934 210.578 56.6924 210.578 55.0821C210.578 53.4717 212.91 52.1708 215.776 52.1708C215.832 52.1708 215.881 52.1708 215.937 52.1708C217.483 50.5816 221.311 49.4635 225.792 49.4635C227 49.4635 228.159 49.5479 229.234 49.6955C229.234 49.6182 229.234 49.5408 229.234 49.4635C229.234 46.1373 232.373 43.444 236.251 43.444C239.475 43.444 242.186 45.3075 243.008 47.8391C243.914 47.5859 244.904 47.4453 245.937 47.4453C249.273 47.4453 252.118 48.9009 253.291 50.9613C253.663 50.9191 254.042 50.898 254.436 50.898C258.32 50.898 261.474 52.874 261.474 55.3141L261.46 55.3282Z" fill="url(#paint3_linear_1_310)"/>
<path d="M226.782 43.1276C226.782 44.6817 224.774 45.9404 222.301 45.9404C222.09 45.9404 221.88 45.9334 221.676 45.9123C220.938 46.2569 219.997 46.4608 218.965 46.4608C217.623 46.4608 216.422 46.1092 215.649 45.5607C215.811 45.4552 215.965 45.3357 216.099 45.2091C215.741 45.1669 215.397 45.1036 215.066 45.0122C215.214 45.2091 215.411 45.3919 215.649 45.5537C214.821 46.1092 213.704 46.4538 212.482 46.4538C211.259 46.4538 210.136 46.1092 209.307 45.5537C208.204 46.1022 206.406 46.4538 204.383 46.4538C201.496 46.4538 199.08 45.7295 198.462 44.7661C198.209 44.8012 197.942 44.8223 197.668 44.8223C195.842 44.8223 194.353 43.9926 194.353 42.9659C194.353 41.9392 195.835 41.1094 197.668 41.1094C197.703 41.1094 197.738 41.1094 197.766 41.1094C198.75 40.0968 201.194 39.3795 204.046 39.3795C204.811 39.3795 205.549 39.4288 206.237 39.5272C206.237 39.478 206.237 39.4288 206.237 39.3795C206.237 37.2629 208.239 35.5471 210.712 35.5471C212.763 35.5471 214.497 36.7355 215.017 38.3458C215.593 38.1841 216.225 38.0927 216.886 38.0927C219.007 38.0927 220.826 39.0209 221.571 40.3359C221.809 40.3078 222.048 40.3007 222.301 40.3007C224.774 40.3007 226.782 41.5595 226.782 43.1136V43.1276Z" fill="url(#paint4_linear_1_310)"/>
<path d="M158.186 66.3404C158.186 67.8945 156.178 69.1533 153.705 69.1533C153.494 69.1533 153.284 69.1462 153.08 69.1251C152.343 69.4697 151.401 69.6736 150.369 69.6736C149.027 69.6736 147.826 69.322 147.053 68.7735C147.215 68.6681 147.37 68.5485 147.503 68.4219C147.145 68.3797 146.801 68.3165 146.471 68.225C146.618 68.4219 146.815 68.6048 147.053 68.7665C146.225 69.322 145.108 69.6666 143.886 69.6666C142.664 69.6666 141.54 69.322 140.711 68.7665C139.608 69.315 137.81 69.6666 135.787 69.6666C132.9 69.6666 130.484 68.9423 129.866 67.9789C129.613 68.0141 129.346 68.0352 129.072 68.0352C127.246 68.0352 125.757 67.2054 125.757 66.1787C125.757 65.152 127.239 64.3222 129.072 64.3222C129.107 64.3222 129.142 64.3222 129.171 64.3222C130.154 63.3096 132.598 62.5924 135.45 62.5924C136.216 62.5924 136.953 62.6416 137.641 62.74C137.641 62.6908 137.641 62.6416 137.641 62.5924C137.641 60.4757 139.643 58.7599 142.116 58.7599C144.167 58.7599 145.902 59.9483 146.421 61.5586C146.997 61.3969 147.629 61.3055 148.29 61.3055C150.411 61.3055 152.23 62.2337 152.975 63.5487C153.213 63.5206 153.452 63.5136 153.705 63.5136C156.178 63.5136 158.186 64.7723 158.186 66.3264V66.3404Z" fill="url(#paint5_linear_1_310)"/>
<path d="M223.179 93.442L220.053 101.48C269.369 115.973 305.366 161.611 305.366 215.673C305.366 276.796 259.352 327.145 200.105 333.91V334.452L200.211 342.539C264.15 335.696 313.95 281.507 313.95 215.673C313.95 157.968 275.69 109.215 223.179 93.442ZM67.6336 215.673C67.6336 161.344 103.99 115.523 153.677 101.269L150.544 93.224C97.661 108.765 59.0504 157.708 59.0504 215.673C59.0504 281.261 108.485 335.296 172.087 342.461L172.34 334.381L172.361 333.84C113.374 326.843 67.6336 276.613 67.6336 215.673Z" fill="#194093"/>
<path d="M135.253 161.632L135.281 161.646C135.281 161.646 135.337 161.597 135.373 161.562L135.253 161.632ZM131.053 162.996C122.919 171.561 116.759 182.018 113.289 193.635L114.884 195.407C118.22 183.558 124.415 172.911 132.668 164.255L131.053 162.996ZM157.435 144.874C156.297 145.339 155.173 145.838 154.063 146.358C149.308 148.594 144.82 151.302 140.655 154.431L143.45 154.923C147.096 152.321 150.987 150.05 155.089 148.137C156.199 147.61 157.322 147.118 158.467 146.661L157.435 144.874ZM217.75 145.81C216.626 145.303 215.495 144.832 214.343 144.382L213.31 146.175C214.462 146.611 215.6 147.09 216.724 147.596C221.571 149.748 226.143 152.406 230.372 155.507L232.535 154.579C227.976 151.126 223.025 148.172 217.75 145.81ZM135.253 161.632L135.281 161.646C135.281 161.646 135.337 161.597 135.373 161.562L135.253 161.632ZM135.253 161.632L135.281 161.646C135.281 161.646 135.337 161.597 135.373 161.562L135.253 161.632ZM135.253 161.632L135.281 161.646C135.281 161.646 135.337 161.597 135.373 161.562L135.253 161.632ZM241.385 162.419L239.77 163.678C252.848 177.102 260.905 195.449 260.905 215.673C260.905 217.129 260.863 218.57 260.778 220.005L262.871 218.838C262.921 217.79 262.942 216.735 262.942 215.673C262.942 194.978 254.731 176.195 241.385 162.419ZM135.253 161.632L135.281 161.646C135.281 161.646 135.337 161.597 135.373 161.562L135.253 161.632ZM135.253 161.632L135.281 161.646C135.281 161.646 135.337 161.597 135.373 161.562L135.253 161.632ZM135.253 161.632L135.281 161.646C135.281 161.646 135.337 161.597 135.373 161.562L135.253 161.632ZM135.253 161.632L135.281 161.646C135.281 161.646 135.337 161.597 135.373 161.562L135.253 161.632ZM135.253 161.632L135.281 161.646C135.281 161.646 135.337 161.597 135.373 161.562L135.253 161.632Z" fill="#194093"/>
<path d="M133.44 113.82L130.241 115.642C129.23 116.218 128.876 117.506 129.451 118.519L140.456 137.889C141.031 138.902 142.318 139.256 143.329 138.68L146.529 136.858C147.54 136.282 147.894 134.994 147.319 133.981L136.314 114.611C135.738 113.598 134.452 113.244 133.44 113.82Z" fill="#194093"/>
<path d="M90.8208 157.425L88.9599 160.604C88.3716 161.609 88.7086 162.902 89.7126 163.491L108.917 174.757C109.921 175.347 111.212 175.009 111.801 174.004L113.661 170.825C114.25 169.82 113.913 168.527 112.909 167.938L93.7042 156.671C92.7001 156.082 91.4092 156.42 90.8208 157.425Z" fill="#194093"/>
<path d="M85.8187 207.558L76.9685 215.378C75.9711 215.202 75.2125 214.323 75.2195 213.282L75.2406 209.598C75.2406 208.437 76.2029 207.495 77.3618 207.502L85.8187 207.558Z" fill="#194093"/>
<path d="M272.026 214.389L272.002 218.073C271.995 219.238 272.932 220.189 274.096 220.196L296.354 220.34C297.518 220.348 298.467 219.41 298.475 218.244L298.499 214.56C298.506 213.395 297.569 212.444 296.405 212.437L274.147 212.293C272.983 212.285 272.033 213.223 272.026 214.389Z" fill="#194093"/>
<path d="M259.925 171.75L261.744 174.953C262.32 175.965 263.606 176.319 264.618 175.743L283.966 164.726C284.978 164.15 285.331 162.862 284.756 161.849L282.936 158.646C282.361 157.633 281.074 157.279 280.063 157.855L260.715 168.873C259.703 169.449 259.349 170.737 259.925 171.75Z" fill="#194093"/>
<path d="M228.854 137.365L232.03 139.228C233.034 139.818 234.325 139.48 234.913 138.475L246.167 119.248C246.755 118.243 246.418 116.951 245.414 116.362L242.239 114.499C241.235 113.91 239.944 114.247 239.355 115.252L228.102 134.479C227.513 135.484 227.85 136.776 228.854 137.365Z" fill="#194093"/>
<path d="M112.748 134.647L112.535 134.852C112.354 135.027 112.349 135.317 112.524 135.498L124.774 148.221C124.949 148.403 125.238 148.408 125.42 148.233L125.632 148.028C125.814 147.853 125.819 147.563 125.644 147.382L113.393 134.659C113.218 134.477 112.929 134.472 112.748 134.647Z" fill="#009ED4"/>
<path d="M84.0131 182.303L83.9316 182.587C83.8619 182.83 84.0018 183.083 84.2441 183.153L101.207 188.038C101.45 188.108 101.703 187.968 101.772 187.726L101.854 187.442C101.924 187.199 101.784 186.946 101.541 186.876L84.5781 181.99C84.3358 181.921 84.0829 182.061 84.0131 182.303Z" fill="#009ED4"/>
<path d="M272.724 194.083L272.795 194.37C272.856 194.615 273.104 194.764 273.348 194.703L290.479 190.443C290.724 190.382 290.873 190.134 290.812 189.889L290.741 189.603C290.68 189.358 290.432 189.208 290.188 189.269L273.057 193.529C272.812 193.59 272.663 193.838 272.724 194.083Z" fill="#009ED4"/>
<path d="M251.089 150.293L251.294 150.506C251.469 150.688 251.758 150.693 251.939 150.518L264.647 138.253C264.829 138.078 264.834 137.789 264.659 137.607L264.454 137.394C264.279 137.212 263.99 137.207 263.809 137.382L251.101 149.647C250.919 149.822 250.914 150.112 251.089 150.293Z" fill="#009ED4"/>
<path d="M312.917 311.232L286.507 311.119C282.932 314.01 279.223 316.738 275.402 319.305L304.467 319.291C273.26 347.138 232.121 364.057 187.027 364.057C141.933 364.057 100.92 347.187 69.7338 319.417L98.7919 319.403C94.5424 316.548 90.4404 313.503 86.493 310.268L60.0899 310.156L46.5477 310.1C49.3503 313.306 52.2582 316.415 55.2645 319.424C89.0075 353.15 135.583 374 187.027 374C238.47 374 285.18 353.087 318.93 319.284C321.514 316.696 324.022 314.031 326.452 311.295L312.917 311.232Z" fill="#194093"/>
<path d="M261.544 358.466C238.702 368.459 213.472 374 186.957 374C160.441 374 134.544 368.311 111.463 358.072L114.835 348.685C136.855 358.565 161.263 364.057 186.957 364.057C212.65 364.057 236.391 358.712 258.172 349.092L261.544 358.466Z" fill="#009ED4"/>
<path d="M186.367 196.87C183.29 196.87 180.797 199.366 180.797 202.446V230.04H192.379V202.446C192.379 199.366 189.886 196.87 186.809 196.87H186.367Z" fill="#5CE5FF"/>
<path d="M139.657 226.671H71.8621C72.4591 235.215 74.0254 243.499 76.4628 251.431H139.657V226.671ZM86.3244 246.017C86.3244 247.444 85.1584 248.618 83.7325 248.618H82.5244C81.0986 248.618 79.9256 247.444 79.9256 246.017V233.253C79.9256 231.819 81.0986 230.652 82.5244 230.652H83.7325C85.1584 230.652 86.3244 231.819 86.3244 233.253V246.017ZM98.6093 246.017C98.6093 247.444 97.4363 248.618 96.0104 248.618H94.8023C93.3764 248.618 92.2034 247.444 92.2034 246.017V233.253C92.2034 231.819 93.3764 230.652 94.8023 230.652H96.0104C97.4363 230.652 98.6093 231.819 98.6093 233.253V246.017ZM110.887 246.017C110.887 247.444 109.714 248.618 108.288 248.618H107.08C105.654 248.618 104.481 247.444 104.481 246.017V233.253C104.481 231.819 105.654 230.652 107.08 230.652H108.288C109.714 230.652 110.887 231.819 110.887 233.253V246.017ZM123.165 246.017C123.165 247.444 121.992 248.618 120.566 248.618H119.358C117.932 248.618 116.766 247.444 116.766 246.017V233.253C116.766 231.819 117.932 230.652 119.358 230.652H120.566C121.992 230.652 123.165 231.819 123.165 233.253V246.017ZM135.443 246.017C135.443 247.444 134.277 248.618 132.844 248.618H131.643C130.21 248.618 129.044 247.444 129.044 246.017V233.253C129.044 231.819 130.21 230.652 131.643 230.652H132.844C134.277 230.652 135.443 231.819 135.443 233.253V246.017Z" fill="#009FE3"/>
<path d="M83.6132 213.085L71.7286 224.161H139.784L127.899 213.085H83.6132Z" fill="#194093"/>
<path d="M248.493 233.387C247.784 233.387 247.201 233.971 247.201 234.681V238.682H279.448V234.681C279.448 233.971 278.872 233.387 278.156 233.387H276.217L264.522 222.48C263.848 221.847 262.808 221.847 262.134 222.48L250.439 233.387H248.493ZM263.328 227.15C265.477 227.15 267.219 228.894 267.219 231.045C267.219 231.931 266.931 232.74 266.44 233.387C265.73 234.336 264.599 234.948 263.328 234.948C262.057 234.948 260.926 234.336 260.216 233.387C259.725 232.74 259.437 231.931 259.437 231.045C259.437 228.894 261.179 227.15 263.328 227.15Z" fill="#194093"/>
<path d="M109.798 194.303C107.944 192.285 104.769 192.285 102.922 194.303L87.0759 211.574H125.637L109.798 194.303ZM105.97 209.295C103.596 209.077 101.847 206.975 102.065 204.605C102.276 202.228 104.376 200.477 106.75 200.688C109.117 200.906 110.873 203.009 110.655 205.378C110.438 207.755 108.344 209.506 105.97 209.295Z" fill="#194093"/>
<path d="M101.335 294.763V268.498C101.335 265.812 103.505 263.639 106.188 263.639H106.968C109.644 263.639 111.821 265.812 111.821 268.498V305.001C118.459 310.697 125.757 315.655 133.589 319.734V268.498C133.589 265.812 135.766 263.639 138.442 263.639H139.222C139.411 263.639 139.594 263.653 139.777 263.674V254.16H77.6147C82.679 269.356 90.8408 283.139 101.335 294.763Z" fill="#009FE3"/>
<path d="M215.727 183.649V328.531C220.433 327.279 225.012 325.739 229.451 323.925V183.649H215.727Z" fill="#194093"/>
<path d="M235.52 178.825C234.958 178.059 233.813 178.059 233.251 178.825L229.901 183.403V198.297H249.772L235.52 178.825ZM234.389 194.619C232.05 194.619 230.154 192.721 230.154 190.379C230.154 188.037 232.05 186.146 234.389 186.146C236.728 186.146 238.618 188.044 238.618 190.379C238.618 192.714 236.721 194.619 234.389 194.619Z" fill="#009ED4"/>
<path d="M294.95 254.16H244.911V252.381H290.574L281.056 241.305H245.586L244.911 242.086V231.995C244.911 230.23 246.351 228.781 248.121 228.781C248.999 228.781 249.807 229.147 250.39 229.723C250.741 230.075 251.015 230.518 251.17 231.003V201.075H229.901V204.422C230.168 204.19 230.519 204.049 230.898 204.049H230.92C231.755 204.049 232.444 204.731 232.444 205.575V216.236C232.444 217.073 231.755 217.762 230.92 217.762H230.898C230.519 217.762 230.168 217.614 229.901 217.389V228.809C231.411 229.006 232.584 230.3 232.584 231.861V264.792C232.816 264.722 233.048 264.673 233.287 264.645C233.49 264.609 233.701 264.595 233.919 264.595H234.698C237.382 264.595 239.552 266.768 239.552 269.454V319.206C246.794 315.388 253.579 310.817 259.795 305.599V268.498C259.795 265.812 261.972 263.639 264.656 263.639H265.428C268.111 263.639 270.289 265.812 270.289 268.498V295.621C281.218 283.828 289.71 269.743 294.95 254.16ZM246.941 205.575C246.941 204.731 247.629 204.049 248.465 204.049H248.486C249.329 204.049 250.011 204.731 250.011 205.575V216.236C250.011 217.073 249.329 217.762 248.486 217.762H248.465C247.629 217.762 246.941 217.073 246.941 216.236V205.575ZM238.302 216.236C238.302 217.073 237.613 217.762 236.777 217.762H236.756C235.914 217.762 235.232 217.073 235.232 216.236V205.575C235.232 204.731 235.914 204.049 236.756 204.049H236.777C237.613 204.049 238.302 204.731 238.302 205.575V216.236ZM244.153 216.236C244.153 217.073 243.471 217.762 242.628 217.762H242.607C241.772 217.762 241.083 217.073 241.083 216.236V205.575C241.083 204.731 241.772 204.049 242.607 204.049H242.628C243.471 204.049 244.153 204.731 244.153 205.575V216.236Z" fill="#009FE3"/>
<path d="M161.558 329.965C165.365 330.809 169.242 331.463 173.19 331.913V279.967C173.19 272.359 179.357 266.184 186.957 266.184C190.757 266.184 194.198 267.724 196.692 270.221C199.185 272.717 200.724 276.163 200.724 279.967V331.815C204.362 331.365 207.944 330.746 211.47 329.958V254.982H161.558V329.965Z" fill="#009ED4"/>
<path d="M144.272 324.663C148.718 326.421 153.298 327.912 157.997 329.114V183.72H144.272V324.663Z" fill="#194093"/>
<path d="M160.996 239.02H164.459V250.32H169.502V239.02H177.502V250.32H182.546V239.02H190.553V250.32H195.596V239.02H203.596V250.32H208.64V239.02H212.65V231.938H160.996V239.02Z" fill="#194093"/>
<path d="M211.779 229.083V185.442H161.867V229.083H164.431V223.289C164.431 220.082 167.023 217.487 170.218 217.487C171.82 217.487 173.267 218.134 174.313 219.182C175.36 220.237 176.013 221.686 176.013 223.289V229.083H177.488V201.075C177.488 195.92 181.668 191.736 186.823 191.736C189.401 191.736 191.733 192.784 193.426 194.472C195.111 196.166 196.158 198.501 196.158 201.075V229.083H197.633V223.289C197.633 220.082 200.225 217.487 203.428 217.487C205.029 217.487 206.476 218.134 207.523 219.182C208.569 220.237 209.215 221.686 209.215 223.289V229.083H211.779Z" fill="#009ED4"/>
<path d="M224.956 169.979H148.079V181.174H224.956V169.979Z" fill="#009FE3"/>
<path d="M237.101 156.562H135.928L142.425 165.844H230.603L237.101 156.562Z" fill="#009ED4"/>
<path d="M201.138 68.3446H171.939V77.416H201.138V68.3446Z" fill="#009ED4"/>
<path d="M168.715 68.3446H165.562V77.416H168.715V68.3446Z" fill="#009ED4"/>
<path d="M207.136 68.3446H203.983V77.416H207.136V68.3446Z" fill="#009ED4"/>
<path d="M197.359 56.6643H175.557V65.0325H197.359V56.6643Z" fill="#009ED4"/>
<path d="M172.059 56.6643H169.151V65.0325H172.059V56.6643Z" fill="#009ED4"/>
<path d="M203.765 56.6643H200.857V65.0325H203.765V56.6643Z" fill="#009ED4"/>
<path d="M208.654 80.728H164.375L152.49 91.8035H220.538L208.654 80.728Z" fill="#194093"/>
<path d="M201.602 47.4242C201.602 46.6506 200.969 46.0178 200.197 46.0178H198.553L187.884 32.7905C187.118 31.8482 185.678 31.8482 184.92 32.7905L174.25 46.0178H172.607C171.834 46.0178 171.202 46.6506 171.202 47.4242V52.649H201.602V47.4242ZM186.535 43.7253C184.491 43.7253 182.826 42.0657 182.826 40.0124C182.826 37.959 184.491 36.3065 186.535 36.3065C188.579 36.3065 190.244 37.9661 190.244 40.0124C190.244 42.0587 188.586 43.7253 186.535 43.7253Z" fill="#194093"/>
<path d="M211.899 152.42V95.9454H161.122V152.42H180.698V144.059C180.698 140.859 183.297 138.264 186.493 138.264C188.087 138.264 189.534 138.911 190.588 139.959C191.635 141.007 192.281 142.455 192.281 144.059V152.42H211.899ZM177.179 133.194H167.444V107.928C167.444 105.235 169.621 103.048 172.312 103.048C173.66 103.048 174.875 103.596 175.753 104.475C176.631 105.354 177.179 106.578 177.179 107.928V133.194ZM195.842 107.928C195.842 105.235 198.019 103.048 200.709 103.048C202.051 103.048 203.273 103.596 204.151 104.475C205.029 105.361 205.577 106.578 205.577 107.928V133.194H195.842V107.928Z" fill="#009FE3"/>
</g>
<path d="M424.133 256.094C420.305 256.094 417.479 255.296 415.656 253.701C413.833 252.106 412.922 249.554 412.922 246.045V159.229C411.464 159.365 409.641 159.639 407.453 160.049C405.311 160.413 403.055 160.96 400.686 161.689C398.316 162.419 395.946 163.307 393.576 164.355C391.206 165.358 389.087 166.543 387.219 167.91C385.35 169.232 383.824 170.736 382.639 172.422C381.454 174.108 380.861 175.977 380.861 178.027C380.861 179.486 381.044 180.648 381.408 181.514C381.818 182.38 382.274 183.04 382.775 183.496C383.277 183.906 383.778 184.18 384.279 184.316C384.826 184.408 385.214 184.453 385.441 184.453C386.581 184.453 387.515 184.271 388.244 183.906C388.973 183.496 389.634 183.086 390.227 182.676C390.819 182.22 391.366 181.81 391.867 181.445C392.414 181.035 393.029 180.83 393.713 180.83C394.26 180.83 394.829 180.967 395.422 181.24C396.06 181.468 396.63 181.855 397.131 182.402C397.678 182.949 398.133 183.678 398.498 184.59C398.863 185.456 399.045 186.527 399.045 187.803C399.045 189.626 398.68 191.198 397.951 192.52C397.268 193.841 396.356 194.958 395.217 195.869C394.123 196.735 392.847 197.396 391.389 197.852C389.976 198.262 388.563 198.467 387.15 198.467C384.963 198.467 382.98 198.102 381.203 197.373C379.471 196.598 377.99 195.55 376.76 194.229C375.529 192.907 374.595 191.357 373.957 189.58C373.319 187.803 373 185.911 373 183.906C373 178.574 374.458 173.971 377.375 170.098C380.337 166.178 384.37 162.943 389.475 160.391C394.579 157.793 400.526 155.879 407.316 154.648C414.107 153.418 421.376 152.803 429.123 152.803C432.814 152.803 436.415 152.848 439.924 152.939C443.433 152.985 446.623 153.076 449.494 153.213C452.411 153.35 454.917 153.509 457.014 153.691C459.11 153.874 460.637 154.079 461.594 154.307C462.505 154.535 463.234 154.876 463.781 155.332C464.328 155.742 464.738 156.221 465.012 156.768C465.285 157.314 465.467 157.907 465.559 158.545C465.65 159.137 465.695 159.753 465.695 160.391C465.695 160.892 465.627 161.484 465.49 162.168C465.354 162.806 465.148 163.421 464.875 164.014C464.602 164.606 464.26 165.107 463.85 165.518C463.439 165.928 462.938 166.133 462.346 166.133C461.981 166.133 461.594 165.973 461.184 165.654C460.819 165.335 460.295 164.948 459.611 164.492C458.928 164.036 457.993 163.512 456.809 162.92C455.669 162.327 454.143 161.781 452.229 161.279C450.36 160.778 448.036 160.322 445.256 159.912C442.521 159.502 439.195 159.229 435.275 159.092V246.045C435.275 249.554 434.364 252.106 432.541 253.701C430.718 255.296 427.915 256.094 424.133 256.094ZM484.836 248.848C484.836 249.44 484.722 250.169 484.494 251.035C484.312 251.855 483.833 252.653 483.059 253.428C482.329 254.157 481.258 254.772 479.846 255.273C478.433 255.82 476.519 256.094 474.104 256.094C471.688 256.094 469.797 255.798 468.43 255.205C467.062 254.658 466.037 253.997 465.354 253.223C464.67 252.448 464.237 251.65 464.055 250.83C463.918 250.01 463.85 249.349 463.85 248.848V196.074C463.85 194.753 463.531 193.613 462.893 192.656C462.3 191.654 461.275 191.152 459.816 191.152C459.042 191.152 458.381 191.289 457.834 191.562C457.287 191.836 456.695 192.223 456.057 192.725L454.621 191.016C455.669 190.15 456.831 189.307 458.107 188.486C459.429 187.62 460.842 186.868 462.346 186.23C463.85 185.592 465.467 185.068 467.199 184.658C468.931 184.248 470.754 184.043 472.668 184.043C475.63 184.043 477.932 184.453 479.572 185.273C481.213 186.048 482.421 187.028 483.195 188.213C483.97 189.352 484.426 190.583 484.562 191.904C484.745 193.226 484.836 194.388 484.836 195.391V248.848ZM461.73 168.457C461.73 167.181 462.004 165.973 462.551 164.834C463.143 163.649 463.941 162.624 464.943 161.758C465.992 160.892 467.176 160.208 468.498 159.707C469.865 159.206 471.346 158.955 472.941 158.955C474.491 158.955 475.926 159.206 477.248 159.707C478.615 160.208 479.8 160.892 480.803 161.758C481.805 162.624 482.58 163.649 483.127 164.834C483.719 165.973 484.016 167.181 484.016 168.457C484.016 169.779 483.719 171.009 483.127 172.148C482.58 173.288 481.805 174.29 480.803 175.156C479.8 175.977 478.615 176.637 477.248 177.139C475.926 177.64 474.491 177.891 472.941 177.891C471.346 177.891 469.865 177.64 468.498 177.139C467.176 176.637 465.992 175.977 464.943 175.156C463.941 174.29 463.143 173.288 462.551 172.148C462.004 171.009 461.73 169.779 461.73 168.457ZM560.51 248.984C560.51 249.577 560.419 250.283 560.236 251.104C560.054 251.924 559.598 252.699 558.869 253.428C558.186 254.157 557.137 254.772 555.725 255.273C554.312 255.82 552.398 256.094 549.982 256.094C547.567 256.094 545.653 255.798 544.24 255.205C542.873 254.658 541.825 253.997 541.096 253.223C540.412 252.448 539.979 251.65 539.797 250.83C539.615 250.01 539.523 249.349 539.523 248.848V200.518C539.523 199.88 539.432 199.242 539.25 198.604C539.068 197.92 538.794 197.305 538.43 196.758C538.065 196.211 537.609 195.778 537.062 195.459C536.516 195.094 535.878 194.912 535.148 194.912C533.918 194.912 532.71 195.277 531.525 196.006C530.34 196.689 529.224 197.487 528.176 198.398C527.173 199.31 526.285 200.221 525.51 201.133C524.781 202.044 524.257 202.728 523.938 203.184V248.984C523.938 249.577 523.846 250.283 523.664 251.104C523.482 251.924 523.026 252.699 522.297 253.428C521.613 254.157 520.565 254.772 519.152 255.273C517.785 255.82 515.894 256.094 513.479 256.094C511.063 256.094 509.149 255.798 507.736 255.205C506.369 254.658 505.321 253.997 504.592 253.223C503.863 252.448 503.407 251.65 503.225 250.83C503.042 250.01 502.951 249.349 502.951 248.848V196.074C502.951 194.753 502.632 193.613 501.994 192.656C501.402 191.654 500.376 191.152 498.918 191.152C498.143 191.152 497.482 191.289 496.936 191.562C496.389 191.836 495.796 192.223 495.158 192.725L493.723 191.016C494.771 190.15 495.933 189.307 497.209 188.486C498.531 187.62 499.943 186.868 501.447 186.23C502.951 185.592 504.569 185.068 506.301 184.658C508.033 184.248 509.855 184.043 511.77 184.043C514.732 184.043 517.033 184.544 518.674 185.547C520.314 186.504 521.522 187.666 522.297 189.033C523.072 190.4 523.527 191.836 523.664 193.34C523.846 194.798 523.938 196.029 523.938 197.031C526.079 194.616 528.381 192.451 530.842 190.537C531.844 189.717 532.938 188.919 534.123 188.145C535.354 187.37 536.607 186.686 537.883 186.094C539.159 185.456 540.48 184.954 541.848 184.59C543.215 184.225 544.582 184.043 545.949 184.043C548.592 184.043 550.848 184.521 552.717 185.479C554.585 186.436 556.089 187.598 557.229 188.965C558.368 190.286 559.188 191.699 559.689 193.203C560.236 194.661 560.51 195.938 560.51 197.031C562.697 194.616 564.999 192.451 567.414 190.537C568.417 189.717 569.51 188.919 570.695 188.145C571.88 187.37 573.111 186.686 574.387 186.094C575.708 185.456 577.03 184.954 578.352 184.59C579.719 184.225 581.086 184.043 582.453 184.043C585.096 184.043 587.352 184.544 589.221 185.547C591.089 186.504 592.593 187.78 593.732 189.375C594.872 190.97 595.692 192.77 596.193 194.775C596.74 196.781 597.014 198.786 597.014 200.791V243.105C597.014 243.516 597.036 243.971 597.082 244.473C597.128 244.928 597.242 245.384 597.424 245.84C597.606 246.25 597.88 246.592 598.244 246.865C598.654 247.139 599.178 247.275 599.816 247.275C600.682 247.275 601.457 246.979 602.141 246.387C602.824 245.749 603.462 245.111 604.055 244.473L605.695 245.908C605.057 246.865 604.214 247.936 603.166 249.121C602.118 250.26 600.865 251.354 599.406 252.402C597.993 253.451 596.33 254.316 594.416 255C592.548 255.729 590.428 256.094 588.059 256.094C586.053 256.094 584.299 255.82 582.795 255.273C581.337 254.772 580.083 254.089 579.035 253.223C578.033 252.311 577.281 251.263 576.779 250.078C576.278 248.848 576.027 247.549 576.027 246.182V200.518C576.027 199.88 575.936 199.242 575.754 198.604C575.572 197.92 575.298 197.305 574.934 196.758C574.615 196.211 574.182 195.778 573.635 195.459C573.088 195.094 572.45 194.912 571.721 194.912C570.49 194.912 569.26 195.277 568.029 196.006C566.844 196.689 565.728 197.487 564.68 198.398C563.677 199.31 562.811 200.221 562.082 201.133C561.353 202.044 560.829 202.728 560.51 203.184V248.984ZM632.697 223.623C632.697 225.081 632.902 226.676 633.312 228.408C633.768 230.094 634.406 231.803 635.227 233.535C636.047 235.267 637.049 236.93 638.234 238.525C639.465 240.075 640.855 241.465 642.404 242.695C643.999 243.926 645.754 244.906 647.668 245.635C649.582 246.364 651.678 246.729 653.957 246.729C655.552 246.729 657.033 246.546 658.4 246.182C659.768 245.817 661.044 245.316 662.229 244.678C663.413 244.04 664.553 243.311 665.646 242.49C666.74 241.624 667.834 240.713 668.928 239.756L670.637 241.396C669.589 242.809 668.244 244.359 666.604 246.045C664.963 247.731 662.98 249.326 660.656 250.83C658.332 252.288 655.62 253.519 652.521 254.521C649.423 255.479 645.891 255.957 641.926 255.957C637.961 255.957 634.087 255.251 630.305 253.838C626.568 252.38 623.241 250.215 620.324 247.344C617.408 244.473 615.061 240.895 613.283 236.611C611.551 232.327 610.686 227.314 610.686 221.572C610.686 217.425 611.21 213.62 612.258 210.156C613.306 206.693 614.719 203.571 616.496 200.791C618.319 198.011 620.415 195.573 622.785 193.477C625.201 191.38 627.73 189.648 630.373 188.281C633.016 186.868 635.705 185.82 638.439 185.137C641.219 184.408 643.885 184.043 646.438 184.043C649.81 184.043 652.749 184.408 655.256 185.137C657.762 185.866 659.836 186.846 661.477 188.076C663.163 189.307 664.416 190.742 665.236 192.383C666.057 193.978 666.467 195.664 666.467 197.441C666.467 199.583 665.852 201.52 664.621 203.252C663.391 204.938 661.75 206.419 659.699 207.695L632.697 223.623ZM646.438 209.746C647.03 209.382 647.508 209.04 647.873 208.721C648.283 208.356 648.602 207.946 648.83 207.49C649.058 206.989 649.217 206.396 649.309 205.713C649.445 204.984 649.514 204.095 649.514 203.047C649.514 201.908 649.377 200.654 649.104 199.287C648.876 197.874 648.465 196.553 647.873 195.322C647.281 194.092 646.529 193.066 645.617 192.246C644.706 191.426 643.612 191.016 642.336 191.016C640.695 191.016 639.283 191.517 638.098 192.52C636.958 193.477 636.001 194.73 635.227 196.279C634.497 197.829 633.905 199.606 633.449 201.611C633.039 203.571 632.72 205.553 632.492 207.559C632.264 209.564 632.128 211.501 632.082 213.369C632.036 215.192 632.014 216.742 632.014 218.018L646.438 209.746ZM702.014 189.922V240.439C702.014 242.855 702.469 244.541 703.381 245.498C704.292 246.41 705.546 246.865 707.141 246.865C708.371 246.865 709.465 246.523 710.422 245.84C711.379 245.156 712.199 244.382 712.883 243.516C713.703 242.559 714.41 241.442 715.002 240.166L717.121 241.123C716.438 242.581 715.617 244.176 714.66 245.908C713.749 247.64 712.518 249.258 710.969 250.762C709.419 252.22 707.46 253.451 705.09 254.453C702.766 255.456 699.826 255.957 696.271 255.957C694.266 255.957 692.329 255.661 690.461 255.068C688.638 254.476 686.997 253.542 685.539 252.266C684.126 250.99 682.987 249.395 682.121 247.48C681.255 245.566 680.822 243.265 680.822 240.576V189.922H673.166V185C674.442 185 676.219 184.681 678.498 184.043C680.777 183.359 683.101 182.243 685.471 180.693C687.886 179.144 690.119 177.07 692.17 174.473C694.221 171.875 695.679 168.662 696.545 164.834H702.014V185H713.156C716.802 185 718.625 184.385 718.625 183.154C718.625 182.699 718.397 182.402 717.941 182.266C717.486 182.083 716.962 181.878 716.369 181.65C715.822 181.377 715.321 181.012 714.865 180.557C714.41 180.101 714.182 179.349 714.182 178.301C714.182 177.025 714.569 176.022 715.344 175.293C716.164 174.564 717.212 174.199 718.488 174.199C719.309 174.199 720.015 174.382 720.607 174.746C721.245 175.065 721.77 175.521 722.18 176.113C722.59 176.66 722.886 177.298 723.068 178.027C723.296 178.757 723.41 179.486 723.41 180.215C723.41 183.177 722.544 185.547 720.812 187.324C719.126 189.056 716.392 189.922 712.609 189.922H702.014ZM757.795 219.59C757.795 218.451 757.43 217.585 756.701 216.992C755.972 216.4 755.038 216.104 753.898 216.104C752.303 216.104 750.777 216.468 749.318 217.197C747.906 217.926 746.652 218.997 745.559 220.41C744.465 221.823 743.599 223.577 742.961 225.674C742.323 227.725 742.004 230.117 742.004 232.852C742.004 235.495 742.186 237.682 742.551 239.414C742.961 241.146 743.485 242.536 744.123 243.584C744.807 244.587 745.581 245.293 746.447 245.703C747.313 246.113 748.225 246.318 749.182 246.318C750.367 246.318 751.483 246.022 752.531 245.43C753.579 244.792 754.491 243.994 755.266 243.037C756.04 242.08 756.656 241.009 757.111 239.824C757.567 238.639 757.795 237.454 757.795 236.27V219.59ZM746.926 189.648C745.376 189.648 743.941 189.831 742.619 190.195C741.298 190.56 740.158 191.016 739.201 191.562C738.244 192.109 737.492 192.725 736.945 193.408C736.398 194.046 736.125 194.661 736.125 195.254C736.125 195.938 736.467 196.439 737.15 196.758C737.88 197.031 738.677 197.373 739.543 197.783C740.409 198.148 741.184 198.695 741.867 199.424C742.596 200.107 742.961 201.178 742.961 202.637C742.961 203.594 742.756 204.482 742.346 205.303C741.981 206.077 741.457 206.784 740.773 207.422C740.135 208.014 739.361 208.493 738.449 208.857C737.583 209.176 736.672 209.336 735.715 209.336C733.163 209.336 731.089 208.47 729.494 206.738C727.945 205.007 727.17 202.705 727.17 199.834C727.17 197.054 727.899 194.684 729.357 192.725C730.816 190.719 732.707 189.079 735.031 187.803C737.401 186.527 740.067 185.592 743.029 185C745.992 184.362 748.954 184.043 751.916 184.043C755.471 184.043 758.866 184.43 762.102 185.205C765.337 185.98 768.186 187.21 770.646 188.896C773.153 190.583 775.135 192.725 776.594 195.322C778.098 197.92 778.85 201.064 778.85 204.756V243.379C778.85 243.789 778.872 244.245 778.918 244.746C778.964 245.247 779.077 245.703 779.26 246.113C779.442 246.523 779.715 246.865 780.08 247.139C780.445 247.412 780.969 247.549 781.652 247.549C782.473 247.549 783.225 247.253 783.908 246.66C784.637 246.022 785.275 245.384 785.822 244.746L787.531 246.182C786.848 247.139 786.027 248.187 785.07 249.326C784.113 250.465 782.951 251.536 781.584 252.539C780.217 253.542 778.622 254.385 776.799 255.068C774.976 255.752 772.902 256.094 770.578 256.094C767.707 256.094 765.155 255.251 762.922 253.564C760.689 251.833 759.23 249.189 758.547 245.635C757.089 247.594 755.562 249.235 753.967 250.557C752.417 251.878 750.822 252.949 749.182 253.77C747.541 254.59 745.878 255.182 744.191 255.547C742.551 255.911 740.887 256.094 739.201 256.094C737.014 256.094 734.895 255.752 732.844 255.068C730.793 254.385 728.947 253.314 727.307 251.855C725.712 250.352 724.413 248.415 723.41 246.045C722.453 243.675 721.975 240.781 721.975 237.363C721.975 233.216 722.795 229.821 724.436 227.178C726.076 224.535 728.218 222.324 730.861 220.547C733.55 218.724 736.581 217.174 739.953 215.898C743.371 214.622 746.857 213.278 750.412 211.865C753.055 210.817 754.969 209.268 756.154 207.217C757.385 205.12 758 202.979 758 200.791C758 197.419 756.997 194.73 754.992 192.725C753.033 190.674 750.344 189.648 746.926 189.648ZM835.246 220.957C835.246 216.992 835.041 213.278 834.631 209.814C834.221 206.305 833.56 203.252 832.648 200.654C831.737 198.011 830.575 195.938 829.162 194.434C827.749 192.884 826.04 192.109 824.035 192.109C822.486 192.109 821.164 192.497 820.07 193.271C819.022 194.001 818.156 194.844 817.473 195.801C816.789 196.758 816.288 197.715 815.969 198.672C815.65 199.583 815.49 200.199 815.49 200.518V220.957C815.49 230.892 816.311 238.115 817.951 242.627C819.637 247.139 822.098 249.395 825.334 249.395C828.752 249.395 831.258 247.093 832.854 242.49C834.449 237.887 835.246 230.71 835.246 220.957ZM794.504 160.664C794.504 159.342 794.185 158.203 793.547 157.246C792.954 156.243 791.929 155.742 790.471 155.742C789.696 155.742 789.012 155.879 788.42 156.152C787.873 156.38 787.281 156.745 786.643 157.246L785.275 155.605C786.324 154.74 787.486 153.896 788.762 153.076C790.083 152.21 791.496 151.458 793 150.82C794.504 150.182 796.122 149.658 797.854 149.248C799.585 148.838 801.408 148.633 803.322 148.633C805.965 148.633 808.085 149.043 809.68 149.863C811.32 150.638 812.551 151.618 813.371 152.803C814.237 153.942 814.807 155.195 815.08 156.562C815.354 157.884 815.49 159.115 815.49 160.254V190.742C816.037 190.241 816.743 189.626 817.609 188.896C818.475 188.122 819.569 187.37 820.891 186.641C822.212 185.911 823.785 185.296 825.607 184.795C827.476 184.294 829.663 184.043 832.17 184.043C835.087 184.043 838.003 184.727 840.92 186.094C843.837 187.415 846.457 189.512 848.781 192.383C851.105 195.254 852.997 198.945 854.455 203.457C855.913 207.969 856.643 213.392 856.643 219.727C856.643 224.694 855.959 229.388 854.592 233.809C853.27 238.229 851.288 242.103 848.645 245.43C846.001 248.711 842.697 251.309 838.732 253.223C834.768 255.137 830.165 256.094 824.924 256.094C819.227 256.094 814.419 255.182 810.5 253.359C806.626 251.491 803.505 249.007 801.135 245.908C798.765 242.764 797.056 239.118 796.008 234.971C795.005 230.824 794.504 226.449 794.504 221.846V160.664ZM891.027 248.984C891.027 249.577 890.913 250.283 890.686 251.104C890.503 251.924 890.025 252.699 889.25 253.428C888.521 254.157 887.427 254.772 885.969 255.273C884.556 255.82 882.642 256.094 880.227 256.094C877.811 256.094 875.92 255.798 874.553 255.205C873.186 254.658 872.16 253.997 871.477 253.223C870.839 252.448 870.428 251.65 870.246 250.83C870.109 250.01 870.041 249.349 870.041 248.848V160.664C870.041 159.342 869.722 158.203 869.084 157.246C868.492 156.243 867.466 155.742 866.008 155.742C865.233 155.742 864.549 155.879 863.957 156.152C863.41 156.38 862.818 156.745 862.18 157.246L860.812 155.605C861.861 154.74 863.023 153.896 864.299 153.076C865.575 152.21 866.965 151.458 868.469 150.82C870.018 150.182 871.659 149.658 873.391 149.248C875.122 148.838 876.945 148.633 878.859 148.633C881.822 148.633 884.123 149.043 885.764 149.863C887.404 150.638 888.612 151.618 889.387 152.803C890.161 153.942 890.617 155.173 890.754 156.494C890.936 157.77 891.027 158.91 891.027 159.912V248.984ZM925.959 223.623C925.959 225.081 926.164 226.676 926.574 228.408C927.03 230.094 927.668 231.803 928.488 233.535C929.309 235.267 930.311 236.93 931.496 238.525C932.727 240.075 934.117 241.465 935.666 242.695C937.261 243.926 939.016 244.906 940.93 245.635C942.844 246.364 944.94 246.729 947.219 246.729C948.814 246.729 950.295 246.546 951.662 246.182C953.029 245.817 954.305 245.316 955.49 244.678C956.675 244.04 957.814 243.311 958.908 242.49C960.002 241.624 961.096 240.713 962.189 239.756L963.898 241.396C962.85 242.809 961.506 244.359 959.865 246.045C958.225 247.731 956.242 249.326 953.918 250.83C951.594 252.288 948.882 253.519 945.783 254.521C942.684 255.479 939.152 255.957 935.188 255.957C931.223 255.957 927.349 255.251 923.566 253.838C919.829 252.38 916.503 250.215 913.586 247.344C910.669 244.473 908.322 240.895 906.545 236.611C904.813 232.327 903.947 227.314 903.947 221.572C903.947 217.425 904.471 213.62 905.52 210.156C906.568 206.693 907.98 203.571 909.758 200.791C911.581 198.011 913.677 195.573 916.047 193.477C918.462 191.38 920.992 189.648 923.635 188.281C926.278 186.868 928.967 185.82 931.701 185.137C934.481 184.408 937.147 184.043 939.699 184.043C943.072 184.043 946.011 184.408 948.518 185.137C951.024 185.866 953.098 186.846 954.738 188.076C956.424 189.307 957.678 190.742 958.498 192.383C959.318 193.978 959.729 195.664 959.729 197.441C959.729 199.583 959.113 201.52 957.883 203.252C956.652 204.938 955.012 206.419 952.961 207.695L925.959 223.623ZM939.699 209.746C940.292 209.382 940.77 209.04 941.135 208.721C941.545 208.356 941.864 207.946 942.092 207.49C942.32 206.989 942.479 206.396 942.57 205.713C942.707 204.984 942.775 204.095 942.775 203.047C942.775 201.908 942.639 200.654 942.365 199.287C942.137 197.874 941.727 196.553 941.135 195.322C940.542 194.092 939.79 193.066 938.879 192.246C937.967 191.426 936.874 191.016 935.598 191.016C933.957 191.016 932.544 191.517 931.359 192.52C930.22 193.477 929.263 194.73 928.488 196.279C927.759 197.829 927.167 199.606 926.711 201.611C926.301 203.571 925.982 205.553 925.754 207.559C925.526 209.564 925.389 211.501 925.344 213.369C925.298 215.192 925.275 216.742 925.275 218.018L939.699 209.746ZM1021.73 246.045C1021.73 249.554 1020.8 252.106 1018.93 253.701C1017.1 255.296 1014.3 256.094 1010.52 256.094C1006.69 256.094 1003.87 255.296 1002.04 253.701C1000.22 252.106 999.309 249.554 999.309 246.045V164.287C999.309 161.781 997.577 160.527 994.113 160.527C991.607 160.527 989.055 160.915 986.457 161.689C983.905 162.419 981.581 163.444 979.484 164.766C977.434 166.042 975.747 167.591 974.426 169.414C973.104 171.191 972.443 173.128 972.443 175.225C972.443 176.683 972.626 177.845 972.99 178.711C973.4 179.577 973.856 180.238 974.357 180.693C974.859 181.104 975.36 181.377 975.861 181.514C976.408 181.605 976.796 181.65 977.023 181.65C978.163 181.65 979.097 181.468 979.826 181.104C980.555 180.693 981.216 180.283 981.809 179.873C982.401 179.417 982.948 179.007 983.449 178.643C983.996 178.232 984.611 178.027 985.295 178.027C985.842 178.027 986.411 178.164 987.004 178.438C987.642 178.665 988.212 179.053 988.713 179.6C989.26 180.146 989.715 180.876 990.08 181.787C990.445 182.653 990.627 183.724 990.627 185C990.627 186.823 990.262 188.395 989.533 189.717C988.85 191.038 987.938 192.155 986.799 193.066C985.705 193.932 984.429 194.593 982.971 195.049C981.558 195.459 980.145 195.664 978.732 195.664C976.545 195.664 974.562 195.299 972.785 194.57C971.053 193.796 969.572 192.747 968.342 191.426C967.111 190.104 966.177 188.555 965.539 186.777C964.901 185 964.582 183.109 964.582 181.104C964.582 177.321 965.288 173.994 966.701 171.123C968.114 168.206 970.096 165.7 972.648 163.604C975.246 161.507 978.345 159.775 981.945 158.408C985.546 156.995 989.533 155.879 993.908 155.059C998.283 154.238 1002.95 153.669 1007.92 153.35C1012.93 152.985 1018.13 152.803 1023.51 152.803C1036.54 152.803 1046.41 155.309 1053.11 160.322C1059.81 165.29 1063.16 172.445 1063.16 181.787C1063.16 186.344 1062.54 190.378 1061.31 193.887C1060.13 197.396 1058.51 200.426 1056.46 202.979C1054.45 205.485 1052.13 207.536 1049.48 209.131C1046.84 210.68 1044.11 211.797 1041.28 212.48C1038.46 213.164 1035.61 213.438 1032.74 213.301C1029.91 213.164 1027.27 212.64 1024.81 211.729L1025.76 208.789C1029.18 209.837 1031.98 209.883 1034.17 208.926C1036.4 207.923 1038.14 206.169 1039.37 203.662C1040.64 201.156 1041.51 197.988 1041.96 194.16C1042.47 190.332 1042.72 186.117 1042.72 181.514C1042.72 178.05 1042.35 174.906 1041.62 172.08C1040.89 169.209 1039.89 166.771 1038.62 164.766C1037.38 162.76 1035.93 161.211 1034.24 160.117C1032.6 158.978 1030.85 158.408 1028.98 158.408C1027.52 158.408 1026.31 158.636 1025.35 159.092C1024.44 159.502 1023.71 160.049 1023.17 160.732C1022.66 161.37 1022.3 162.077 1022.07 162.852C1021.89 163.581 1021.78 164.287 1021.73 164.971V246.045ZM1123.45 152.803C1135.85 152.803 1145.3 155.013 1151.82 159.434C1158.38 163.809 1161.66 170.098 1161.66 178.301C1161.66 182.311 1161.18 185.752 1160.23 188.623C1159.32 191.449 1158.02 193.864 1156.33 195.869C1154.69 197.829 1152.71 199.469 1150.38 200.791C1148.1 202.067 1145.62 203.161 1142.93 204.072C1144.8 204.574 1146.67 205.918 1148.54 208.105C1150.45 210.293 1152.39 213.005 1154.35 216.24C1156.31 219.43 1158.29 222.985 1160.29 226.904C1162.3 230.824 1164.31 234.788 1166.31 238.799C1168.36 242.809 1170.41 246.706 1172.46 250.488C1174.56 254.271 1176.63 257.643 1178.68 260.605C1180.78 263.568 1182.88 265.938 1184.97 267.715C1187.11 269.492 1189.23 270.381 1191.33 270.381C1192.24 270.381 1193.13 270.199 1194 269.834C1194.91 269.469 1195.61 269.105 1196.12 268.74L1197.55 271.406C1196.64 271.908 1195.52 272.454 1194.2 273.047C1192.88 273.685 1191.33 274.277 1189.55 274.824C1187.78 275.371 1185.77 275.827 1183.54 276.191C1181.35 276.602 1178.91 276.807 1176.22 276.807C1171.8 276.807 1167.81 275.576 1164.26 273.115C1160.71 270.7 1157.65 267.282 1155.1 262.861C1152.5 258.304 1149.95 253.519 1147.44 248.506C1144.94 243.493 1142.43 238.48 1139.92 233.467C1137.46 228.454 1134.98 223.555 1132.47 218.77C1130.01 213.984 1127.53 209.495 1125.02 205.303L1125.57 202.5C1128.26 203.184 1130.58 203.024 1132.54 202.021C1134.55 201.019 1136.19 199.401 1137.46 197.168C1138.74 194.889 1139.67 192.109 1140.27 188.828C1140.9 185.547 1141.22 181.992 1141.22 178.164C1141.22 175.43 1140.93 172.878 1140.33 170.508C1139.74 168.092 1138.9 165.996 1137.8 164.219C1136.76 162.396 1135.48 160.983 1133.98 159.98C1132.47 158.932 1130.79 158.408 1128.92 158.408C1127.46 158.408 1126.25 158.636 1125.29 159.092C1124.38 159.502 1123.65 160.049 1123.11 160.732C1122.56 161.37 1122.17 162.077 1121.95 162.852C1121.76 163.581 1121.67 164.287 1121.67 164.971V246.045C1121.67 249.554 1120.74 252.106 1118.87 253.701C1117.05 255.296 1114.24 256.094 1110.46 256.094C1106.63 256.094 1103.81 255.296 1101.98 253.701C1100.16 252.106 1099.25 249.554 1099.25 246.045V164.287C1099.25 161.781 1097.52 160.527 1094.05 160.527C1091.55 160.527 1089 160.915 1086.4 161.689C1083.85 162.419 1081.52 163.444 1079.43 164.766C1077.38 166.042 1075.69 167.591 1074.37 169.414C1073.05 171.191 1072.38 173.128 1072.38 175.225C1072.38 176.683 1072.57 177.845 1072.93 178.711C1073.34 179.577 1073.8 180.238 1074.3 180.693C1074.8 181.104 1075.3 181.377 1075.8 181.514C1076.35 181.605 1076.74 181.65 1076.96 181.65C1078.1 181.65 1079.04 181.468 1079.77 181.104C1080.5 180.693 1081.16 180.283 1081.75 179.873C1082.34 179.417 1082.89 179.007 1083.39 178.643C1083.94 178.232 1084.55 178.027 1085.24 178.027C1085.78 178.027 1086.35 178.164 1086.95 178.438C1087.58 178.665 1088.15 179.053 1088.65 179.6C1089.2 180.146 1089.66 180.876 1090.02 181.787C1090.39 182.653 1090.57 183.724 1090.57 185C1090.57 186.823 1090.2 188.395 1089.47 189.717C1088.79 191.038 1087.88 192.155 1086.74 193.066C1085.65 193.932 1084.37 194.593 1082.91 195.049C1081.5 195.459 1080.09 195.664 1078.67 195.664C1076.49 195.664 1074.5 195.299 1072.73 194.57C1070.99 193.796 1069.51 192.747 1068.28 191.426C1067.05 190.104 1066.12 188.555 1065.48 186.777C1064.84 185 1064.52 183.109 1064.52 181.104C1064.52 177.321 1065.23 173.994 1066.64 171.123C1068.06 168.206 1070.04 165.7 1072.59 163.604C1075.19 161.507 1078.29 159.775 1081.89 158.408C1085.49 156.995 1089.47 155.879 1093.85 155.059C1098.22 154.238 1102.9 153.669 1107.86 153.35C1112.88 152.985 1118.07 152.803 1123.45 152.803ZM1217.85 174.473C1217.85 176.068 1218.1 177.389 1218.61 178.438C1219.11 179.44 1219.72 180.306 1220.45 181.035C1221.23 181.719 1222.05 182.288 1222.91 182.744C1223.78 183.2 1224.58 183.678 1225.3 184.18C1226.08 184.681 1226.72 185.251 1227.22 185.889C1227.72 186.527 1227.97 187.347 1227.97 188.35C1227.97 190.036 1227.38 191.335 1226.19 192.246C1225.01 193.112 1223.64 193.545 1222.09 193.545C1220.63 193.545 1219.27 193.089 1217.99 192.178C1216.76 191.266 1215.67 190.036 1214.71 188.486C1213.8 186.891 1213.07 185.046 1212.52 182.949C1211.97 180.807 1211.7 178.551 1211.7 176.182C1211.7 173.265 1212.16 170.485 1213.07 167.842C1213.98 165.153 1215.32 162.806 1217.1 160.801C1218.88 158.75 1221.07 157.132 1223.66 155.947C1226.31 154.762 1229.32 154.17 1232.69 154.17C1234.97 154.17 1237.45 154.557 1240.14 155.332C1242.83 156.061 1245.49 157.246 1248.14 158.887C1250.83 160.527 1253.4 162.646 1255.86 165.244C1258.37 167.842 1260.58 171.009 1262.49 174.746C1264.45 178.483 1266 182.812 1267.14 187.734C1268.28 192.656 1268.85 198.239 1268.85 204.482C1268.85 212.549 1267.64 219.772 1265.23 226.152C1262.86 232.533 1259.62 237.956 1255.52 242.422C1251.46 246.842 1246.75 250.238 1241.37 252.607C1235.99 254.932 1230.29 256.094 1224.28 256.094C1218.31 256.094 1212.61 255.068 1207.19 253.018C1201.77 250.967 1196.98 247.845 1192.83 243.652C1188.73 239.414 1185.45 234.059 1182.99 227.588C1180.57 221.071 1179.37 213.369 1179.37 204.482C1179.37 197.601 1180.28 191.335 1182.1 185.684C1183.97 180.033 1186.45 175.02 1189.55 170.645C1192.7 166.27 1196.34 162.601 1200.49 159.639C1204.64 156.631 1209.04 154.352 1213.68 152.803L1216.01 155.742C1214.69 157.064 1213.46 158.431 1212.32 159.844C1211.18 161.257 1210.13 162.874 1209.17 164.697C1208.21 166.475 1207.35 168.548 1206.57 170.918C1205.85 173.242 1205.23 175.999 1204.73 179.189C1204.23 182.334 1203.84 185.98 1203.57 190.127C1203.29 194.274 1203.16 199.059 1203.16 204.482C1203.16 211.501 1203.52 217.493 1204.25 222.461C1205.02 227.428 1206 231.598 1207.19 234.971C1208.42 238.298 1209.79 240.964 1211.29 242.969C1212.84 244.928 1214.39 246.41 1215.94 247.412C1217.49 248.415 1218.99 249.076 1220.45 249.395C1221.91 249.668 1223.19 249.805 1224.28 249.805C1225.37 249.805 1226.63 249.668 1228.04 249.395C1229.5 249.076 1230.98 248.415 1232.48 247.412C1234.03 246.41 1235.56 244.928 1237.06 242.969C1238.57 240.964 1239.89 238.298 1241.03 234.971C1242.21 231.598 1243.17 227.428 1243.9 222.461C1244.63 217.493 1244.99 211.501 1244.99 204.482C1244.99 198.33 1244.72 192.975 1244.17 188.418C1243.62 183.861 1242.9 179.964 1241.98 176.729C1241.12 173.493 1240.09 170.85 1238.91 168.799C1237.77 166.702 1236.56 165.062 1235.29 163.877C1234.05 162.646 1232.8 161.803 1231.53 161.348C1230.29 160.892 1229.16 160.664 1228.11 160.664C1226.47 160.664 1225.01 161.051 1223.73 161.826C1222.46 162.601 1221.39 163.649 1220.52 164.971C1219.65 166.247 1218.99 167.728 1218.54 169.414C1218.08 171.055 1217.85 172.741 1217.85 174.473Z" fill="url(#paint6_linear_1_310)"/>
<defs>
<linearGradient id="paint0_linear_1_310" x1="177.299" y1="287.042" x2="197.106" y2="287.042" gradientUnits="userSpaceOnUse">
<stop stop-color="#007594"/>
<stop offset="1" stop-color="#55CDFF" stop-opacity="0.8"/>
</linearGradient>
<linearGradient id="paint1_linear_1_310" x1="188.052" y1="287.133" x2="196.952" y2="287.133" gradientUnits="userSpaceOnUse">
<stop stop-color="#007594"/>
<stop offset="1" stop-color="#55CDFF" stop-opacity="0.8"/>
</linearGradient>
<linearGradient id="paint2_linear_1_310" x1="176.973" y1="283.05" x2="192.819" y2="283.116" gradientUnits="userSpaceOnUse">
<stop stop-color="#007594"/>
<stop offset="1" stop-color="#55CDFF" stop-opacity="0.8"/>
</linearGradient>
<linearGradient id="paint3_linear_1_310" x1="210.564" y1="52.0091" x2="261.46" y2="52.0091" gradientUnits="userSpaceOnUse">
<stop stop-color="#007594"/>
<stop offset="1" stop-color="#55CDFF" stop-opacity="0.8"/>
</linearGradient>
<linearGradient id="paint4_linear_1_310" x1="194.346" y1="41.011" x2="226.782" y2="41.011" gradientUnits="userSpaceOnUse">
<stop stop-color="#007594"/>
<stop offset="1" stop-color="#55CDFF" stop-opacity="0.8"/>
</linearGradient>
<linearGradient id="paint5_linear_1_310" x1="125.757" y1="64.2238" x2="158.186" y2="64.2238" gradientUnits="userSpaceOnUse">
<stop stop-color="#007594"/>
<stop offset="1" stop-color="#55CDFF" stop-opacity="0.8"/>
</linearGradient>
<linearGradient id="paint6_linear_1_310" x1="1275" y1="205.349" x2="373.411" y2="230.323" gradientUnits="userSpaceOnUse">
<stop stop-color="#009FE3"/>
<stop offset="0.546875" stop-color="#00D1FF"/>
<stop offset="1" stop-color="#194093"/>
</linearGradient>
<clipPath id="clip0_1_310">
<rect width="373" height="374" fill="white"/>
</clipPath>
</defs>
</svg>
