<svg width="1282" height="374" viewBox="0 0 1282 374" fill="none" xmlns="http://www.w3.org/2000/svg">
<g clip-path="url(#clip0_1_156)">
<g clip-path="url(#clip1_1_156)">
<path d="M441 -76H-65V432H441V-76Z" fill="#0F1729"/>
<path d="M198.89 282.486C198.89 286.069 195.399 287.129 189.522 287.129C183.644 287.129 178.552 282.443 178.552 278.86C178.552 275.278 183.651 273.014 189.457 274.412C195.169 275.789 198.89 278.896 198.89 282.479V282.486Z" fill="url(#paint0_linear_1_156)"/>
<path d="M192.529 280.691C192.529 280.691 190.632 284.368 190.748 285.63C190.748 285.63 190.748 287.619 193.243 286.322C193.243 286.322 194.195 285.709 194.563 284.995L194.974 283.006C194.974 283.006 194.209 284.325 193.474 284.418C193.474 284.418 192.702 284.433 193.279 283.056L194.368 280.18L192.529 280.691Z" fill="white"/>
<path d="M186.24 278.522C186.24 278.522 184.25 282.674 184.56 283.892C184.56 283.892 184.812 285.867 187.856 283.921C187.856 283.921 189.002 283.063 189.392 282.256L189.673 280.172C189.673 280.172 188.851 281.686 187.913 281.975C187.913 281.975 186.925 282.198 187.495 280.677L188.541 277.527L186.24 278.522Z" fill="white"/>
<path d="M195.522 281.427C195.63 281.463 195.746 281.506 195.854 281.542C196.012 281.6 196.445 281.571 196.503 281.549C196.539 281.535 196.661 281.477 196.842 281.304C197.563 280.612 197.7 279.127 197.88 278.86C197.772 278.889 196.791 279.408 195.032 279.278C194.808 279.264 194.447 279.278 194.072 279.257C193.56 279.228 192.933 279.336 192.14 279.48C191.664 279.567 191.289 279.689 191.015 279.862C190.74 280.035 190.524 280.259 190.38 280.547C190.236 280.836 190.12 281.218 190.027 281.701C189.983 281.96 189.954 282.126 189.947 282.205C189.947 282.328 189.947 282.414 189.976 282.472C189.998 282.53 190.055 282.573 190.135 282.595C190.214 282.616 190.351 282.638 190.539 282.645C190.777 282.659 190.971 282.667 191.144 282.681C191.31 282.696 191.397 282.681 191.397 282.631C191.397 282.537 191.216 282.443 190.834 282.349C190.777 282.335 190.726 282.328 190.69 282.321C190.654 282.313 190.625 282.299 190.611 282.292C190.596 282.277 190.589 282.256 190.589 282.227C190.589 282.14 190.805 282.018 191.231 281.852C191.656 281.686 192.147 281.549 192.717 281.441C193.279 281.333 193.791 281.283 194.245 281.311C194.642 281.333 194.959 281.326 195.277 281.376L195.435 281.42C195.435 281.42 195.508 281.427 195.515 281.427H195.522Z" fill="white" stroke="url(#paint1_linear_1_156)" stroke-miterlimit="10"/>
<path d="M191.491 278.644C191.7 278.709 191.909 278.781 192.118 278.846C192.414 278.94 193.243 278.904 193.351 278.868C193.416 278.846 193.654 278.752 193.993 278.449C195.356 277.267 195.609 274.73 195.947 274.275C195.738 274.326 193.885 275.205 190.546 274.968C190.128 274.939 189.442 274.968 188.721 274.924C187.748 274.874 186.558 275.054 185.05 275.299C184.156 275.443 183.442 275.652 182.923 275.948C182.404 276.236 182 276.626 181.733 277.116C181.459 277.606 181.242 278.262 181.077 279.084C180.99 279.531 180.94 279.812 180.932 279.949C180.918 280.151 180.932 280.302 180.983 280.403C181.033 280.504 181.134 280.576 181.286 280.619C181.444 280.663 181.697 280.691 182.05 280.713C182.497 280.735 182.88 280.756 183.19 280.778C183.507 280.8 183.666 280.771 183.673 280.691C183.68 280.533 183.327 280.374 182.606 280.208C182.497 280.187 182.404 280.165 182.331 280.151C182.259 280.136 182.209 280.115 182.18 280.093C182.151 280.071 182.137 280.035 182.137 279.978C182.144 279.826 182.548 279.617 183.348 279.343C184.149 279.069 185.086 278.839 186.154 278.651C187.221 278.464 188.188 278.392 189.053 278.442C189.803 278.486 190.409 278.478 191.015 278.558L191.317 278.63C191.317 278.63 191.454 278.644 191.476 278.644H191.491Z" fill="white" stroke="url(#paint2_linear_1_156)" stroke-miterlimit="10"/>
<mask id="mask0_1_156" style="mask-type:luminance" maskUnits="userSpaceOnUse" x="257" y="52" width="30" height="30">
<mask id="mask1_1_156" style="mask-type:luminance" maskUnits="userSpaceOnUse" x="257" y="52" width="30" height="30">
<path d="M257.097 81.5659H286.493V52.139H257.097V81.5659Z" fill="white"/>
</mask>
<g mask="url(#mask1_1_156)">
<path d="M257.097 52.139H286.493V81.5659H257.097V52.139Z" fill="white"/>
</g>
</mask>
<g mask="url(#mask0_1_156)">
<mask id="mask2_1_156" style="mask-type:luminance" maskUnits="userSpaceOnUse" x="257" y="52" width="30" height="30">
<path d="M257.097 81.5659H286.493V52.139H257.097V81.5659Z" fill="white"/>
</mask>
<g mask="url(#mask2_1_156)">
<path d="M281.149 57.7404L280.846 55.0154L277.514 58.3459L277.694 59.9247L272.855 64.7691C272.43 64.56 271.946 64.4086 271.434 64.4086C269.768 64.4086 268.405 65.7711 268.405 67.4364C268.405 69.1017 269.768 70.4641 271.434 70.4641C273.1 70.4641 274.463 69.1017 274.463 67.4364C274.463 66.9246 274.341 66.4704 274.132 66.0451L278.971 61.2007L280.543 61.3809L283.875 58.0503L281.149 57.7476V57.7404Z" fill="white"/>
<path d="M281.394 62.2243L280.997 62.6497L280.42 62.592L279.786 62.4983C280.629 63.9545 281.149 65.6197 281.149 67.4364C281.149 72.771 276.793 77.1324 271.463 77.1324C266.134 77.1324 261.778 72.771 261.778 67.4364C261.778 62.1018 266.134 57.7404 271.463 57.7404C273.252 57.7404 274.939 58.2234 276.396 59.1029L276.338 58.4973L276.245 57.8917L276.67 57.4664L276.879 57.2574C275.242 56.4067 273.432 55.9237 271.463 55.9237C265.109 55.9237 259.967 61.0709 259.967 67.4364C259.967 73.8019 265.109 78.9491 271.463 78.9491C277.817 78.9491 282.959 73.8019 282.959 67.4364C282.959 65.4684 282.476 63.6517 281.596 62.0441L281.387 62.2243H281.394Z" fill="white"/>
<path d="M276.519 65.3746C276.793 66.009 276.915 66.7083 276.915 67.4364C276.915 70.4353 274.463 72.8864 271.47 72.8864C268.477 72.8864 266.025 70.4353 266.025 67.4364C266.025 64.4375 268.477 61.9864 271.47 61.9864C272.199 61.9864 272.891 62.1378 273.526 62.3829L274.889 61.0204C273.857 60.4726 272.711 60.1698 271.47 60.1698C267.475 60.1698 264.208 63.4426 264.208 67.4436C264.208 71.4446 267.475 74.7174 271.47 74.7174C275.466 74.7174 278.733 71.4446 278.733 67.4436C278.733 66.2037 278.43 65.0502 277.889 64.0193L276.526 65.3818L276.519 65.3746Z" fill="white"/>
</g>
</g>
<mask id="mask3_1_156" style="mask-type:luminance" maskUnits="userSpaceOnUse" x="323" y="127" width="30" height="30">
<mask id="mask4_1_156" style="mask-type:luminance" maskUnits="userSpaceOnUse" x="323" y="127" width="30" height="30">
<path d="M323.317 156.503H352.763V127.069H323.317V156.503Z" fill="white"/>
</mask>
<g mask="url(#mask4_1_156)">
<path d="M323.317 127.069H352.763V156.503H323.317V127.069Z" fill="white"/>
</g>
</mask>
<g mask="url(#mask3_1_156)">
<mask id="mask5_1_156" style="mask-type:luminance" maskUnits="userSpaceOnUse" x="323" y="127" width="30" height="30">
<path d="M323.317 156.503H352.763V127.069H323.317V156.503Z" fill="white"/>
</mask>
<g mask="url(#mask5_1_156)">
<path d="M339.68 129.498C339.68 130.003 339.276 130.407 338.772 130.407C338.267 130.407 337.863 130.003 337.863 129.498C337.863 128.994 338.267 128.59 338.772 128.59C339.276 128.59 339.68 128.994 339.68 129.498Z" fill="white"/>
<path d="M341.202 132.223C341.202 132.728 340.798 133.132 340.293 133.132C339.788 133.132 339.385 132.728 339.385 132.223C339.385 131.719 339.788 131.315 340.293 131.315C340.798 131.315 341.202 131.719 341.202 132.223Z" fill="white"/>
<path d="M337.863 131.618C337.863 132.122 337.459 132.526 336.954 132.526C336.449 132.526 336.046 132.122 336.046 131.618C336.046 131.113 336.449 130.709 336.954 130.709C337.459 130.709 337.863 131.113 337.863 131.618Z" fill="white"/>
<path d="M338.772 134.948C338.772 135.619 338.231 136.159 337.56 136.159C336.889 136.159 336.348 135.619 336.348 134.948C336.348 134.278 336.889 133.737 337.56 133.737C338.231 133.737 338.772 134.278 338.772 134.948Z" fill="white"/>
<path d="M344.08 152.697L340.596 144.817V139.483C340.596 138.394 341.476 137.94 341.505 137.904C341.808 137.752 341.93 137.392 341.779 137.089C341.656 136.88 341.447 136.758 341.202 136.758H335.144C334.899 136.758 334.69 136.88 334.567 137.089C334.416 137.392 334.538 137.752 334.841 137.904C334.841 137.904 335.75 138.387 335.75 139.483V144.817L332.266 152.697C332.021 153.273 332.086 153.908 332.418 154.427C332.75 154.939 333.327 155.241 333.932 155.241H342.421C343.027 155.241 343.604 154.939 343.935 154.427C344.267 153.915 344.332 153.273 344.087 152.697H344.08ZM339.385 139.49V140.701H336.961V139.49C336.961 138.855 336.781 138.372 336.565 137.976H339.81C339.565 138.372 339.385 138.855 339.385 139.49Z" fill="white"/>
</g>
</g>
<mask id="mask6_1_156" style="mask-type:luminance" maskUnits="userSpaceOnUse" x="332" y="237" width="30" height="30">
<mask id="mask7_1_156" style="mask-type:luminance" maskUnits="userSpaceOnUse" x="332" y="237" width="30" height="30">
<path d="M332.18 266.915H361.568V237.488H332.18V266.915Z" fill="white"/>
</mask>
<g mask="url(#mask7_1_156)">
<path d="M332.18 237.488H361.568V266.915H332.18V237.488Z" fill="white"/>
</g>
</mask>
<g mask="url(#mask6_1_156)">
<mask id="mask8_1_156" style="mask-type:luminance" maskUnits="userSpaceOnUse" x="332" y="237" width="30" height="30">
<path d="M332.18 266.915H361.568V237.488H332.18V266.915Z" fill="white"/>
</mask>
<g mask="url(#mask8_1_156)">
<path d="M348.724 252.331C348.724 253.333 347.909 254.148 346.907 254.148C345.904 254.148 345.089 253.333 345.089 252.331C345.089 251.329 345.904 250.515 346.907 250.515C347.909 250.515 348.724 251.329 348.724 252.331Z" fill="white"/>
<path d="M357.566 246.269C357.054 245.389 355.9 244.964 354.328 244.964C353.332 244.964 352.178 245.144 350.909 245.476C350.029 242.297 348.58 240.206 346.914 240.206C345.248 240.206 343.798 242.268 342.947 245.418C341.736 245.115 340.647 244.935 339.68 244.935C338.108 244.935 336.954 245.36 336.442 246.24C335.598 247.696 336.716 250.025 339.046 252.389C336.81 254.689 335.779 256.931 336.594 258.358C337.106 259.238 338.26 259.663 339.832 259.663C340.74 259.663 341.801 259.512 342.947 259.238C343.827 262.388 345.277 264.45 346.914 264.45C348.551 264.45 350.029 262.388 350.88 259.238C352.092 259.54 353.181 259.721 354.147 259.721C355.72 259.721 356.873 259.295 357.385 258.416C358.2 256.988 357.176 254.754 354.933 252.447C357.321 250.053 358.41 247.718 357.566 246.269ZM354.328 246.175C355.445 246.175 356.268 246.449 356.506 246.874C356.96 247.66 356.145 249.513 354.082 251.567C353.354 250.904 352.539 250.234 351.63 249.599C351.537 248.568 351.385 247.566 351.176 246.629C352.323 246.326 353.412 246.175 354.32 246.175H354.328ZM348.911 255.475C348.277 255.835 347.642 256.174 347.008 256.477C346.373 256.174 345.738 255.842 345.104 255.475C344.498 255.114 343.892 254.746 343.351 254.386C343.293 253.723 343.293 253.052 343.293 252.324C343.293 251.661 343.322 251.019 343.351 250.385C343.957 249.96 344.592 249.57 345.291 249.174C345.868 248.842 346.438 248.54 347.015 248.266C347.592 248.54 348.161 248.842 348.738 249.174C349.344 249.534 349.95 249.902 350.491 250.262C350.549 250.926 350.549 251.596 350.549 252.324C350.549 253.052 350.52 253.809 350.455 254.509C349.972 254.84 349.46 255.143 348.911 255.475ZM350.303 256.051C350.21 256.628 350.123 257.205 350.029 257.717C349.517 257.536 348.969 257.356 348.428 257.111C348.789 256.931 349.157 256.714 349.517 256.505C349.791 256.354 350.065 256.203 350.303 256.051ZM345.58 257.111C344.974 257.356 344.397 257.565 343.827 257.745C343.705 257.169 343.618 256.563 343.524 255.929C343.856 256.138 344.159 256.325 344.519 256.534C344.851 256.714 345.212 256.931 345.58 257.111ZM342.103 253.478C341.62 253.117 341.195 252.75 340.805 252.389C341.202 252.029 341.649 251.661 342.103 251.301C342.103 251.632 342.075 251.964 342.075 252.331C342.075 252.728 342.075 253.117 342.103 253.485V253.478ZM343.495 248.842C343.589 248.179 343.676 247.537 343.798 246.932C344.375 247.112 344.981 247.357 345.587 247.595C345.284 247.747 344.952 247.927 344.649 248.107C344.289 248.352 343.892 248.59 343.503 248.835L343.495 248.842ZM348.399 247.602C348.948 247.357 349.488 247.177 350.037 246.997C350.159 247.545 350.246 248.114 350.339 248.727C350.008 248.518 349.705 248.33 349.344 248.121C349.041 247.97 348.738 247.79 348.407 247.61L348.399 247.602ZM351.731 251.178C352.279 251.603 352.763 251.993 353.217 252.418C352.763 252.814 352.279 253.233 351.731 253.629C351.76 253.204 351.76 252.778 351.76 252.36C351.76 251.942 351.76 251.546 351.731 251.178ZM346.921 241.424C347.83 241.424 349.005 243.032 349.762 245.815C348.883 246.117 347.945 246.478 347.008 246.903C346.012 246.449 345.039 246.052 344.101 245.75C344.858 242.996 346.005 241.417 346.914 241.417L346.921 241.424ZM337.481 246.874C337.755 246.42 338.541 246.175 339.659 246.175C340.538 246.175 341.534 246.326 342.623 246.6C342.414 247.566 342.262 248.633 342.168 249.722C341.325 250.327 340.567 250.933 339.897 251.567C337.87 249.506 337.019 247.66 337.473 246.874H337.481ZM339.839 258.473C338.721 258.473 337.899 258.2 337.661 257.774C337.207 256.988 337.993 255.229 339.933 253.233C340.625 253.838 341.382 254.444 342.204 255.049C342.298 256.109 342.45 257.14 342.659 258.077C341.664 258.351 340.69 258.473 339.846 258.473H339.839ZM346.921 263.231C346.012 263.231 344.866 261.653 344.108 258.928C345.046 258.625 346.012 258.264 347.015 257.81C347.952 258.236 348.861 258.596 349.741 258.87C348.984 261.66 347.837 263.231 346.928 263.231H346.921ZM356.361 257.781C356.087 258.236 355.301 258.481 354.183 258.481C353.304 258.481 352.279 258.329 351.219 258.055C351.4 257.147 351.551 256.21 351.645 255.179C352.553 254.545 353.368 253.91 354.097 253.24C356.037 255.237 356.823 256.996 356.369 257.781H356.361Z" fill="white"/>
</g>
</g>
<mask id="mask9_1_156" style="mask-type:luminance" maskUnits="userSpaceOnUse" x="17" y="134" width="30" height="30">
<mask id="mask10_1_156" style="mask-type:luminance" maskUnits="userSpaceOnUse" x="17" y="134" width="30" height="30">
<path d="M17.0496 163.64H46.4885V134.206H17.0496V163.64Z" fill="white"/>
</mask>
<g mask="url(#mask10_1_156)">
<path d="M17.0496 134.206H46.4885V163.64H17.0496V134.206Z" fill="white"/>
</g>
</mask>
<g mask="url(#mask9_1_156)">
<mask id="mask11_1_156" style="mask-type:luminance" maskUnits="userSpaceOnUse" x="17" y="134" width="30" height="30">
<path d="M17.0496 163.64H46.4885V134.206H17.0496V163.64Z" fill="white"/>
</mask>
<g mask="url(#mask11_1_156)">
<path d="M31.8988 137.543C25.538 137.543 20.3815 142.691 20.3815 149.056C20.3815 155.422 25.5308 160.569 31.8988 160.569C38.2669 160.569 43.4162 155.422 43.4162 149.056C43.4162 142.691 38.2669 137.543 31.8988 137.543ZM21.5931 149.056C21.5931 146.36 22.6244 143.938 24.3192 142.085C24.5932 142.236 24.8673 142.482 24.925 142.691V144.601C24.925 144.724 24.9538 144.875 25.0476 144.961L27.0452 147.535L27.1967 147.384C27.2904 147.29 27.3193 147.138 27.2544 147.023L26.8938 146.418C26.7423 146.173 26.9876 145.87 27.2544 145.963C27.3481 145.992 27.4058 146.057 27.4347 146.115L28.4371 148.083C28.5597 148.292 28.74 148.479 28.9492 148.537L30.2834 148.991C30.3771 149.02 30.4348 149.085 30.4637 149.143L30.5574 149.294C30.6512 149.503 30.8603 149.626 31.1055 149.626H31.4661C31.5599 149.626 31.6464 149.683 31.7113 149.748L32.108 150.325C32.2017 150.447 32.3171 150.534 32.4686 150.57L33.1032 150.721C33.2835 150.75 33.3773 150.966 33.3124 151.118C33.3124 151.118 32.8292 151.601 32.8292 152.3C32.8292 154.297 34.6466 154.874 34.6466 155.328C34.6466 156.568 34.4663 158.298 34.3725 158.961C33.5864 159.141 32.7643 159.264 31.9205 159.264C26.2231 159.358 21.5859 154.722 21.5859 149.056H21.5931ZM35.7788 158.601C36.4423 158.024 37.5674 157.058 37.964 156.633C38.4761 156.056 38.5698 155.119 38.5698 155.119C38.5698 155.119 40.6901 154.542 40.6901 152.999C40.6901 151.94 38.5698 151.485 38.5698 151.485C38.2092 150.303 36.4207 149.669 34.9351 149.669C34.6033 149.669 33.4206 150.274 33.4206 150.274L32.8148 149.972V149.063C32.8148 148.883 32.6922 148.761 32.5119 148.761H31.9061V147.852C31.9061 147.672 31.7835 147.549 31.6032 147.549H31.3003L30.9685 147.758C30.6656 147.968 30.2401 147.852 30.0887 147.513C30.0887 147.513 29.7858 147.088 29.7858 146.908C29.7858 145.603 31.3003 145.697 31.3003 145.697H31.9637C32.1152 145.697 32.2378 145.79 32.2666 145.942L32.4469 146.699C32.4758 146.821 32.5984 146.944 32.7498 146.944H32.8725C33.0239 146.944 33.1465 146.85 33.1754 146.699L33.3845 145.581C33.4133 145.488 33.4422 145.401 33.5071 145.307L34.3581 144.248C34.5384 144.039 34.7836 143.916 35.0577 143.916H35.8437C36.024 143.916 36.1466 143.794 36.1466 143.613V143.311L36.0529 143.217C35.8726 143.037 35.9952 142.705 36.262 142.705H36.4423C36.6226 142.705 36.7452 142.828 36.7452 143.008C36.7452 143.188 36.8678 143.311 37.0481 143.311H37.351L37.5313 142.525C37.589 142.251 37.4736 142.013 37.2573 141.862L34.6826 140.319C34.6826 140.319 34.5889 140.29 34.5312 140.29H34.0191C33.6874 140.29 33.4133 140.564 33.4133 140.896V141.198C33.4133 141.379 33.2907 141.501 33.1104 141.501H32.8075L32.5046 141.198H31.5959C31.4157 141.198 31.293 141.076 31.293 140.896V140.139C31.293 140.045 31.3219 139.958 31.4157 139.894L33.3556 139.079L33.6585 139.591C33.7162 139.648 33.7811 139.684 33.8677 139.684H34.6249C34.8052 139.684 34.9278 139.562 34.9278 139.382V139.23C39.1396 140.535 42.1974 144.442 42.1974 149.078C42.1974 153.381 39.529 157.072 35.7716 158.622L35.7788 158.601Z" fill="white"/>
<path d="M35.6274 147.78L34.1706 147.297C34.048 147.268 33.9615 147.268 33.8389 147.297L32.8076 147.542C32.7138 147.6 32.685 147.722 32.8076 147.845H34.1995C34.2932 147.845 34.3509 147.845 34.4086 147.874L35.4688 148.299C35.649 148.357 35.8293 148.241 35.8293 148.054C35.8293 147.931 35.7356 147.809 35.6202 147.78H35.6274Z" fill="white"/>
</g>
</g>
<mask id="mask12_1_156" style="mask-type:luminance" maskUnits="userSpaceOnUse" x="11" y="240" width="30" height="30">
<mask id="mask13_1_156" style="mask-type:luminance" maskUnits="userSpaceOnUse" x="11" y="240" width="30" height="30">
<path d="M11.4243 269.835H40.8632V240.408H11.4243V269.835Z" fill="white"/>
</mask>
<g mask="url(#mask13_1_156)">
<path d="M11.4243 240.408H40.8632V269.835H11.4243V240.408Z" fill="white"/>
</g>
</mask>
<g mask="url(#mask12_1_156)">
<mask id="mask14_1_156" style="mask-type:luminance" maskUnits="userSpaceOnUse" x="11" y="240" width="30" height="30">
<path d="M11.4243 269.835H40.8632V240.408H11.4243V269.835Z" fill="white"/>
</mask>
<g mask="url(#mask14_1_156)">
<path d="M26.8794 250.702C26.8794 251.034 26.6053 251.308 26.2736 251.308C25.9418 251.308 25.6678 251.034 25.6678 250.702C25.6678 250.371 25.9418 250.097 26.2736 250.097C26.6053 250.097 26.8794 250.371 26.8794 250.702Z" fill="white"/>
<path d="M26.8794 262.82C26.8794 263.152 26.6053 263.426 26.2736 263.426C25.9418 263.426 25.6678 263.152 25.6678 262.82C25.6678 262.489 25.9418 262.215 26.2736 262.215C26.6053 262.215 26.8794 262.489 26.8794 262.82Z" fill="white"/>
<path d="M32.9374 256.462C32.9374 256.794 32.6633 257.068 32.3316 257.068C31.9998 257.068 31.7258 256.794 31.7258 256.462C31.7258 256.131 31.9998 255.857 32.3316 255.857C32.6633 255.857 32.9374 256.131 32.9374 256.462Z" fill="white"/>
<path d="M20.8142 256.462C20.8142 256.794 20.5401 257.068 20.2084 257.068C19.8767 257.068 19.6026 256.794 19.6026 256.462C19.6026 256.131 19.8767 255.857 20.2084 255.857C20.5401 255.857 20.8142 256.131 20.8142 256.462Z" fill="white"/>
<path d="M26.8794 252.216H25.6678V256.455C25.6678 256.606 25.7255 256.758 25.8481 256.88L28.8482 259.879L29.6992 259.029L26.8794 256.21V252.209V252.216Z" fill="white"/>
<path d="M26.2736 265.243C21.5787 265.243 17.7852 261.458 17.7852 256.758C17.7852 252.058 21.5714 248.273 26.2736 248.273C30.9757 248.273 34.762 252.058 34.762 256.758C34.762 261.458 30.9757 265.243 26.2736 265.243ZM33.4566 249.369L34.3653 248.46C34.6971 248.1 34.6971 247.552 34.3365 247.191C34.0047 246.86 33.4278 246.831 33.0672 247.163L32.0359 248.222C30.5791 247.256 28.9131 246.644 27.1895 246.528V245.259H29.9156V243.443H22.646V245.259H25.3721V246.499C20.5546 246.925 16.6746 250.652 16.0688 255.467C15.463 260.283 18.2828 264.861 22.8552 266.461C27.4347 268.069 32.4902 266.31 35.0649 262.186C37.6395 258.063 36.9111 252.735 33.4566 249.369Z" fill="white"/>
</g>
</g>
<mask id="mask15_1_156" style="mask-type:luminance" maskUnits="userSpaceOnUse" x="78" y="55" width="30" height="30">
<mask id="mask16_1_156" style="mask-type:luminance" maskUnits="userSpaceOnUse" x="78" y="55" width="30" height="30">
<path d="M78.3578 84.983H107.797V55.5993H78.3578V84.983Z" fill="white"/>
</mask>
<g mask="url(#mask16_1_156)">
<path d="M78.3578 55.5993H107.797V84.983H78.3578V55.5993Z" fill="white"/>
</g>
</mask>
<g mask="url(#mask15_1_156)">
<mask id="mask17_1_156" style="mask-type:luminance" maskUnits="userSpaceOnUse" x="78" y="55" width="30" height="30">
<path d="M78.3578 84.983H107.797V55.5993H78.3578V84.983Z" fill="white"/>
</mask>
<g mask="url(#mask17_1_156)">
<path d="M105.273 61.6476H85.8798C85.2163 61.6476 84.6682 62.1955 84.6682 62.8587V67.2418C85 67.148 85.3966 67.0904 85.7572 67.0904C86.0024 67.0904 86.2404 67.1192 86.4856 67.148V63.4571H104.667V74.9481H94.3898L92.659 76.7648H105.265C105.929 76.7648 106.477 76.2169 106.477 75.5537V62.8515C106.477 62.1883 105.929 61.6404 105.265 61.6404" fill="white"/>
<path d="M85.786 73.4415C87.2068 73.4415 88.3607 72.2952 88.3607 70.8679C88.3607 69.4405 87.2068 68.2943 85.786 68.2943C84.3653 68.2943 83.2114 69.4405 83.2114 70.8679C83.1825 72.288 84.3653 73.4415 85.786 73.4415Z" fill="white"/>
<path d="M95.6952 70.4497C95.2985 69.8442 94.5124 69.6928 93.9066 70.0533C93.784 70.1109 93.7263 70.2335 93.6614 70.2984L89.2333 74.8977C88.8078 74.6886 88.3535 74.5012 87.8991 74.3498C87.1996 74.2272 86.4784 74.0758 85.7788 74.0758C85.0793 74.0758 84.3581 74.1984 83.6585 74.4074C82.6272 74.6814 81.7185 75.1932 80.9613 75.8276C80.781 76.0078 80.6295 76.2818 80.5646 76.5269L79.93 79.187H88.9881V79.1581L91.5627 76.1664L95.5293 71.9924C95.8899 71.632 96.0125 70.9327 95.6807 70.4497" fill="white"/>
</g>
</g>
<path d="M264.965 43.0197C264.965 45.5212 261.734 47.5469 257.739 47.5469C257.4 47.5469 257.061 47.5325 256.736 47.5037C255.554 48.0588 254.032 48.3904 252.373 48.3904C250.21 48.3904 248.284 47.8281 247.029 46.9414C247.289 46.7683 247.534 46.5809 247.758 46.3791C247.181 46.3142 246.625 46.2061 246.099 46.0619C246.344 46.3791 246.654 46.6746 247.036 46.9342C245.702 47.8353 243.906 48.3832 241.93 48.3832C239.954 48.3832 238.151 47.8353 236.817 46.927C235.043 47.8064 232.144 48.3832 228.884 48.3832C224.232 48.3832 220.338 47.2225 219.343 45.6654C218.932 45.7231 218.506 45.7519 218.059 45.7519C215.109 45.7519 212.722 44.4182 212.722 42.7674C212.722 41.1165 215.117 39.7829 218.059 39.7829C218.117 39.7829 218.167 39.7829 218.225 39.7829C219.812 38.1537 223.742 37.0074 228.343 37.0074C229.584 37.0074 230.774 37.0939 231.877 37.2453C231.877 37.166 231.877 37.0867 231.877 37.0074C231.877 33.5976 235.101 30.8366 239.082 30.8366C242.392 30.8366 245.176 32.7469 246.02 35.3422C246.95 35.0826 247.967 34.9385 249.027 34.9385C252.453 34.9385 255.373 36.4307 256.578 38.5429C256.96 38.4997 257.349 38.4781 257.753 38.4781C261.741 38.4781 264.98 40.5038 264.98 43.0053L264.965 43.0197Z" fill="url(#paint3_linear_1_156)"/>
<path d="M229.36 30.5122C229.36 32.1053 227.298 33.3957 224.759 33.3957C224.543 33.3957 224.326 33.3885 224.117 33.3669C223.36 33.7202 222.393 33.9292 221.333 33.9292C219.956 33.9292 218.723 33.5688 217.929 33.0065C218.095 32.8983 218.254 32.7758 218.391 32.646C218.023 32.6028 217.67 32.5379 217.331 32.4442C217.482 32.646 217.684 32.8334 217.929 32.9993C217.078 33.5688 215.932 33.922 214.677 33.922C213.422 33.922 212.268 33.5688 211.417 32.9993C210.285 33.5616 208.438 33.922 206.361 33.922C203.397 33.922 200.916 33.1795 200.282 32.1919C200.022 32.2279 199.748 32.2495 199.467 32.2495C197.592 32.2495 196.063 31.3989 196.063 30.3464C196.063 29.2939 197.585 28.4432 199.467 28.4432C199.503 28.4432 199.539 28.4432 199.568 28.4432C200.578 27.4051 203.087 26.6698 206.015 26.6698C206.801 26.6698 207.559 26.7203 208.265 26.8212C208.265 26.7707 208.265 26.7203 208.265 26.6698C208.265 24.4999 210.321 22.7409 212.859 22.7409C214.965 22.7409 216.747 23.9592 217.28 25.6101C217.872 25.4443 218.521 25.3506 219.199 25.3506C221.377 25.3506 223.244 26.3021 224.009 27.6502C224.254 27.6214 224.499 27.6142 224.759 27.6142C227.298 27.6142 229.36 28.9046 229.36 30.4978V30.5122Z" fill="url(#paint4_linear_1_156)"/>
<path d="M162.708 52.5716C162.708 54.9721 160.415 56.9186 157.58 56.9186C157.335 56.9186 157.097 56.9041 156.866 56.8753C156.023 57.4088 154.948 57.7259 153.765 57.7259C152.229 57.7259 150.859 57.1853 149.972 56.3346C150.159 56.1688 150.332 55.9886 150.484 55.794C150.073 55.7363 149.683 55.6281 149.308 55.4912C149.481 55.7939 149.705 56.0751 149.972 56.3346C149.027 57.1997 147.751 57.7259 146.351 57.7259C144.952 57.7259 143.669 57.1997 142.724 56.3274C141.462 57.1709 139.414 57.7259 137.091 57.7259C133.788 57.7259 131.026 56.6086 130.327 55.1163C130.038 55.1668 129.728 55.2028 129.418 55.2028C127.326 55.2028 125.632 53.9196 125.632 52.3409C125.632 50.7621 127.326 49.4717 129.418 49.4717C129.454 49.4717 129.497 49.4717 129.533 49.4717C130.658 47.9074 133.449 46.8044 136.716 46.8044C137.596 46.8044 138.44 46.8837 139.226 47.0351C139.226 46.963 139.226 46.8837 139.226 46.8044C139.226 43.5315 141.512 40.8786 144.339 40.8786C146.683 40.8786 148.666 42.7097 149.265 45.204C149.921 44.9517 150.642 44.8147 151.4 44.8147C153.83 44.8147 155.907 46.2493 156.758 48.2822C157.032 48.239 157.306 48.2246 157.595 48.2246C160.422 48.2246 162.722 50.171 162.722 52.5716H162.708Z" fill="url(#paint5_linear_1_156)"/>
<path d="M135.382 151.997L135.411 152.012C135.411 152.012 135.469 151.961 135.505 151.925L135.382 151.997ZM131.069 153.396C122.718 162.176 116.393 172.896 112.831 184.805L114.468 186.622C117.893 174.475 124.254 163.56 132.728 154.686L131.069 153.396ZM158.157 134.818C156.989 135.294 155.835 135.806 154.696 136.339C149.813 138.632 145.205 141.407 140.928 144.615L143.798 145.12C147.541 142.453 151.537 140.124 155.748 138.163C156.888 137.623 158.042 137.118 159.217 136.649L158.157 134.818ZM220.086 135.777C218.932 135.258 217.771 134.775 216.588 134.314L215.528 136.152C216.711 136.599 217.879 137.089 219.033 137.608C224.009 139.814 228.704 142.539 233.045 145.718L235.267 144.767C230.586 141.227 225.502 138.199 220.086 135.777ZM135.382 151.997L135.411 152.012C135.411 152.012 135.469 151.961 135.505 151.925L135.382 151.997ZM135.382 151.997L135.411 152.012C135.411 152.012 135.469 151.961 135.505 151.925L135.382 151.997ZM135.382 151.997L135.411 152.012C135.411 152.012 135.469 151.961 135.505 151.925L135.382 151.997ZM244.354 152.805L242.695 154.095C256.123 167.857 264.395 186.665 264.395 207.398C264.395 208.89 264.352 210.368 264.266 211.839L266.415 210.642C266.465 209.568 266.487 208.487 266.487 207.398C266.487 186.182 258.056 166.927 244.354 152.805ZM135.382 151.997L135.411 152.012C135.411 152.012 135.469 151.961 135.505 151.925L135.382 151.997ZM135.382 151.997L135.411 152.012C135.411 152.012 135.469 151.961 135.505 151.925L135.382 151.997ZM135.382 151.997L135.411 152.012C135.411 152.012 135.469 151.961 135.505 151.925L135.382 151.997ZM135.382 151.997L135.411 152.012C135.411 152.012 135.469 151.961 135.505 151.925L135.382 151.997ZM135.382 151.997L135.411 152.012C135.411 152.012 135.469 151.961 135.505 151.925L135.382 151.997Z" fill="white"/>
<path d="M133.509 102.988L130.225 104.856C129.186 105.446 128.823 106.766 129.414 107.805L140.713 127.663C141.304 128.701 142.624 129.064 143.663 128.473L146.948 126.606C147.987 126.015 148.35 124.695 147.759 123.656L136.46 103.799C135.869 102.76 134.548 102.397 133.509 102.988Z" fill="#5CE5FF"/>
<path d="M89.7589 147.695L87.8483 150.954C87.2442 151.985 87.5902 153.31 88.6211 153.914L108.339 165.464C109.37 166.068 110.696 165.722 111.3 164.691L113.211 161.432C113.815 160.402 113.469 159.077 112.438 158.473L92.7195 146.923C91.6885 146.319 90.363 146.665 89.7589 147.695Z" fill="#5CE5FF"/>
<path d="M84.6249 199.079L75.5379 207.095C74.5138 206.915 73.735 206.014 73.7422 204.947L73.7638 201.17C73.7638 199.98 74.7518 199.014 75.9418 199.021L84.6249 199.079Z" fill="#5CE5FF"/>
<path d="M275.821 206.081L275.796 209.858C275.789 211.053 276.751 212.027 277.946 212.035L300.8 212.183C301.995 212.19 302.97 211.228 302.977 210.034L303.002 206.256C303.009 205.062 302.047 204.088 300.852 204.08L277.998 203.932C276.803 203.925 275.829 204.887 275.821 206.081Z" fill="#5CE5FF"/>
<path d="M263.398 162.368L265.266 165.651C265.857 166.689 267.178 167.052 268.217 166.462L288.083 155.167C289.121 154.577 289.484 153.256 288.894 152.218L287.025 148.934C286.434 147.896 285.114 147.533 284.075 148.124L264.209 159.418C263.17 160.009 262.807 161.329 263.398 162.368Z" fill="#5CE5FF"/>
<path d="M231.492 127.112L234.752 129.021C235.783 129.625 237.109 129.279 237.713 128.249L249.268 108.539C249.872 107.508 249.526 106.183 248.495 105.579L245.234 103.669C244.203 103.066 242.878 103.411 242.274 104.442L230.719 124.152C230.115 125.183 230.461 126.508 231.492 127.112Z" fill="#5CE5FF"/>
<path d="M112.276 124.337L112.058 124.547C111.872 124.726 111.866 125.023 112.046 125.209L124.624 138.252C124.804 138.438 125.101 138.444 125.287 138.264L125.505 138.054C125.692 137.874 125.697 137.578 125.517 137.391L112.939 124.349C112.759 124.162 112.463 124.157 112.276 124.337Z" fill="#009ED4"/>
<path d="M82.7657 173.192L82.6819 173.483C82.6103 173.732 82.754 173.991 83.0028 174.063L100.42 179.072C100.669 179.143 100.928 179 101 178.751L101.084 178.46C101.155 178.211 101.012 177.952 100.763 177.88L83.3458 172.871C83.097 172.8 82.8372 172.943 82.7657 173.192Z" fill="#009ED4"/>
<path d="M276.538 185.266L276.611 185.56C276.674 185.811 276.928 185.964 277.179 185.902L294.768 181.535C295.019 181.472 295.172 181.218 295.11 180.967L295.037 180.673C294.975 180.422 294.72 180.269 294.469 180.331L276.88 184.699C276.629 184.761 276.476 185.015 276.538 185.266Z" fill="#009ED4"/>
<path d="M254.327 140.382L254.537 140.6C254.717 140.786 255.014 140.792 255.2 140.612L268.248 128.039C268.434 127.859 268.44 127.563 268.26 127.376L268.05 127.158C267.87 126.972 267.574 126.967 267.387 127.146L254.339 139.719C254.153 139.899 254.147 140.196 254.327 140.382Z" fill="#009ED4"/>
<path d="M317.799 305.36L290.683 305.245C287.012 308.208 283.204 311.005 279.281 313.636L309.124 313.622C277.081 342.169 234.841 359.514 188.541 359.514C142.241 359.514 100.13 342.22 68.1097 313.752L97.9453 313.737C93.5821 310.81 89.3703 307.689 85.3172 304.373L58.2078 304.257L44.3033 304.2C47.1808 307.487 50.1665 310.673 53.2532 313.759C87.8991 348.333 135.721 369.708 188.541 369.708C241.361 369.708 289.32 348.268 323.973 313.615C326.627 310.962 329.201 308.23 331.697 305.425L317.799 305.36Z" fill="white"/>
<path d="M265.045 353.783C241.591 364.027 215.686 369.708 188.462 369.708C161.237 369.708 134.646 363.875 110.948 353.379L114.41 343.755C137.019 353.884 162.08 359.514 188.462 359.514C214.843 359.514 239.219 354.035 261.583 344.173L265.045 353.783Z" fill="#009FE3"/>
<path d="M187.863 188.114C184.704 188.114 182.144 190.673 182.144 193.831V222.119H194.036V193.831C194.036 190.673 191.476 188.114 188.317 188.114H187.863Z" fill="#5CE5FF"/>
<path d="M139.897 218.666H70.2877C70.9007 227.425 72.5089 235.917 75.0114 244.048H139.897V218.666ZM85.1369 238.497C85.1369 239.961 83.9398 241.165 82.4757 241.165H81.2353C79.7713 241.165 78.5669 239.961 78.5669 238.497V225.413C78.5669 223.943 79.7713 222.746 81.2353 222.746H82.4757C83.9398 222.746 85.1369 223.943 85.1369 225.413V238.497ZM97.7505 238.497C97.7505 239.961 96.5461 241.165 95.0821 241.165H93.8417C92.3777 241.165 91.1733 239.961 91.1733 238.497V225.413C91.1733 223.943 92.3777 222.746 93.8417 222.746H95.0821C96.5461 222.746 97.7505 223.943 97.7505 225.413V238.497ZM110.357 238.497C110.357 239.961 109.152 241.165 107.688 241.165H106.448C104.984 241.165 103.78 239.961 103.78 238.497V225.413C103.78 223.943 104.984 222.746 106.448 222.746H107.688C109.152 222.746 110.357 223.943 110.357 225.413V238.497ZM122.963 238.497C122.963 239.961 121.759 241.165 120.295 241.165H119.054C117.59 241.165 116.393 239.961 116.393 238.497V225.413C116.393 223.943 117.59 222.746 119.054 222.746H120.295C121.759 222.746 122.963 223.943 122.963 225.413V238.497ZM135.57 238.497C135.57 239.961 134.372 241.165 132.901 241.165H131.668C130.197 241.165 129 239.961 129 238.497V225.413C129 223.943 130.197 222.746 131.668 222.746H132.901C134.372 222.746 135.57 223.943 135.57 225.413V238.497Z" fill="#009FE3"/>
<path d="M82.3604 204.738L70.1579 216.092H140.034L127.831 204.738H82.3604Z" fill="#009FE3"/>
<path d="M251.645 225.55C250.916 225.55 250.318 226.149 250.318 226.877V230.979H283.428V226.877C283.428 226.149 282.836 225.55 282.101 225.55H280.11L268.102 214.369C267.41 213.72 266.343 213.72 265.65 214.369L253.643 225.55H251.645ZM266.876 219.156C269.083 219.156 270.872 220.944 270.872 223.15C270.872 224.058 270.576 224.887 270.071 225.55C269.343 226.523 268.182 227.151 266.876 227.151C265.571 227.151 264.41 226.523 263.681 225.55C263.177 224.887 262.881 224.058 262.881 223.15C262.881 220.944 264.67 219.156 266.876 219.156Z" fill="white"/>
<path d="M109.239 185.483C107.335 183.414 104.075 183.414 102.179 185.483L85.9086 203.188H125.502L109.239 185.483ZM105.309 200.852C102.871 200.629 101.075 198.473 101.299 196.044C101.515 193.607 103.671 191.812 106.109 192.029C108.54 192.252 110.342 194.408 110.119 196.837C109.895 199.274 107.746 201.069 105.309 200.852Z" fill="white"/>
<path d="M100.556 288.47V261.544C100.556 258.791 102.784 256.563 105.539 256.563H106.34C109.088 256.563 111.323 258.791 111.323 261.544V298.966C118.139 304.805 125.632 309.888 133.673 314.069V261.544C133.673 258.791 135.909 256.563 138.656 256.563H139.457C139.652 256.563 139.839 256.578 140.027 256.599V246.845H76.2014C81.4012 262.424 89.7814 276.553 100.556 288.47Z" fill="#009FE3"/>
<path d="M218.009 174.569V323.094C222.841 321.811 227.543 320.232 232.101 318.373V174.569H218.009Z" fill="white"/>
<path d="M238.332 169.623C237.755 168.837 236.579 168.837 236.002 169.623L232.562 174.316V189.585H252.965L238.332 169.623ZM237.171 185.814C234.769 185.814 232.822 183.868 232.822 181.467C232.822 179.067 234.769 177.128 237.171 177.128C239.572 177.128 241.512 179.074 241.512 181.467C241.512 183.861 239.565 185.814 237.171 185.814Z" fill="white"/>
<path d="M299.351 246.853H247.974V245.029H294.858L285.086 233.675H248.666L247.974 234.475V224.13C247.974 222.321 249.452 220.836 251.27 220.836C252.171 220.836 253.001 221.21 253.599 221.802C253.96 222.162 254.241 222.616 254.4 223.114V192.432H232.562V195.864C232.836 195.626 233.197 195.482 233.586 195.482H233.608C234.466 195.482 235.173 196.181 235.173 197.046V207.975C235.173 208.833 234.466 209.539 233.608 209.539H233.586C233.197 209.539 232.836 209.388 232.562 209.157V220.864C234.113 221.066 235.317 222.393 235.317 223.993V257.753C235.555 257.681 235.793 257.63 236.038 257.601C236.248 257.565 236.464 257.551 236.687 257.551H237.488C240.243 257.551 242.471 259.778 242.471 262.532V313.535C249.907 309.621 256.873 304.935 263.256 299.586V261.552C263.256 258.798 265.492 256.57 268.247 256.57H269.04C271.795 256.57 274.031 258.798 274.031 261.552V289.357C285.252 277.267 293.971 262.828 299.351 246.853ZM250.058 197.046C250.058 196.181 250.765 195.482 251.623 195.482H251.645C252.51 195.482 253.21 196.181 253.21 197.046V207.975C253.21 208.833 252.51 209.539 251.645 209.539H251.623C250.765 209.539 250.058 208.833 250.058 207.975V197.046ZM241.188 207.975C241.188 208.833 240.481 209.539 239.623 209.539H239.601C238.736 209.539 238.036 208.833 238.036 207.975V197.046C238.036 196.181 238.736 195.482 239.601 195.482H239.623C240.481 195.482 241.188 196.181 241.188 197.046V207.975ZM247.195 207.975C247.195 208.833 246.496 209.539 245.63 209.539H245.609C244.75 209.539 244.044 208.833 244.044 207.975V197.046C244.044 196.181 244.75 195.482 245.609 195.482H245.63C246.496 195.482 247.195 196.181 247.195 197.046V207.975Z" fill="#009FE3"/>
<path d="M162.391 324.558C166.299 325.423 170.28 326.093 174.333 326.555V273.302C174.333 265.502 180.666 259.173 188.469 259.173C192.37 259.173 195.904 260.751 198.464 263.311C201.025 265.87 202.604 269.402 202.604 273.302V326.454C206.34 325.992 210.018 325.358 213.638 324.551V247.689H162.391V324.558Z" fill="#009ED4"/>
<path d="M144.642 319.122C149.207 320.925 153.909 322.453 158.734 323.686V174.633H144.642V319.122Z" fill="white"/>
<path d="M161.814 231.325H165.369V242.909H170.547V231.325H178.762V242.909H183.94V231.325H192.161V242.909H197.339V231.325H205.554V242.909H210.732V231.325H214.85V224.065H161.814V231.325Z" fill="white"/>
<path d="M213.956 221.138V176.4H162.708V221.138H165.34V215.198C165.34 211.911 168.001 209.251 171.283 209.251C172.927 209.251 174.413 209.914 175.487 210.988C176.562 212.069 177.233 213.555 177.233 215.198V221.138H178.747V192.425C178.747 187.141 183.038 182.852 188.332 182.852C190.978 182.852 193.373 183.926 195.111 185.656C196.842 187.393 197.916 189.787 197.916 192.425V221.138H199.431V215.198C199.431 211.911 202.092 209.251 205.381 209.251C207.025 209.251 208.511 209.914 209.585 210.988C210.66 212.069 211.323 213.555 211.323 215.198V221.138H213.956Z" fill="#009ED4"/>
<path d="M227.485 160.554H148.551V172.031H227.485V160.554Z" fill="#009FE3"/>
<path d="M239.954 146.792H136.074L142.745 156.308H233.283L239.954 146.792Z" fill="white"/>
<path d="M203.03 56.3634H173.05V65.663H203.03V56.3634Z" fill="#009FE3"/>
<path d="M169.74 56.3634H166.501V65.663H169.74V56.3634Z" fill="#009ED4"/>
<path d="M209.189 56.3634H205.95V65.663H209.189V56.3634Z" fill="#009ED4"/>
<path d="M199.15 44.3894H176.764V52.968H199.15V44.3894Z" fill="#009FE3"/>
<path d="M173.172 44.3894H170.187V52.968H173.172V44.3894Z" fill="#009ED4"/>
<path d="M205.727 44.3894H202.741V52.968H205.727V44.3894Z" fill="#009ED4"/>
<path d="M210.746 69.0584H165.283L153.08 80.4053H222.949L210.746 69.0584Z" fill="#009FE3"/>
<path d="M203.506 34.9096C203.506 34.1166 202.856 33.4678 202.063 33.4678H200.376L189.421 19.9078C188.635 18.9418 187.156 18.9418 186.377 19.9078L175.422 33.4678H173.735C172.942 33.4678 172.293 34.1166 172.293 34.9096V40.2659H203.506V34.9096ZM188.036 31.1177C185.937 31.1177 184.228 29.4164 184.228 27.3114C184.228 25.2064 185.937 23.5123 188.036 23.5123C190.135 23.5123 191.844 25.2136 191.844 27.3114C191.844 29.4092 190.142 31.1177 188.036 31.1177Z" fill="white"/>
<path d="M214.078 142.546V84.6514H161.943V142.546H182.043V133.975C182.043 130.695 184.711 128.035 187.993 128.035C189.63 128.035 191.116 128.698 192.197 129.772C193.272 130.846 193.935 132.331 193.935 133.975V142.546H214.078ZM178.43 122.837H168.434V96.9354C168.434 94.1744 170.67 91.9324 173.432 91.9324C174.817 91.9324 176.064 92.4947 176.966 93.3958C177.867 94.2969 178.43 95.5513 178.43 96.9354V122.837ZM197.592 96.9354C197.592 94.1744 199.828 91.9324 202.59 91.9324C203.967 91.9324 205.222 92.4947 206.123 93.3958C207.025 94.3041 207.587 95.5513 207.587 96.9354V122.837H197.592V96.9354Z" fill="#009FE3"/>
<path d="M225.48 82.085L222.271 90.3248C272.905 105.182 309.866 151.968 309.866 207.391C309.866 270.051 262.621 321.667 201.789 328.602V329.157L201.897 337.448C267.547 330.433 318.679 274.881 318.679 207.391C318.679 148.234 279.396 98.2546 225.48 82.085ZM65.7731 207.391C65.7731 151.695 103.102 104.721 154.119 90.1085L150.902 81.8615C96.6038 97.7933 56.9601 147.968 56.9601 207.391C56.9601 274.629 107.717 330.022 173.021 337.368L173.281 329.085L173.302 328.53C112.737 321.357 65.7731 269.864 65.7731 207.391Z" fill="white"/>
</g>
<rect x="371" width="911" height="374" fill="#0F1729"/>
<path d="M427.133 245.094C423.305 245.094 420.479 244.296 418.656 242.701C416.833 241.106 415.922 238.554 415.922 235.045V148.229C414.464 148.365 412.641 148.639 410.453 149.049C408.311 149.413 406.055 149.96 403.686 150.689C401.316 151.419 398.946 152.307 396.576 153.355C394.206 154.358 392.087 155.543 390.219 156.91C388.35 158.232 386.824 159.736 385.639 161.422C384.454 163.108 383.861 164.977 383.861 167.027C383.861 168.486 384.044 169.648 384.408 170.514C384.818 171.38 385.274 172.04 385.775 172.496C386.277 172.906 386.778 173.18 387.279 173.316C387.826 173.408 388.214 173.453 388.441 173.453C389.581 173.453 390.515 173.271 391.244 172.906C391.973 172.496 392.634 172.086 393.227 171.676C393.819 171.22 394.366 170.81 394.867 170.445C395.414 170.035 396.029 169.83 396.713 169.83C397.26 169.83 397.829 169.967 398.422 170.24C399.06 170.468 399.63 170.855 400.131 171.402C400.678 171.949 401.133 172.678 401.498 173.59C401.863 174.456 402.045 175.527 402.045 176.803C402.045 178.626 401.68 180.198 400.951 181.52C400.268 182.841 399.356 183.958 398.217 184.869C397.123 185.735 395.847 186.396 394.389 186.852C392.976 187.262 391.563 187.467 390.15 187.467C387.963 187.467 385.98 187.102 384.203 186.373C382.471 185.598 380.99 184.55 379.76 183.229C378.529 181.907 377.595 180.357 376.957 178.58C376.319 176.803 376 174.911 376 172.906C376 167.574 377.458 162.971 380.375 159.098C383.337 155.178 387.37 151.943 392.475 149.391C397.579 146.793 403.526 144.879 410.316 143.648C417.107 142.418 424.376 141.803 432.123 141.803C435.814 141.803 439.415 141.848 442.924 141.939C446.433 141.985 449.623 142.076 452.494 142.213C455.411 142.35 457.917 142.509 460.014 142.691C462.11 142.874 463.637 143.079 464.594 143.307C465.505 143.535 466.234 143.876 466.781 144.332C467.328 144.742 467.738 145.221 468.012 145.768C468.285 146.314 468.467 146.907 468.559 147.545C468.65 148.137 468.695 148.753 468.695 149.391C468.695 149.892 468.627 150.484 468.49 151.168C468.354 151.806 468.148 152.421 467.875 153.014C467.602 153.606 467.26 154.107 466.85 154.518C466.439 154.928 465.938 155.133 465.346 155.133C464.981 155.133 464.594 154.973 464.184 154.654C463.819 154.335 463.295 153.948 462.611 153.492C461.928 153.036 460.993 152.512 459.809 151.92C458.669 151.327 457.143 150.781 455.229 150.279C453.36 149.778 451.036 149.322 448.256 148.912C445.521 148.502 442.195 148.229 438.275 148.092V235.045C438.275 238.554 437.364 241.106 435.541 242.701C433.718 244.296 430.915 245.094 427.133 245.094ZM487.836 237.848C487.836 238.44 487.722 239.169 487.494 240.035C487.312 240.855 486.833 241.653 486.059 242.428C485.329 243.157 484.258 243.772 482.846 244.273C481.433 244.82 479.519 245.094 477.104 245.094C474.688 245.094 472.797 244.798 471.43 244.205C470.062 243.658 469.037 242.997 468.354 242.223C467.67 241.448 467.237 240.65 467.055 239.83C466.918 239.01 466.85 238.349 466.85 237.848V185.074C466.85 183.753 466.531 182.613 465.893 181.656C465.3 180.654 464.275 180.152 462.816 180.152C462.042 180.152 461.381 180.289 460.834 180.562C460.287 180.836 459.695 181.223 459.057 181.725L457.621 180.016C458.669 179.15 459.831 178.307 461.107 177.486C462.429 176.62 463.842 175.868 465.346 175.23C466.85 174.592 468.467 174.068 470.199 173.658C471.931 173.248 473.754 173.043 475.668 173.043C478.63 173.043 480.932 173.453 482.572 174.273C484.213 175.048 485.421 176.028 486.195 177.213C486.97 178.352 487.426 179.583 487.562 180.904C487.745 182.226 487.836 183.388 487.836 184.391V237.848ZM464.73 157.457C464.73 156.181 465.004 154.973 465.551 153.834C466.143 152.649 466.941 151.624 467.943 150.758C468.992 149.892 470.176 149.208 471.498 148.707C472.865 148.206 474.346 147.955 475.941 147.955C477.491 147.955 478.926 148.206 480.248 148.707C481.615 149.208 482.8 149.892 483.803 150.758C484.805 151.624 485.58 152.649 486.127 153.834C486.719 154.973 487.016 156.181 487.016 157.457C487.016 158.779 486.719 160.009 486.127 161.148C485.58 162.288 484.805 163.29 483.803 164.156C482.8 164.977 481.615 165.637 480.248 166.139C478.926 166.64 477.491 166.891 475.941 166.891C474.346 166.891 472.865 166.64 471.498 166.139C470.176 165.637 468.992 164.977 467.943 164.156C466.941 163.29 466.143 162.288 465.551 161.148C465.004 160.009 464.73 158.779 464.73 157.457ZM563.51 237.984C563.51 238.577 563.419 239.283 563.236 240.104C563.054 240.924 562.598 241.699 561.869 242.428C561.186 243.157 560.137 243.772 558.725 244.273C557.312 244.82 555.398 245.094 552.982 245.094C550.567 245.094 548.653 244.798 547.24 244.205C545.873 243.658 544.825 242.997 544.096 242.223C543.412 241.448 542.979 240.65 542.797 239.83C542.615 239.01 542.523 238.349 542.523 237.848V189.518C542.523 188.88 542.432 188.242 542.25 187.604C542.068 186.92 541.794 186.305 541.43 185.758C541.065 185.211 540.609 184.778 540.062 184.459C539.516 184.094 538.878 183.912 538.148 183.912C536.918 183.912 535.71 184.277 534.525 185.006C533.34 185.689 532.224 186.487 531.176 187.398C530.173 188.31 529.285 189.221 528.51 190.133C527.781 191.044 527.257 191.728 526.938 192.184V237.984C526.938 238.577 526.846 239.283 526.664 240.104C526.482 240.924 526.026 241.699 525.297 242.428C524.613 243.157 523.565 243.772 522.152 244.273C520.785 244.82 518.894 245.094 516.479 245.094C514.063 245.094 512.149 244.798 510.736 244.205C509.369 243.658 508.321 242.997 507.592 242.223C506.863 241.448 506.407 240.65 506.225 239.83C506.042 239.01 505.951 238.349 505.951 237.848V185.074C505.951 183.753 505.632 182.613 504.994 181.656C504.402 180.654 503.376 180.152 501.918 180.152C501.143 180.152 500.482 180.289 499.936 180.562C499.389 180.836 498.796 181.223 498.158 181.725L496.723 180.016C497.771 179.15 498.933 178.307 500.209 177.486C501.531 176.62 502.943 175.868 504.447 175.23C505.951 174.592 507.569 174.068 509.301 173.658C511.033 173.248 512.855 173.043 514.77 173.043C517.732 173.043 520.033 173.544 521.674 174.547C523.314 175.504 524.522 176.666 525.297 178.033C526.072 179.4 526.527 180.836 526.664 182.34C526.846 183.798 526.938 185.029 526.938 186.031C529.079 183.616 531.381 181.451 533.842 179.537C534.844 178.717 535.938 177.919 537.123 177.145C538.354 176.37 539.607 175.686 540.883 175.094C542.159 174.456 543.48 173.954 544.848 173.59C546.215 173.225 547.582 173.043 548.949 173.043C551.592 173.043 553.848 173.521 555.717 174.479C557.585 175.436 559.089 176.598 560.229 177.965C561.368 179.286 562.188 180.699 562.689 182.203C563.236 183.661 563.51 184.938 563.51 186.031C565.697 183.616 567.999 181.451 570.414 179.537C571.417 178.717 572.51 177.919 573.695 177.145C574.88 176.37 576.111 175.686 577.387 175.094C578.708 174.456 580.03 173.954 581.352 173.59C582.719 173.225 584.086 173.043 585.453 173.043C588.096 173.043 590.352 173.544 592.221 174.547C594.089 175.504 595.593 176.78 596.732 178.375C597.872 179.97 598.692 181.77 599.193 183.775C599.74 185.781 600.014 187.786 600.014 189.791V232.105C600.014 232.516 600.036 232.971 600.082 233.473C600.128 233.928 600.242 234.384 600.424 234.84C600.606 235.25 600.88 235.592 601.244 235.865C601.654 236.139 602.178 236.275 602.816 236.275C603.682 236.275 604.457 235.979 605.141 235.387C605.824 234.749 606.462 234.111 607.055 233.473L608.695 234.908C608.057 235.865 607.214 236.936 606.166 238.121C605.118 239.26 603.865 240.354 602.406 241.402C600.993 242.451 599.33 243.316 597.416 244C595.548 244.729 593.428 245.094 591.059 245.094C589.053 245.094 587.299 244.82 585.795 244.273C584.337 243.772 583.083 243.089 582.035 242.223C581.033 241.311 580.281 240.263 579.779 239.078C579.278 237.848 579.027 236.549 579.027 235.182V189.518C579.027 188.88 578.936 188.242 578.754 187.604C578.572 186.92 578.298 186.305 577.934 185.758C577.615 185.211 577.182 184.778 576.635 184.459C576.088 184.094 575.45 183.912 574.721 183.912C573.49 183.912 572.26 184.277 571.029 185.006C569.844 185.689 568.728 186.487 567.68 187.398C566.677 188.31 565.811 189.221 565.082 190.133C564.353 191.044 563.829 191.728 563.51 192.184V237.984ZM635.697 212.623C635.697 214.081 635.902 215.676 636.312 217.408C636.768 219.094 637.406 220.803 638.227 222.535C639.047 224.267 640.049 225.93 641.234 227.525C642.465 229.075 643.855 230.465 645.404 231.695C646.999 232.926 648.754 233.906 650.668 234.635C652.582 235.364 654.678 235.729 656.957 235.729C658.552 235.729 660.033 235.546 661.4 235.182C662.768 234.817 664.044 234.316 665.229 233.678C666.413 233.04 667.553 232.311 668.646 231.49C669.74 230.624 670.834 229.713 671.928 228.756L673.637 230.396C672.589 231.809 671.244 233.359 669.604 235.045C667.963 236.731 665.98 238.326 663.656 239.83C661.332 241.288 658.62 242.519 655.521 243.521C652.423 244.479 648.891 244.957 644.926 244.957C640.961 244.957 637.087 244.251 633.305 242.838C629.568 241.38 626.241 239.215 623.324 236.344C620.408 233.473 618.061 229.895 616.283 225.611C614.551 221.327 613.686 216.314 613.686 210.572C613.686 206.425 614.21 202.62 615.258 199.156C616.306 195.693 617.719 192.571 619.496 189.791C621.319 187.011 623.415 184.573 625.785 182.477C628.201 180.38 630.73 178.648 633.373 177.281C636.016 175.868 638.705 174.82 641.439 174.137C644.219 173.408 646.885 173.043 649.438 173.043C652.81 173.043 655.749 173.408 658.256 174.137C660.762 174.866 662.836 175.846 664.477 177.076C666.163 178.307 667.416 179.742 668.236 181.383C669.057 182.978 669.467 184.664 669.467 186.441C669.467 188.583 668.852 190.52 667.621 192.252C666.391 193.938 664.75 195.419 662.699 196.695L635.697 212.623ZM649.438 198.746C650.03 198.382 650.508 198.04 650.873 197.721C651.283 197.356 651.602 196.946 651.83 196.49C652.058 195.989 652.217 195.396 652.309 194.713C652.445 193.984 652.514 193.095 652.514 192.047C652.514 190.908 652.377 189.654 652.104 188.287C651.876 186.874 651.465 185.553 650.873 184.322C650.281 183.092 649.529 182.066 648.617 181.246C647.706 180.426 646.612 180.016 645.336 180.016C643.695 180.016 642.283 180.517 641.098 181.52C639.958 182.477 639.001 183.73 638.227 185.279C637.497 186.829 636.905 188.606 636.449 190.611C636.039 192.571 635.72 194.553 635.492 196.559C635.264 198.564 635.128 200.501 635.082 202.369C635.036 204.192 635.014 205.742 635.014 207.018L649.438 198.746ZM705.014 178.922V229.439C705.014 231.855 705.469 233.541 706.381 234.498C707.292 235.41 708.546 235.865 710.141 235.865C711.371 235.865 712.465 235.523 713.422 234.84C714.379 234.156 715.199 233.382 715.883 232.516C716.703 231.559 717.41 230.442 718.002 229.166L720.121 230.123C719.438 231.581 718.617 233.176 717.66 234.908C716.749 236.64 715.518 238.258 713.969 239.762C712.419 241.22 710.46 242.451 708.09 243.453C705.766 244.456 702.826 244.957 699.271 244.957C697.266 244.957 695.329 244.661 693.461 244.068C691.638 243.476 689.997 242.542 688.539 241.266C687.126 239.99 685.987 238.395 685.121 236.48C684.255 234.566 683.822 232.265 683.822 229.576V178.922H676.166V174C677.442 174 679.219 173.681 681.498 173.043C683.777 172.359 686.101 171.243 688.471 169.693C690.886 168.144 693.119 166.07 695.17 163.473C697.221 160.875 698.679 157.662 699.545 153.834H705.014V174H716.156C719.802 174 721.625 173.385 721.625 172.154C721.625 171.699 721.397 171.402 720.941 171.266C720.486 171.083 719.962 170.878 719.369 170.65C718.822 170.377 718.321 170.012 717.865 169.557C717.41 169.101 717.182 168.349 717.182 167.301C717.182 166.025 717.569 165.022 718.344 164.293C719.164 163.564 720.212 163.199 721.488 163.199C722.309 163.199 723.015 163.382 723.607 163.746C724.245 164.065 724.77 164.521 725.18 165.113C725.59 165.66 725.886 166.298 726.068 167.027C726.296 167.757 726.41 168.486 726.41 169.215C726.41 172.177 725.544 174.547 723.812 176.324C722.126 178.056 719.392 178.922 715.609 178.922H705.014ZM760.795 208.59C760.795 207.451 760.43 206.585 759.701 205.992C758.972 205.4 758.038 205.104 756.898 205.104C755.303 205.104 753.777 205.468 752.318 206.197C750.906 206.926 749.652 207.997 748.559 209.41C747.465 210.823 746.599 212.577 745.961 214.674C745.323 216.725 745.004 219.117 745.004 221.852C745.004 224.495 745.186 226.682 745.551 228.414C745.961 230.146 746.485 231.536 747.123 232.584C747.807 233.587 748.581 234.293 749.447 234.703C750.313 235.113 751.225 235.318 752.182 235.318C753.367 235.318 754.483 235.022 755.531 234.43C756.579 233.792 757.491 232.994 758.266 232.037C759.04 231.08 759.656 230.009 760.111 228.824C760.567 227.639 760.795 226.454 760.795 225.27V208.59ZM749.926 178.648C748.376 178.648 746.941 178.831 745.619 179.195C744.298 179.56 743.158 180.016 742.201 180.562C741.244 181.109 740.492 181.725 739.945 182.408C739.398 183.046 739.125 183.661 739.125 184.254C739.125 184.938 739.467 185.439 740.15 185.758C740.88 186.031 741.677 186.373 742.543 186.783C743.409 187.148 744.184 187.695 744.867 188.424C745.596 189.107 745.961 190.178 745.961 191.637C745.961 192.594 745.756 193.482 745.346 194.303C744.981 195.077 744.457 195.784 743.773 196.422C743.135 197.014 742.361 197.493 741.449 197.857C740.583 198.176 739.672 198.336 738.715 198.336C736.163 198.336 734.089 197.47 732.494 195.738C730.945 194.007 730.17 191.705 730.17 188.834C730.17 186.054 730.899 183.684 732.357 181.725C733.816 179.719 735.707 178.079 738.031 176.803C740.401 175.527 743.067 174.592 746.029 174C748.992 173.362 751.954 173.043 754.916 173.043C758.471 173.043 761.866 173.43 765.102 174.205C768.337 174.98 771.186 176.21 773.646 177.896C776.153 179.583 778.135 181.725 779.594 184.322C781.098 186.92 781.85 190.064 781.85 193.756V232.379C781.85 232.789 781.872 233.245 781.918 233.746C781.964 234.247 782.077 234.703 782.26 235.113C782.442 235.523 782.715 235.865 783.08 236.139C783.445 236.412 783.969 236.549 784.652 236.549C785.473 236.549 786.225 236.253 786.908 235.66C787.637 235.022 788.275 234.384 788.822 233.746L790.531 235.182C789.848 236.139 789.027 237.187 788.07 238.326C787.113 239.465 785.951 240.536 784.584 241.539C783.217 242.542 781.622 243.385 779.799 244.068C777.976 244.752 775.902 245.094 773.578 245.094C770.707 245.094 768.155 244.251 765.922 242.564C763.689 240.833 762.23 238.189 761.547 234.635C760.089 236.594 758.562 238.235 756.967 239.557C755.417 240.878 753.822 241.949 752.182 242.77C750.541 243.59 748.878 244.182 747.191 244.547C745.551 244.911 743.887 245.094 742.201 245.094C740.014 245.094 737.895 244.752 735.844 244.068C733.793 243.385 731.947 242.314 730.307 240.855C728.712 239.352 727.413 237.415 726.41 235.045C725.453 232.675 724.975 229.781 724.975 226.363C724.975 222.216 725.795 218.821 727.436 216.178C729.076 213.535 731.218 211.324 733.861 209.547C736.55 207.724 739.581 206.174 742.953 204.898C746.371 203.622 749.857 202.278 753.412 200.865C756.055 199.817 757.969 198.268 759.154 196.217C760.385 194.12 761 191.979 761 189.791C761 186.419 759.997 183.73 757.992 181.725C756.033 179.674 753.344 178.648 749.926 178.648ZM838.246 209.957C838.246 205.992 838.041 202.278 837.631 198.814C837.221 195.305 836.56 192.252 835.648 189.654C834.737 187.011 833.575 184.938 832.162 183.434C830.749 181.884 829.04 181.109 827.035 181.109C825.486 181.109 824.164 181.497 823.07 182.271C822.022 183.001 821.156 183.844 820.473 184.801C819.789 185.758 819.288 186.715 818.969 187.672C818.65 188.583 818.49 189.199 818.49 189.518V209.957C818.49 219.892 819.311 227.115 820.951 231.627C822.637 236.139 825.098 238.395 828.334 238.395C831.752 238.395 834.258 236.093 835.854 231.49C837.449 226.887 838.246 219.71 838.246 209.957ZM797.504 149.664C797.504 148.342 797.185 147.203 796.547 146.246C795.954 145.243 794.929 144.742 793.471 144.742C792.696 144.742 792.012 144.879 791.42 145.152C790.873 145.38 790.281 145.745 789.643 146.246L788.275 144.605C789.324 143.74 790.486 142.896 791.762 142.076C793.083 141.21 794.496 140.458 796 139.82C797.504 139.182 799.122 138.658 800.854 138.248C802.585 137.838 804.408 137.633 806.322 137.633C808.965 137.633 811.085 138.043 812.68 138.863C814.32 139.638 815.551 140.618 816.371 141.803C817.237 142.942 817.807 144.195 818.08 145.562C818.354 146.884 818.49 148.115 818.49 149.254V179.742C819.037 179.241 819.743 178.626 820.609 177.896C821.475 177.122 822.569 176.37 823.891 175.641C825.212 174.911 826.785 174.296 828.607 173.795C830.476 173.294 832.663 173.043 835.17 173.043C838.087 173.043 841.003 173.727 843.92 175.094C846.837 176.415 849.457 178.512 851.781 181.383C854.105 184.254 855.997 187.945 857.455 192.457C858.913 196.969 859.643 202.392 859.643 208.727C859.643 213.694 858.959 218.388 857.592 222.809C856.27 227.229 854.288 231.103 851.645 234.43C849.001 237.711 845.697 240.309 841.732 242.223C837.768 244.137 833.165 245.094 827.924 245.094C822.227 245.094 817.419 244.182 813.5 242.359C809.626 240.491 806.505 238.007 804.135 234.908C801.765 231.764 800.056 228.118 799.008 223.971C798.005 219.824 797.504 215.449 797.504 210.846V149.664ZM894.027 237.984C894.027 238.577 893.913 239.283 893.686 240.104C893.503 240.924 893.025 241.699 892.25 242.428C891.521 243.157 890.427 243.772 888.969 244.273C887.556 244.82 885.642 245.094 883.227 245.094C880.811 245.094 878.92 244.798 877.553 244.205C876.186 243.658 875.16 242.997 874.477 242.223C873.839 241.448 873.428 240.65 873.246 239.83C873.109 239.01 873.041 238.349 873.041 237.848V149.664C873.041 148.342 872.722 147.203 872.084 146.246C871.492 145.243 870.466 144.742 869.008 144.742C868.233 144.742 867.549 144.879 866.957 145.152C866.41 145.38 865.818 145.745 865.18 146.246L863.812 144.605C864.861 143.74 866.023 142.896 867.299 142.076C868.575 141.21 869.965 140.458 871.469 139.82C873.018 139.182 874.659 138.658 876.391 138.248C878.122 137.838 879.945 137.633 881.859 137.633C884.822 137.633 887.123 138.043 888.764 138.863C890.404 139.638 891.612 140.618 892.387 141.803C893.161 142.942 893.617 144.173 893.754 145.494C893.936 146.77 894.027 147.91 894.027 148.912V237.984ZM928.959 212.623C928.959 214.081 929.164 215.676 929.574 217.408C930.03 219.094 930.668 220.803 931.488 222.535C932.309 224.267 933.311 225.93 934.496 227.525C935.727 229.075 937.117 230.465 938.666 231.695C940.261 232.926 942.016 233.906 943.93 234.635C945.844 235.364 947.94 235.729 950.219 235.729C951.814 235.729 953.295 235.546 954.662 235.182C956.029 234.817 957.305 234.316 958.49 233.678C959.675 233.04 960.814 232.311 961.908 231.49C963.002 230.624 964.096 229.713 965.189 228.756L966.898 230.396C965.85 231.809 964.506 233.359 962.865 235.045C961.225 236.731 959.242 238.326 956.918 239.83C954.594 241.288 951.882 242.519 948.783 243.521C945.684 244.479 942.152 244.957 938.188 244.957C934.223 244.957 930.349 244.251 926.566 242.838C922.829 241.38 919.503 239.215 916.586 236.344C913.669 233.473 911.322 229.895 909.545 225.611C907.813 221.327 906.947 216.314 906.947 210.572C906.947 206.425 907.471 202.62 908.52 199.156C909.568 195.693 910.98 192.571 912.758 189.791C914.581 187.011 916.677 184.573 919.047 182.477C921.462 180.38 923.992 178.648 926.635 177.281C929.278 175.868 931.967 174.82 934.701 174.137C937.481 173.408 940.147 173.043 942.699 173.043C946.072 173.043 949.011 173.408 951.518 174.137C954.024 174.866 956.098 175.846 957.738 177.076C959.424 178.307 960.678 179.742 961.498 181.383C962.318 182.978 962.729 184.664 962.729 186.441C962.729 188.583 962.113 190.52 960.883 192.252C959.652 193.938 958.012 195.419 955.961 196.695L928.959 212.623ZM942.699 198.746C943.292 198.382 943.77 198.04 944.135 197.721C944.545 197.356 944.864 196.946 945.092 196.49C945.32 195.989 945.479 195.396 945.57 194.713C945.707 193.984 945.775 193.095 945.775 192.047C945.775 190.908 945.639 189.654 945.365 188.287C945.137 186.874 944.727 185.553 944.135 184.322C943.542 183.092 942.79 182.066 941.879 181.246C940.967 180.426 939.874 180.016 938.598 180.016C936.957 180.016 935.544 180.517 934.359 181.52C933.22 182.477 932.263 183.73 931.488 185.279C930.759 186.829 930.167 188.606 929.711 190.611C929.301 192.571 928.982 194.553 928.754 196.559C928.526 198.564 928.389 200.501 928.344 202.369C928.298 204.192 928.275 205.742 928.275 207.018L942.699 198.746ZM1024.73 235.045C1024.73 238.554 1023.8 241.106 1021.93 242.701C1020.1 244.296 1017.3 245.094 1013.52 245.094C1009.69 245.094 1006.87 244.296 1005.04 242.701C1003.22 241.106 1002.31 238.554 1002.31 235.045V153.287C1002.31 150.781 1000.58 149.527 997.113 149.527C994.607 149.527 992.055 149.915 989.457 150.689C986.905 151.419 984.581 152.444 982.484 153.766C980.434 155.042 978.747 156.591 977.426 158.414C976.104 160.191 975.443 162.128 975.443 164.225C975.443 165.683 975.626 166.845 975.99 167.711C976.4 168.577 976.856 169.238 977.357 169.693C977.859 170.104 978.36 170.377 978.861 170.514C979.408 170.605 979.796 170.65 980.023 170.65C981.163 170.65 982.097 170.468 982.826 170.104C983.555 169.693 984.216 169.283 984.809 168.873C985.401 168.417 985.948 168.007 986.449 167.643C986.996 167.232 987.611 167.027 988.295 167.027C988.842 167.027 989.411 167.164 990.004 167.438C990.642 167.665 991.212 168.053 991.713 168.6C992.26 169.146 992.715 169.876 993.08 170.787C993.445 171.653 993.627 172.724 993.627 174C993.627 175.823 993.262 177.395 992.533 178.717C991.85 180.038 990.938 181.155 989.799 182.066C988.705 182.932 987.429 183.593 985.971 184.049C984.558 184.459 983.145 184.664 981.732 184.664C979.545 184.664 977.562 184.299 975.785 183.57C974.053 182.796 972.572 181.747 971.342 180.426C970.111 179.104 969.177 177.555 968.539 175.777C967.901 174 967.582 172.109 967.582 170.104C967.582 166.321 968.288 162.994 969.701 160.123C971.114 157.206 973.096 154.7 975.648 152.604C978.246 150.507 981.345 148.775 984.945 147.408C988.546 145.995 992.533 144.879 996.908 144.059C1001.28 143.238 1005.95 142.669 1010.92 142.35C1015.93 141.985 1021.13 141.803 1026.51 141.803C1039.54 141.803 1049.41 144.309 1056.11 149.322C1062.81 154.29 1066.16 161.445 1066.16 170.787C1066.16 175.344 1065.54 179.378 1064.31 182.887C1063.13 186.396 1061.51 189.426 1059.46 191.979C1057.45 194.485 1055.13 196.536 1052.48 198.131C1049.84 199.68 1047.11 200.797 1044.28 201.48C1041.46 202.164 1038.61 202.438 1035.74 202.301C1032.91 202.164 1030.27 201.64 1027.81 200.729L1028.76 197.789C1032.18 198.837 1034.98 198.883 1037.17 197.926C1039.4 196.923 1041.14 195.169 1042.37 192.662C1043.64 190.156 1044.51 186.988 1044.96 183.16C1045.47 179.332 1045.72 175.117 1045.72 170.514C1045.72 167.05 1045.35 163.906 1044.62 161.08C1043.89 158.209 1042.89 155.771 1041.62 153.766C1040.38 151.76 1038.93 150.211 1037.24 149.117C1035.6 147.978 1033.85 147.408 1031.98 147.408C1030.52 147.408 1029.31 147.636 1028.35 148.092C1027.44 148.502 1026.71 149.049 1026.17 149.732C1025.66 150.37 1025.3 151.077 1025.07 151.852C1024.89 152.581 1024.78 153.287 1024.73 153.971V235.045ZM1126.45 141.803C1138.85 141.803 1148.3 144.013 1154.82 148.434C1161.38 152.809 1164.66 159.098 1164.66 167.301C1164.66 171.311 1164.18 174.752 1163.23 177.623C1162.32 180.449 1161.02 182.864 1159.33 184.869C1157.69 186.829 1155.71 188.469 1153.38 189.791C1151.1 191.067 1148.62 192.161 1145.93 193.072C1147.8 193.574 1149.67 194.918 1151.54 197.105C1153.45 199.293 1155.39 202.005 1157.35 205.24C1159.31 208.43 1161.29 211.985 1163.29 215.904C1165.3 219.824 1167.31 223.788 1169.31 227.799C1171.36 231.809 1173.41 235.706 1175.46 239.488C1177.56 243.271 1179.63 246.643 1181.68 249.605C1183.78 252.568 1185.88 254.938 1187.97 256.715C1190.11 258.492 1192.23 259.381 1194.33 259.381C1195.24 259.381 1196.13 259.199 1197 258.834C1197.91 258.469 1198.61 258.105 1199.12 257.74L1200.55 260.406C1199.64 260.908 1198.52 261.454 1197.2 262.047C1195.88 262.685 1194.33 263.277 1192.55 263.824C1190.78 264.371 1188.77 264.827 1186.54 265.191C1184.35 265.602 1181.91 265.807 1179.22 265.807C1174.8 265.807 1170.81 264.576 1167.26 262.115C1163.71 259.7 1160.65 256.282 1158.1 251.861C1155.5 247.304 1152.95 242.519 1150.44 237.506C1147.94 232.493 1145.43 227.48 1142.92 222.467C1140.46 217.454 1137.98 212.555 1135.47 207.77C1133.01 202.984 1130.53 198.495 1128.02 194.303L1128.57 191.5C1131.26 192.184 1133.58 192.024 1135.54 191.021C1137.55 190.019 1139.19 188.401 1140.46 186.168C1141.74 183.889 1142.67 181.109 1143.27 177.828C1143.9 174.547 1144.22 170.992 1144.22 167.164C1144.22 164.43 1143.93 161.878 1143.33 159.508C1142.74 157.092 1141.9 154.996 1140.8 153.219C1139.76 151.396 1138.48 149.983 1136.98 148.98C1135.47 147.932 1133.79 147.408 1131.92 147.408C1130.46 147.408 1129.25 147.636 1128.29 148.092C1127.38 148.502 1126.65 149.049 1126.11 149.732C1125.56 150.37 1125.17 151.077 1124.95 151.852C1124.76 152.581 1124.67 153.287 1124.67 153.971V235.045C1124.67 238.554 1123.74 241.106 1121.87 242.701C1120.05 244.296 1117.24 245.094 1113.46 245.094C1109.63 245.094 1106.81 244.296 1104.98 242.701C1103.16 241.106 1102.25 238.554 1102.25 235.045V153.287C1102.25 150.781 1100.52 149.527 1097.05 149.527C1094.55 149.527 1092 149.915 1089.4 150.689C1086.85 151.419 1084.52 152.444 1082.43 153.766C1080.38 155.042 1078.69 156.591 1077.37 158.414C1076.05 160.191 1075.38 162.128 1075.38 164.225C1075.38 165.683 1075.57 166.845 1075.93 167.711C1076.34 168.577 1076.8 169.238 1077.3 169.693C1077.8 170.104 1078.3 170.377 1078.8 170.514C1079.35 170.605 1079.74 170.65 1079.96 170.65C1081.1 170.65 1082.04 170.468 1082.77 170.104C1083.5 169.693 1084.16 169.283 1084.75 168.873C1085.34 168.417 1085.89 168.007 1086.39 167.643C1086.94 167.232 1087.55 167.027 1088.24 167.027C1088.78 167.027 1089.35 167.164 1089.95 167.438C1090.58 167.665 1091.15 168.053 1091.65 168.6C1092.2 169.146 1092.66 169.876 1093.02 170.787C1093.39 171.653 1093.57 172.724 1093.57 174C1093.57 175.823 1093.2 177.395 1092.47 178.717C1091.79 180.038 1090.88 181.155 1089.74 182.066C1088.65 182.932 1087.37 183.593 1085.91 184.049C1084.5 184.459 1083.09 184.664 1081.67 184.664C1079.49 184.664 1077.5 184.299 1075.73 183.57C1073.99 182.796 1072.51 181.747 1071.28 180.426C1070.05 179.104 1069.12 177.555 1068.48 175.777C1067.84 174 1067.52 172.109 1067.52 170.104C1067.52 166.321 1068.23 162.994 1069.64 160.123C1071.06 157.206 1073.04 154.7 1075.59 152.604C1078.19 150.507 1081.29 148.775 1084.89 147.408C1088.49 145.995 1092.47 144.879 1096.85 144.059C1101.22 143.238 1105.9 142.669 1110.86 142.35C1115.88 141.985 1121.07 141.803 1126.45 141.803ZM1220.85 163.473C1220.85 165.068 1221.1 166.389 1221.61 167.438C1222.11 168.44 1222.72 169.306 1223.45 170.035C1224.23 170.719 1225.05 171.288 1225.91 171.744C1226.78 172.2 1227.58 172.678 1228.3 173.18C1229.08 173.681 1229.72 174.251 1230.22 174.889C1230.72 175.527 1230.97 176.347 1230.97 177.35C1230.97 179.036 1230.38 180.335 1229.19 181.246C1228.01 182.112 1226.64 182.545 1225.09 182.545C1223.63 182.545 1222.27 182.089 1220.99 181.178C1219.76 180.266 1218.67 179.036 1217.71 177.486C1216.8 175.891 1216.07 174.046 1215.52 171.949C1214.97 169.807 1214.7 167.551 1214.7 165.182C1214.7 162.265 1215.16 159.485 1216.07 156.842C1216.98 154.153 1218.32 151.806 1220.1 149.801C1221.88 147.75 1224.07 146.132 1226.66 144.947C1229.31 143.762 1232.32 143.17 1235.69 143.17C1237.97 143.17 1240.45 143.557 1243.14 144.332C1245.83 145.061 1248.49 146.246 1251.14 147.887C1253.83 149.527 1256.4 151.646 1258.86 154.244C1261.37 156.842 1263.58 160.009 1265.49 163.746C1267.45 167.483 1269 171.812 1270.14 176.734C1271.28 181.656 1271.85 187.239 1271.85 193.482C1271.85 201.549 1270.64 208.772 1268.23 215.152C1265.86 221.533 1262.62 226.956 1258.52 231.422C1254.46 235.842 1249.75 239.238 1244.37 241.607C1238.99 243.932 1233.29 245.094 1227.28 245.094C1221.31 245.094 1215.61 244.068 1210.19 242.018C1204.77 239.967 1199.98 236.845 1195.83 232.652C1191.73 228.414 1188.45 223.059 1185.99 216.588C1183.57 210.071 1182.37 202.369 1182.37 193.482C1182.37 186.601 1183.28 180.335 1185.1 174.684C1186.97 169.033 1189.45 164.02 1192.55 159.645C1195.7 155.27 1199.34 151.601 1203.49 148.639C1207.64 145.631 1212.04 143.352 1216.68 141.803L1219.01 144.742C1217.69 146.064 1216.46 147.431 1215.32 148.844C1214.18 150.257 1213.13 151.874 1212.17 153.697C1211.21 155.475 1210.35 157.548 1209.57 159.918C1208.85 162.242 1208.23 164.999 1207.73 168.189C1207.23 171.334 1206.84 174.98 1206.57 179.127C1206.29 183.274 1206.16 188.059 1206.16 193.482C1206.16 200.501 1206.52 206.493 1207.25 211.461C1208.02 216.428 1209 220.598 1210.19 223.971C1211.42 227.298 1212.79 229.964 1214.29 231.969C1215.84 233.928 1217.39 235.41 1218.94 236.412C1220.49 237.415 1221.99 238.076 1223.45 238.395C1224.91 238.668 1226.19 238.805 1227.28 238.805C1228.37 238.805 1229.63 238.668 1231.04 238.395C1232.5 238.076 1233.98 237.415 1235.48 236.412C1237.03 235.41 1238.56 233.928 1240.06 231.969C1241.57 229.964 1242.89 227.298 1244.03 223.971C1245.21 220.598 1246.17 216.428 1246.9 211.461C1247.63 206.493 1247.99 200.501 1247.99 193.482C1247.99 187.33 1247.72 181.975 1247.17 177.418C1246.62 172.861 1245.9 168.964 1244.98 165.729C1244.12 162.493 1243.09 159.85 1241.91 157.799C1240.77 155.702 1239.56 154.062 1238.29 152.877C1237.05 151.646 1235.8 150.803 1234.53 150.348C1233.29 149.892 1232.16 149.664 1231.11 149.664C1229.47 149.664 1228.01 150.051 1226.73 150.826C1225.46 151.601 1224.39 152.649 1223.52 153.971C1222.65 155.247 1221.99 156.728 1221.54 158.414C1221.08 160.055 1220.85 161.741 1220.85 163.473Z" fill="url(#paint6_linear_1_156)"/>
</g>
<defs>
<linearGradient id="paint0_linear_1_156" x1="178.552" y1="280.562" x2="198.89" y2="280.562" gradientUnits="userSpaceOnUse">
<stop stop-color="#007594"/>
<stop offset="1" stop-color="#55CDFF" stop-opacity="0.8"/>
</linearGradient>
<linearGradient id="paint1_linear_1_156" x1="189.587" y1="280.655" x2="198.731" y2="280.655" gradientUnits="userSpaceOnUse">
<stop stop-color="#007594"/>
<stop offset="1" stop-color="#55CDFF" stop-opacity="0.8"/>
</linearGradient>
<linearGradient id="paint2_linear_1_156" x1="177.718" y1="276.274" x2="193.981" y2="276.342" gradientUnits="userSpaceOnUse">
<stop stop-color="#007594"/>
<stop offset="1" stop-color="#55CDFF" stop-opacity="0.8"/>
</linearGradient>
<linearGradient id="paint3_linear_1_156" x1="212.708" y1="39.6171" x2="264.965" y2="39.6171" gradientUnits="userSpaceOnUse">
<stop stop-color="white"/>
<stop offset="0.14" stop-color="#FBFDFD"/>
<stop offset="0.26" stop-color="#F0F6F8"/>
<stop offset="0.39" stop-color="#DDECF0"/>
<stop offset="0.51" stop-color="#C3DEE5"/>
<stop offset="0.63" stop-color="#A1CCD7"/>
<stop offset="0.74" stop-color="#77B5C6"/>
<stop offset="0.86" stop-color="#459AB1"/>
<stop offset="0.97" stop-color="#0E7C99"/>
<stop offset="1" stop-color="#007594"/>
</linearGradient>
<linearGradient id="paint4_linear_1_156" x1="196.056" y1="28.3423" x2="229.36" y2="28.3423" gradientUnits="userSpaceOnUse">
<stop stop-color="white"/>
<stop offset="0.14" stop-color="#FBFDFD"/>
<stop offset="0.26" stop-color="#F0F6F8"/>
<stop offset="0.39" stop-color="#DDECF0"/>
<stop offset="0.51" stop-color="#C3DEE5"/>
<stop offset="0.63" stop-color="#A1CCD7"/>
<stop offset="0.74" stop-color="#77B5C6"/>
<stop offset="0.86" stop-color="#459AB1"/>
<stop offset="0.97" stop-color="#0E7C99"/>
<stop offset="1" stop-color="#007594"/>
</linearGradient>
<linearGradient id="paint5_linear_1_156" x1="125.632" y1="49.2987" x2="162.708" y2="49.2987" gradientUnits="userSpaceOnUse">
<stop stop-color="white"/>
<stop offset="0.14" stop-color="#FBFDFD"/>
<stop offset="0.26" stop-color="#F0F6F8"/>
<stop offset="0.39" stop-color="#DDECF0"/>
<stop offset="0.51" stop-color="#C3DEE5"/>
<stop offset="0.63" stop-color="#A1CCD7"/>
<stop offset="0.74" stop-color="#77B5C6"/>
<stop offset="0.86" stop-color="#459AB1"/>
<stop offset="0.97" stop-color="#0E7C99"/>
<stop offset="1" stop-color="#007594"/>
</linearGradient>
<linearGradient id="paint6_linear_1_156" x1="1278" y1="194.349" x2="376.411" y2="219.323" gradientUnits="userSpaceOnUse">
<stop stop-color="#00D1FF"/>
<stop offset="0.546875" stop-color="#6DE5FF"/>
<stop offset="1" stop-color="white"/>
</linearGradient>
<clipPath id="clip0_1_156">
<rect width="1282" height="374" fill="white"/>
</clipPath>
<clipPath id="clip1_1_156">
<rect width="506" height="508" fill="white" transform="translate(-65 -76)"/>
</clipPath>
</defs>
</svg>
