<svg width="50" height="40" viewBox="0 0 50 40" fill="none" xmlns="http://www.w3.org/2000/svg">
<path d="M49.2308 4.70588C47.4187 5.52941 45.4655 6.07059 43.4417 6.32941C45.5126 5.08235 47.1128 3.10588 47.8659 0.729412C45.9126 1.90588 43.7476 2.72941 41.4649 3.2C39.6058 1.17647 36.9937 0 34.0285 0C28.4983 0 23.98 4.51765 23.98 10.0941C23.98 10.8941 24.0741 11.6706 24.2389 12.4C15.8612 11.9765 8.40124 7.95294 3.4358 1.85882C2.56508 3.34118 2.07089 5.08235 2.07089 6.91765C2.07089 10.4235 3.83586 13.5294 6.56567 15.2941C4.89484 15.2941 3.34167 14.8235 1.97676 14.1176C1.97676 14.1176 1.97676 14.1176 1.97676 14.1882C1.97676 19.0824 5.45963 23.1765 10.0721 24.0941C9.22489 24.3294 8.33064 24.4471 7.41286 24.4471C6.77747 24.4471 6.14208 24.3765 5.53023 24.2588C6.801 28.2353 10.4957 31.2 14.9434 31.2706C11.5076 34 7.15399 35.6 2.40035 35.6C1.60024 35.6 0.800118 35.5529 0 35.4588C4.47125 38.3294 9.78967 40 15.4846 40C34.0285 40 44.2183 24.6118 44.2183 11.2706C44.2183 10.8235 44.2183 10.4 44.1947 9.95294C46.1715 8.54118 47.8659 6.75294 49.2308 4.70588Z" fill="#0F172A"/>
</svg>
