<svg width="60" height="40" viewBox="0 0 60 40" fill="none" xmlns="http://www.w3.org/2000/svg">
<path d="M23.7037 28.5714L39.0815 20L23.7037 11.4286V28.5714ZM57.9556 6.2C58.3407 7.54286 58.6074 9.34286 58.7852 11.6286C58.9926 13.9143 59.0815 15.8857 59.0815 17.6L59.2593 20C59.2593 26.2571 58.7852 30.8571 57.9556 33.8C57.2148 36.3714 55.4963 38.0286 52.8296 38.7429C51.437 39.1143 48.8889 39.3714 44.9778 39.5429C41.1259 39.7429 37.6 39.8286 34.3407 39.8286L29.6296 40C17.2148 40 9.48148 39.5429 6.42963 38.7429C3.76296 38.0286 2.04444 36.3714 1.3037 33.8C0.918519 32.4571 0.651852 30.6571 0.474074 28.3714C0.266667 26.0857 0.177778 24.1143 0.177778 22.4L0 20C0 13.7429 0.474074 9.14286 1.3037 6.2C2.04444 3.62857 3.76296 1.97143 6.42963 1.25714C7.82222 0.885714 10.3704 0.628571 14.2815 0.457142C18.1333 0.257142 21.6593 0.171428 24.9185 0.171428L29.6296 0C42.0444 0 49.7778 0.457143 52.8296 1.25714C55.4963 1.97143 57.2148 3.62857 57.9556 6.2Z" fill="#0F172A"/>
</svg>
